{"glyphs":{"0":{"ha":475,"x_min":51,"x_max":426,"o":"m 313 742 q 334 726 321 731 q 360 716 347 721 q 383 703 372 711 q 397 679 393 696 q 405 651 400 664 q 413 624 410 638 q 417 596 417 610 q 413 565 418 582 q 413 538 411 551 q 417 512 415 525 q 418 485 418 499 q 413 458 418 472 q 414 435 415 447 q 415 411 413 422 q 413 366 419 388 q 417 321 407 344 l 422 317 q 421 255 418 285 q 419 196 424 225 q 424 156 426 178 q 424 115 422 135 q 424 78 424 99 q 422 40 425 58 q 409 4 418 21 q 382 -22 400 -12 q 358 -47 375 -40 q 325 -61 340 -53 q 285 -75 306 -67 q 246 -76 265 -83 q 222 -76 233 -79 q 199 -72 210 -74 q 174 -56 186 -65 q 146 -46 161 -46 q 120 -24 131 -39 q 99 4 110 -10 q 81 40 83 19 q 76 79 79 60 q 64 164 65 119 q 61 253 63 208 q 58 288 53 268 q 58 322 63 307 q 56 349 56 336 q 58 376 57 363 q 58 401 58 389 q 53 428 58 414 q 57 476 60 451 q 51 525 54 500 q 60 557 61 540 q 58 590 58 574 q 60 611 58 601 q 72 629 63 621 q 78 648 68 640 q 92 663 88 656 q 113 689 104 674 q 139 711 122 704 q 160 738 142 728 q 192 749 176 742 q 224 760 207 757 l 313 742 m 226 618 q 225 609 228 611 q 218 606 222 607 q 209 603 214 604 q 203 599 204 603 q 193 581 194 590 q 192 563 192 572 q 192 545 192 554 q 190 528 193 536 q 192 463 189 493 q 194 404 196 433 q 194 378 196 388 q 197 353 192 368 q 190 313 186 332 q 200 274 193 293 q 195 253 194 264 q 198 231 196 242 q 200 210 200 221 q 193 190 200 200 q 195 165 196 178 q 194 138 194 151 q 197 117 194 126 q 207 100 199 108 q 216 74 207 85 q 239 54 225 63 q 253 56 247 51 q 265 60 258 60 q 277 82 276 68 q 276 107 278 96 q 283 140 275 125 q 283 169 290 154 q 285 231 289 200 q 279 294 282 263 q 284 321 283 307 q 283 348 285 335 q 282 374 282 361 q 286 399 282 386 q 284 437 281 418 q 288 475 288 456 q 286 495 288 486 q 278 515 285 504 q 285 554 281 535 q 278 592 289 574 q 256 614 267 601 q 226 618 244 626 z "},"1":{"ha":358,"x_min":36,"x_max":340,"o":"m 172 796 q 206 807 194 796 q 227 803 217 803 q 247 806 238 804 q 266 806 257 807 q 286 800 275 806 q 282 700 282 751 q 283 639 282 669 q 283 579 283 608 q 284 528 281 551 q 285 482 288 506 q 290 435 290 461 q 287 377 290 406 q 290 319 283 349 q 292 264 289 292 q 300 214 296 236 q 292 162 286 188 q 301 111 299 136 q 311 38 304 74 q 340 -31 318 3 q 336 -40 340 -39 q 294 -11 310 -33 q 258 28 279 11 q 243 15 249 24 q 223 39 231 25 q 207 65 215 53 q 191 56 197 65 q 178 40 185 46 l 172 44 q 165 105 163 74 q 158 168 168 136 q 162 202 161 185 q 158 238 163 219 q 158 280 161 261 q 163 324 156 299 q 156 344 154 333 q 161 367 158 356 q 165 390 164 379 q 154 413 165 401 q 161 443 163 428 q 154 475 160 458 q 156 497 161 486 q 154 518 151 507 q 153 558 153 538 q 150 596 154 578 q 126 578 138 590 q 107 551 114 565 l 97 553 q 99 571 104 564 q 90 589 93 578 q 85 595 88 596 q 78 592 82 594 q 63 578 69 589 q 47 574 57 567 q 52 617 43 596 q 67 660 61 639 q 52 660 60 663 q 36 660 44 657 l 42 678 q 70 711 57 693 q 97 747 83 729 q 124 782 110 765 q 158 811 139 799 q 165 803 163 808 q 172 796 167 799 z "},"2":{"ha":431,"x_min":43,"x_max":421,"o":"m 308 860 q 325 849 319 858 q 340 836 331 840 q 351 805 344 819 q 365 775 358 790 q 373 734 367 754 q 378 692 379 714 q 388 653 392 672 q 382 615 385 635 q 378 576 383 596 q 367 536 374 556 q 363 521 369 529 q 353 506 357 513 l 349 489 q 326 447 339 467 q 307 406 314 426 q 290 387 296 397 q 279 365 283 376 q 270 342 275 353 q 256 321 265 331 q 247 304 247 313 q 247 288 246 296 q 246 271 247 279 q 236 254 244 263 q 249 251 242 250 q 263 253 256 251 q 276 255 269 254 q 288 251 282 256 q 349 253 314 260 l 396 260 q 411 257 403 256 q 421 247 419 258 q 399 238 408 244 q 382 222 390 231 q 365 207 374 214 q 344 196 357 200 q 339 184 339 192 q 349 175 339 176 q 356 172 351 174 q 357 163 361 169 q 329 151 342 156 q 303 139 317 147 q 311 130 310 135 q 318 121 313 125 q 265 111 292 110 q 211 111 239 113 q 161 108 186 113 q 114 114 136 103 q 87 107 99 111 q 60 111 75 103 q 60 141 60 126 q 54 169 60 156 q 59 201 64 186 q 58 233 54 217 q 93 294 89 260 q 123 342 110 317 q 147 393 136 367 q 168 430 160 410 q 183 469 176 450 q 198 508 190 489 q 219 543 206 528 q 229 568 219 557 q 243 592 239 579 q 247 623 239 607 q 251 654 256 639 q 246 674 247 663 q 242 695 244 685 q 235 714 240 706 q 218 725 231 722 q 197 724 207 724 q 183 713 186 724 q 181 686 186 700 q 172 658 175 672 q 163 658 167 651 q 151 660 158 664 q 144 638 143 649 q 138 615 144 626 q 133 585 132 600 q 129 557 133 571 q 122 557 126 554 q 115 564 117 560 q 94 599 101 579 q 79 639 86 618 q 74 631 75 636 q 72 620 72 625 q 68 613 71 615 q 58 613 65 610 q 56 624 60 619 q 50 632 53 628 q 51 654 53 643 q 49 676 50 665 q 47 696 47 686 q 50 715 46 706 q 49 739 43 728 q 54 763 54 750 q 65 791 54 778 q 78 819 75 804 q 106 841 89 832 q 135 865 124 850 q 162 872 147 871 q 188 883 176 872 q 206 879 197 879 q 222 881 214 879 q 240 885 231 883 q 257 883 249 886 q 280 866 268 872 q 308 860 292 860 z "},"3":{"ha":439,"x_min":43,"x_max":403,"o":"m 292 814 q 322 795 306 803 q 343 767 339 788 q 366 712 354 739 q 382 653 378 685 q 387 627 389 640 q 390 603 385 614 q 388 581 388 592 q 388 560 388 571 q 385 540 388 550 q 375 522 383 531 l 367 483 q 349 467 361 472 q 335 450 338 461 q 369 418 351 433 q 385 378 386 403 q 389 276 390 326 q 403 178 388 225 q 397 126 399 153 q 371 79 394 99 q 301 17 342 43 q 210 6 261 -8 q 192 13 201 11 q 174 16 183 15 q 154 18 164 17 q 135 25 144 19 q 105 44 119 33 q 88 74 90 54 q 63 106 64 85 q 56 146 63 126 q 47 174 51 160 q 49 201 43 188 q 47 239 47 221 q 46 275 46 257 q 46 297 46 286 q 47 319 46 308 q 61 319 54 326 q 69 297 64 308 q 78 274 74 285 q 86 259 83 267 q 100 249 89 251 q 110 263 107 253 q 124 267 113 274 q 133 253 131 261 q 147 244 136 246 q 156 244 153 242 q 160 250 158 247 q 163 255 161 253 q 169 256 165 257 q 174 245 174 250 q 173 236 174 240 q 173 228 172 232 q 179 219 174 224 q 174 209 174 214 q 176 199 175 204 q 179 188 178 193 q 178 176 181 182 q 194 151 181 158 q 221 138 208 144 q 241 147 236 136 q 253 165 246 157 q 251 195 254 181 q 254 226 249 210 q 248 255 251 242 q 253 282 244 268 l 249 335 q 238 349 247 343 q 235 367 229 356 q 222 380 231 376 q 205 383 214 383 q 186 383 196 383 q 169 388 176 383 q 161 386 168 386 q 160 396 158 390 q 161 406 161 401 q 160 416 161 411 q 151 425 158 421 q 153 437 144 433 q 165 449 163 440 q 169 471 165 461 q 160 489 172 481 q 151 501 157 496 q 143 513 146 506 q 166 522 150 524 q 193 525 182 519 l 217 533 q 228 549 219 540 q 231 567 238 557 q 238 578 238 572 q 238 591 239 585 q 237 603 238 597 q 240 617 236 610 q 235 648 238 635 q 229 678 232 661 q 213 693 224 689 q 192 692 203 697 q 174 678 176 690 q 168 654 171 667 q 167 645 165 650 q 170 636 168 640 q 173 627 172 632 q 169 618 174 622 q 173 610 171 615 q 169 603 175 606 q 165 606 167 601 q 160 610 164 610 q 150 611 154 608 q 142 617 146 614 q 135 619 139 619 q 125 614 131 619 q 111 591 114 603 q 104 567 108 579 l 97 561 q 79 607 88 583 q 60 654 71 631 q 51 649 56 654 q 43 651 46 644 q 54 715 46 682 q 81 778 63 749 q 103 792 94 783 q 124 808 113 800 q 160 816 143 811 q 193 829 178 821 q 218 822 206 821 q 243 824 231 822 q 267 825 256 826 q 292 814 279 824 z "},"4":{"ha":431,"x_min":22,"x_max":410,"o":"m 117 813 q 123 799 121 806 q 129 783 125 792 q 135 789 133 785 q 138 797 136 793 q 140 803 139 801 q 149 806 142 806 q 160 756 157 782 q 163 703 163 729 q 161 659 163 681 q 160 617 160 638 q 160 592 160 604 q 163 569 161 581 q 195 563 178 560 q 231 564 213 567 q 231 615 238 589 q 233 665 225 642 q 229 682 229 674 q 231 699 229 690 q 235 715 233 707 q 233 731 236 724 l 236 744 q 231 794 233 768 q 224 843 229 821 q 231 848 226 851 q 239 843 236 844 q 249 831 244 839 q 257 822 253 824 q 249 858 256 843 q 242 892 243 874 q 253 893 247 899 q 265 883 260 888 q 273 874 271 881 q 282 869 275 868 q 309 821 292 842 q 333 772 326 800 q 344 783 339 776 q 357 788 350 790 q 367 729 365 760 q 367 671 369 699 q 370 645 374 658 q 369 617 367 632 q 374 594 375 606 q 372 573 374 583 q 369 551 369 563 q 375 531 368 540 q 376 489 381 508 q 376 447 371 469 l 376 403 q 376 340 376 371 q 375 278 375 310 q 376 240 375 258 q 378 201 376 221 q 383 101 376 151 q 410 7 389 51 l 404 3 q 372 28 389 14 q 344 57 356 42 q 335 53 338 58 q 328 54 333 47 q 306 83 315 69 q 289 114 296 97 q 281 106 283 111 q 277 94 279 100 q 272 84 275 88 q 261 85 269 81 l 256 147 q 251 171 251 158 q 252 196 251 183 q 252 221 253 208 q 246 244 251 233 q 247 285 249 265 q 246 325 246 306 q 251 365 246 347 q 244 391 246 378 q 243 417 243 404 q 217 418 231 414 q 190 414 203 422 q 169 418 179 421 q 146 417 158 415 q 125 417 135 418 q 104 417 115 417 q 75 418 89 417 q 49 426 61 419 q 43 450 43 439 q 44 472 43 461 q 44 493 44 482 q 39 517 44 504 q 43 569 43 542 q 42 623 43 597 q 43 675 40 649 q 38 733 42 706 q 24 788 35 760 q 32 799 31 792 q 40 808 33 806 q 40 837 44 822 q 33 864 35 851 q 27 881 32 872 q 26 897 22 890 q 74 860 54 882 q 117 813 94 838 z "},"5":{"ha":442,"x_min":44,"x_max":403,"o":"m 403 828 q 387 815 397 817 q 365 807 376 814 q 357 798 363 801 q 347 791 351 794 q 340 783 343 788 q 338 772 336 778 q 346 760 343 767 q 356 750 349 753 q 339 737 351 739 q 318 732 326 735 q 301 722 310 726 q 286 708 292 718 q 294 701 290 704 q 299 692 297 699 l 293 688 q 214 683 253 692 q 197 690 206 688 q 181 694 188 692 q 183 657 186 676 q 189 618 179 638 q 186 583 182 600 q 186 550 190 567 q 198 551 192 547 q 211 558 204 556 q 231 559 221 558 q 247 568 240 560 q 273 561 260 561 q 299 561 286 561 q 325 557 313 561 q 349 540 338 553 q 360 522 353 531 q 372 505 367 514 q 381 486 378 496 q 382 465 385 476 q 389 437 386 451 q 386 407 392 422 l 392 396 q 394 371 393 383 q 394 347 394 358 q 394 314 394 331 q 393 281 393 297 q 397 219 393 250 q 399 197 400 210 q 389 172 399 183 q 380 132 389 150 q 357 98 371 114 q 326 69 343 82 q 293 44 310 56 q 250 45 271 40 q 208 43 229 50 q 195 44 201 40 q 183 51 189 47 q 172 56 178 54 q 160 53 167 58 q 129 71 142 60 q 113 101 117 82 q 84 138 89 114 q 79 183 79 161 q 72 263 69 224 q 67 339 74 301 q 69 346 67 342 q 76 347 71 350 q 85 335 83 343 q 90 320 88 328 q 97 308 92 313 q 113 304 101 303 q 120 285 118 296 q 138 269 122 274 q 145 254 140 264 q 161 251 150 244 q 169 263 165 256 q 181 268 172 271 q 188 244 188 257 q 190 219 189 231 q 197 197 192 207 q 217 183 201 188 q 256 211 244 186 q 261 235 263 222 q 260 257 260 249 q 261 275 263 265 q 258 294 260 285 q 256 313 256 303 q 263 331 256 322 q 260 350 260 339 q 261 372 261 361 q 259 393 261 383 q 247 411 257 403 q 229 424 242 419 q 206 422 217 428 q 187 410 196 417 q 167 399 178 404 q 144 400 157 394 q 130 404 138 406 q 115 401 122 403 q 101 400 107 399 q 90 413 94 401 q 80 413 85 415 q 72 418 75 410 q 69 440 74 429 q 63 463 65 450 q 58 533 60 499 q 56 603 56 568 q 56 638 56 621 q 58 672 57 654 q 53 713 54 693 q 49 756 51 733 q 53 769 54 763 q 51 781 53 775 q 47 794 49 788 q 47 807 44 800 q 51 817 50 813 q 58 822 51 821 q 88 822 74 819 q 114 818 103 825 q 132 826 124 826 q 149 824 140 826 q 167 821 158 822 q 186 826 176 819 l 329 826 q 346 831 336 831 q 364 835 356 832 q 383 833 374 833 q 403 828 393 833 z "},"6":{"ha":461,"x_min":53,"x_max":411,"o":"m 229 -14 q 196 -21 214 -11 q 166 -10 179 -21 q 135 0 153 1 q 110 26 122 14 q 83 50 99 39 q 69 92 75 72 q 72 136 63 113 q 67 161 68 149 q 68 186 67 174 q 69 210 69 199 q 64 235 68 222 q 65 270 61 253 q 60 307 69 288 q 67 343 71 326 q 67 381 63 360 q 63 434 71 408 q 60 488 56 460 q 56 532 58 511 q 53 575 53 553 q 63 633 53 606 q 57 656 54 646 q 65 677 60 667 q 77 699 71 688 q 82 722 83 710 q 98 744 88 736 q 120 758 108 753 q 144 770 132 764 q 167 786 157 776 q 180 792 174 792 q 193 791 186 793 q 208 787 200 789 q 224 786 215 785 q 257 788 239 794 q 290 769 275 781 l 310 772 q 321 763 315 768 q 333 757 326 758 q 375 708 357 738 q 390 649 393 679 q 394 626 393 640 q 392 601 394 613 q 399 569 397 586 q 400 537 400 553 q 401 504 400 521 q 407 472 403 488 q 403 466 404 469 q 396 465 403 463 q 388 484 390 474 q 381 504 385 494 q 369 522 376 514 q 349 532 363 529 q 349 549 347 538 q 346 567 351 560 q 331 573 339 569 q 322 585 322 576 l 310 593 q 302 588 306 592 q 296 581 299 585 q 289 575 293 578 q 279 574 285 572 q 272 588 274 579 q 270 604 271 596 q 267 621 269 613 q 258 635 265 629 l 254 631 q 236 644 244 635 q 218 644 228 654 q 205 623 208 633 q 199 599 201 613 q 206 583 206 592 q 204 564 206 574 q 202 544 203 554 q 206 526 201 535 q 199 508 197 517 q 203 492 200 500 q 207 474 206 483 q 203 456 208 465 l 211 436 q 231 436 221 433 q 250 442 240 439 q 269 445 260 444 q 288 439 279 446 q 306 438 299 442 q 321 426 314 433 q 335 414 328 419 q 354 408 343 408 q 375 385 371 401 q 393 358 379 369 q 394 337 390 347 q 400 317 397 326 q 405 297 403 307 q 403 274 407 286 q 406 253 407 265 q 411 235 404 242 q 408 189 407 211 q 410 144 410 167 q 409 124 410 133 q 406 103 408 114 q 403 87 407 93 q 392 74 399 81 q 381 62 386 68 q 374 47 375 56 q 351 21 363 32 q 319 7 339 10 q 311 -1 317 0 q 299 -2 306 -1 q 288 -4 293 -3 q 282 -14 283 -6 q 264 -18 275 -19 q 246 -24 253 -17 q 237 -20 242 -21 q 229 -14 232 -19 m 244 99 q 256 108 254 100 q 265 118 257 115 q 273 138 268 128 q 274 160 278 149 q 279 175 279 168 q 278 190 279 182 q 276 205 276 197 q 279 221 275 213 q 275 237 275 229 q 276 253 275 244 q 276 269 278 261 q 268 283 275 276 q 267 297 271 293 q 258 303 264 301 q 247 308 253 306 q 240 318 242 311 q 228 315 232 319 q 218 307 224 310 q 213 293 221 299 q 206 278 204 288 q 208 257 210 267 q 205 238 207 247 q 201 218 203 228 q 207 197 200 208 q 208 162 203 179 q 210 125 214 144 q 223 106 210 110 q 244 99 236 103 z "},"7":{"ha":418,"x_min":17,"x_max":390,"o":"m 388 774 q 382 749 390 758 q 381 725 374 739 q 389 697 388 711 q 382 669 390 682 q 372 598 385 633 q 351 529 360 563 q 353 513 356 521 q 348 498 351 506 q 341 482 344 490 q 338 465 338 474 q 333 446 331 457 q 333 428 336 435 q 324 402 326 415 q 319 375 321 389 q 317 347 318 361 q 311 319 315 332 q 297 263 300 292 q 282 207 294 235 q 272 153 278 181 q 264 101 265 125 q 259 68 258 85 q 263 35 260 51 q 269 2 265 18 q 275 -31 272 -14 q 264 -32 271 -36 q 257 -24 263 -26 q 249 -17 251 -22 q 231 13 240 -1 q 211 43 221 28 q 199 23 200 36 q 188 3 197 10 l 183 4 q 176 51 185 28 q 171 103 168 75 q 165 106 164 101 q 161 114 165 111 q 152 109 154 115 q 143 110 150 103 q 142 115 140 113 q 145 120 143 118 q 148 124 147 122 q 144 126 149 125 q 171 245 163 185 q 193 368 179 306 q 193 392 190 381 q 200 415 196 404 q 208 438 204 426 q 213 463 213 450 q 214 469 215 465 q 214 478 213 474 q 222 513 218 496 q 235 549 225 531 q 238 589 229 568 q 244 631 247 610 l 250 642 q 210 647 231 649 q 169 644 190 646 q 143 639 154 647 q 118 632 132 631 q 103 616 110 626 q 86 608 97 606 q 85 614 85 611 q 86 619 86 617 l 89 621 q 91 643 90 633 q 93 664 92 653 q 54 654 74 664 q 24 631 35 644 q 17 642 17 632 q 21 658 17 651 q 44 703 29 685 q 81 742 60 722 q 71 750 76 750 q 59 748 65 750 q 47 744 53 746 q 38 750 42 743 q 53 763 46 756 q 69 776 61 771 q 85 785 76 782 q 107 785 94 788 q 133 783 119 778 q 158 781 147 789 q 215 776 185 776 q 263 781 239 776 q 284 777 272 771 q 307 779 296 783 q 340 782 325 779 q 374 790 356 785 q 382 784 379 789 q 388 774 385 779 z "},"8":{"ha":439,"x_min":40,"x_max":396,"o":"m 294 763 q 307 757 300 754 q 321 753 314 760 q 351 724 339 740 q 372 690 363 707 q 381 636 375 661 q 382 579 388 611 q 390 536 396 560 q 383 492 385 513 q 368 463 376 478 q 357 431 360 447 q 340 418 349 425 q 325 403 331 411 q 347 386 338 397 q 367 367 356 375 q 377 341 375 354 q 380 313 379 328 q 382 285 381 299 q 389 260 383 272 q 388 247 390 253 q 384 233 386 240 q 382 220 382 226 q 386 207 382 214 q 384 163 388 183 q 392 118 381 142 q 379 84 383 101 q 372 49 375 67 q 363 13 368 31 q 346 -21 357 -4 q 314 -38 331 -33 q 282 -56 297 -43 q 251 -60 265 -56 q 224 -68 238 -64 q 195 -74 210 -72 q 165 -67 181 -75 l 131 -36 q 109 -31 117 -37 q 95 -15 101 -24 q 83 4 89 -6 q 65 18 76 14 q 62 52 64 33 q 56 86 60 71 l 57 106 q 53 117 54 110 q 56 132 53 125 q 53 149 53 140 q 53 165 53 157 q 51 180 53 172 q 43 196 50 188 q 44 242 40 215 q 60 289 49 268 q 65 329 56 310 q 81 367 74 349 q 97 378 88 375 q 114 392 107 382 q 103 398 108 397 q 90 401 97 399 q 71 424 79 413 q 65 450 63 435 q 51 477 51 461 q 54 508 50 493 q 49 530 51 522 q 53 550 46 538 l 42 590 q 51 617 43 604 q 56 643 58 629 q 63 667 58 656 q 78 688 67 679 q 80 698 82 693 q 82 710 78 703 q 110 733 93 725 q 142 753 128 740 q 163 762 153 757 q 185 774 174 767 q 199 774 192 775 q 212 772 206 772 q 224 771 218 771 q 235 776 229 771 q 265 772 250 771 q 294 763 279 774 m 228 658 q 217 649 224 651 q 206 646 210 647 q 194 637 196 643 q 192 622 192 631 q 190 606 192 614 q 183 590 189 597 q 185 576 186 583 q 189 564 183 568 q 187 525 182 543 q 193 488 192 507 q 208 473 201 481 q 226 464 215 465 q 249 484 244 467 q 257 515 253 501 q 256 553 253 533 q 249 589 260 572 q 251 618 253 604 q 246 647 249 632 q 236 652 242 654 q 228 658 231 650 m 218 338 q 188 310 196 332 q 178 271 181 289 q 183 244 179 257 q 177 214 175 229 q 182 183 179 199 q 185 153 192 167 q 178 125 178 140 q 186 103 178 113 q 189 83 194 94 q 194 71 192 76 q 203 63 196 65 q 228 61 215 56 q 249 75 240 67 q 256 104 251 90 q 253 132 260 118 q 251 174 254 154 q 258 214 247 194 q 251 237 251 226 q 254 261 251 247 q 245 292 247 276 q 240 325 243 308 q 228 328 232 322 q 218 338 225 335 z "},"9":{"ha":456,"x_min":50,"x_max":408,"o":"m 232 810 q 251 811 243 808 q 265 818 258 814 q 281 815 274 818 q 294 807 288 811 q 309 799 301 803 q 326 797 317 796 q 351 771 339 783 q 378 747 363 758 q 392 704 386 724 q 390 661 399 685 q 395 636 394 649 q 394 611 396 624 q 393 587 393 599 q 397 563 393 575 q 397 526 400 543 q 401 490 393 508 q 394 453 390 471 q 394 417 399 436 q 399 363 392 389 q 401 310 406 338 q 406 265 403 286 q 408 222 408 244 q 399 164 408 192 q 404 140 407 151 q 396 119 401 129 q 384 98 390 108 q 379 75 378 88 q 364 53 374 61 q 342 38 354 44 q 317 26 329 32 q 296 10 306 19 q 268 6 281 -1 q 239 10 256 13 q 204 9 222 3 q 171 28 186 15 l 153 25 q 141 34 146 29 q 129 40 136 39 q 88 88 106 60 q 72 149 69 117 q 68 171 69 157 q 69 196 67 185 q 63 227 64 211 q 61 260 61 243 q 60 292 61 276 q 54 325 58 308 q 59 331 58 326 q 65 332 60 335 q 74 313 71 324 q 81 293 76 303 q 92 275 85 283 q 113 265 99 267 q 112 248 114 258 q 115 231 110 238 q 131 224 122 228 q 139 213 140 219 l 153 204 q 165 216 161 207 q 182 222 169 225 q 189 208 188 217 q 191 192 190 200 q 194 176 192 183 q 203 163 196 168 l 207 165 q 216 160 211 164 q 225 152 221 156 q 234 147 229 149 q 244 151 239 146 q 258 174 254 163 q 263 197 261 185 q 256 215 256 206 q 258 233 256 224 q 260 251 260 242 q 256 269 261 261 q 263 288 264 279 q 258 304 261 296 q 253 322 256 313 q 258 340 251 331 l 250 360 q 231 359 240 361 q 211 354 221 357 q 192 351 201 351 q 175 358 183 351 q 155 360 163 356 q 140 371 147 364 q 126 383 133 378 q 107 388 118 389 q 87 411 92 394 q 68 439 82 428 q 67 460 69 450 q 62 481 65 471 q 57 501 58 490 q 60 524 56 511 q 56 544 54 532 q 50 563 57 556 q 53 608 54 586 q 51 651 51 629 q 56 693 51 672 q 58 710 54 703 q 69 723 63 717 q 81 735 75 729 q 88 750 86 742 q 110 776 99 765 q 142 789 122 786 q 150 797 144 796 q 162 799 156 799 q 173 801 168 799 q 179 810 178 803 q 198 815 188 817 q 215 821 208 813 q 225 817 221 818 q 232 810 229 817 m 217 699 q 206 690 207 697 q 197 679 204 682 q 188 659 193 669 q 188 638 183 649 q 182 622 182 629 q 183 608 182 615 q 185 592 185 600 q 182 575 186 583 q 186 560 186 568 q 185 544 186 551 q 185 528 185 536 q 193 514 186 521 q 194 500 190 504 q 203 494 197 496 q 214 489 208 492 q 222 478 219 486 q 234 482 229 478 q 244 489 239 486 q 249 504 240 499 q 256 519 257 510 q 253 540 251 531 q 258 560 256 550 q 260 578 260 569 q 254 599 261 588 q 253 634 258 617 q 251 671 249 651 q 238 691 251 688 q 217 699 225 694 z "},"B":{"ha":467,"x_min":-64,"x_max":419,"o":"m 360 760 q 374 756 367 763 q 386 743 382 749 q 397 703 394 725 q 404 663 399 682 q 399 653 399 658 q 400 642 399 647 q 403 630 401 636 q 404 618 406 624 q 401 595 401 607 q 401 572 401 583 q 400 549 401 560 q 393 528 399 538 q 392 504 399 515 q 375 486 385 493 q 359 472 364 482 q 342 460 354 463 q 363 440 357 454 q 386 424 369 426 q 394 410 392 417 q 399 395 397 403 q 402 381 400 388 q 411 368 404 374 q 408 338 407 353 q 412 308 410 324 q 413 276 414 292 q 407 247 413 261 q 413 214 411 232 q 408 182 415 196 q 416 155 413 169 q 414 128 419 140 q 415 113 418 121 q 418 96 411 104 q 406 83 415 88 q 400 68 397 79 q 394 58 401 61 q 381 53 388 56 q 342 32 363 36 q 300 28 322 28 l 253 28 q 231 27 242 28 q 210 24 221 26 q 186 26 200 22 q 161 32 172 29 l 106 17 q 85 18 96 17 q 63 13 74 19 q 55 17 60 18 q 46 15 50 17 q 37 13 42 14 q 29 18 32 13 q 35 25 33 21 q 37 33 36 29 q 40 38 38 36 q 49 39 42 40 q 58 65 56 50 q 64 92 60 79 q 63 126 61 110 q 64 160 64 143 q 63 183 64 171 q 56 207 61 194 q 62 234 58 221 q 68 260 65 247 q 59 305 61 282 q 57 351 57 328 q 58 390 57 371 q 60 429 60 410 q 56 455 54 442 q 60 481 57 468 q 63 508 63 494 q 54 533 63 521 q 56 553 56 543 q 49 571 56 563 l 54 614 q 41 621 49 619 q 25 622 33 622 q 8 619 17 621 q -6 619 0 618 q 6 644 -4 635 q 24 664 15 653 q 16 665 19 669 q 8 661 13 661 l -25 663 q -44 653 -35 660 q -64 654 -54 646 q -58 665 -62 660 q -58 676 -53 669 q -40 710 -47 692 q -10 733 -32 729 q -9 743 -3 738 q -14 753 -15 749 q -21 763 -24 756 q 15 776 -6 774 q 54 782 35 778 q 124 786 89 783 q 193 786 158 789 q 210 792 201 792 q 228 790 218 792 q 247 789 238 789 q 265 794 257 789 q 316 788 289 792 q 360 760 343 783 m 221 678 q 211 663 214 675 q 194 642 196 657 q 193 615 193 626 q 200 543 185 576 l 217 531 q 236 532 228 526 q 254 540 244 538 q 256 572 251 556 q 263 603 261 588 q 254 619 256 611 q 253 638 253 628 q 253 656 254 647 q 247 674 253 665 q 233 676 239 671 q 221 678 228 681 m 233 407 q 221 405 226 403 q 208 401 215 407 q 203 392 207 396 q 194 383 199 388 q 187 374 189 379 q 188 361 185 369 q 191 335 193 349 q 194 307 189 322 q 188 273 188 289 q 191 241 189 257 q 196 210 193 225 q 197 178 199 194 q 200 173 199 175 q 199 168 201 171 q 206 159 200 161 q 215 151 211 157 q 228 148 221 143 q 243 149 236 153 q 257 158 253 151 q 262 172 261 164 q 264 190 263 181 q 269 206 265 199 q 264 233 260 217 q 271 263 268 249 q 269 314 272 289 q 271 364 267 339 q 263 377 265 369 q 257 392 260 385 q 249 404 254 400 q 233 407 244 408 z "},"C":{"ha":442,"x_min":39,"x_max":413,"o":"m 326 729 q 360 710 353 728 q 379 674 368 692 q 392 631 386 651 q 393 590 397 611 q 401 561 396 575 q 401 535 407 547 l 403 494 q 377 490 390 490 q 354 474 364 490 q 344 456 354 460 q 325 449 335 453 q 317 429 325 438 q 311 410 308 421 q 298 394 299 407 q 292 372 297 381 q 286 369 289 369 q 282 372 283 369 l 279 376 q 278 456 276 414 q 265 536 279 499 l 268 572 q 257 588 261 578 q 249 606 253 597 q 238 618 244 614 q 221 618 232 622 q 209 608 218 610 q 193 600 200 606 q 178 505 185 553 q 172 408 172 457 q 174 369 172 389 q 178 331 175 350 q 170 300 169 315 q 174 269 171 285 q 178 239 176 254 q 176 207 181 224 q 187 167 183 188 q 199 129 190 147 q 211 113 201 117 q 228 97 221 108 q 259 106 243 100 q 279 131 275 111 q 284 152 282 142 q 283 172 286 163 q 308 190 294 182 q 335 192 321 197 l 342 182 q 356 194 351 186 q 366 211 361 203 q 378 225 371 219 q 397 231 385 231 q 407 177 401 207 q 404 122 413 147 q 410 106 410 114 q 407 89 410 97 q 401 73 404 81 q 397 57 399 65 q 383 23 386 42 q 361 -6 381 4 q 328 -29 343 -18 q 289 -39 313 -40 q 253 -56 274 -54 q 213 -56 232 -58 q 177 -40 196 -43 q 144 -24 158 -37 q 106 -5 122 -22 q 76 28 90 13 q 69 52 75 40 q 58 75 63 64 q 50 98 53 86 q 51 124 47 110 q 49 148 54 138 q 42 172 43 158 q 47 219 44 196 q 49 267 49 243 q 39 342 49 307 q 42 419 40 382 q 44 494 44 457 q 40 567 44 531 q 47 593 46 579 q 49 620 47 607 q 53 647 50 633 q 67 671 57 660 q 88 703 72 690 q 115 732 103 717 l 147 744 q 173 740 158 742 q 197 749 188 738 q 210 749 204 749 q 222 753 215 750 q 276 745 249 746 q 326 729 303 744 z "},"D":{"ha":478,"x_min":-71,"x_max":435,"o":"m 336 775 q 357 763 344 764 q 381 758 369 761 q 408 731 399 749 q 418 697 417 713 q 417 671 411 682 q 421 646 424 660 q 418 607 417 625 q 422 569 419 589 q 418 541 417 554 q 422 515 419 528 q 425 488 424 501 q 421 458 426 474 q 420 419 419 438 q 421 382 421 400 q 417 325 421 354 q 428 301 421 314 q 428 276 435 289 q 420 258 425 267 q 426 240 415 249 q 426 209 422 225 q 422 178 429 193 q 428 157 433 169 q 419 135 424 144 q 402 104 413 118 q 372 86 392 90 q 355 67 367 74 q 331 54 343 60 q 282 48 304 44 q 233 44 260 51 q 210 49 221 50 q 190 45 200 47 q 169 42 179 43 q 146 47 158 40 q 126 46 138 50 q 106 42 115 42 q 85 48 96 50 q 65 42 75 46 q 47 39 56 39 q 31 51 38 39 q 40 57 32 56 q 43 67 49 58 q 44 72 43 69 q 50 75 46 75 q 56 87 58 78 q 60 101 53 96 q 69 115 67 107 q 68 131 72 124 l 64 136 q 70 200 69 169 q 74 265 71 231 q 65 297 60 279 q 72 329 69 314 q 62 350 61 339 q 66 372 63 361 q 70 392 69 382 q 61 414 71 403 q 63 433 63 424 q 63 454 63 443 q 60 515 63 485 q 57 574 58 546 q 60 595 61 583 q 58 618 60 607 l 31 642 q 8 638 19 642 q -12 642 -4 635 q -1 656 -8 650 q 11 672 7 663 q -10 680 1 679 q -33 678 -22 681 q -49 670 -42 675 q -65 668 -56 665 q -66 692 -71 682 q -52 713 -61 703 q -31 731 -43 722 q -12 749 -19 739 l 14 758 q 9 764 13 763 q 1 766 6 765 q -6 769 -3 767 q -7 776 -8 771 q 44 787 19 779 q 96 792 68 794 q 113 793 104 790 q 129 798 121 796 q 145 801 138 800 q 161 797 153 801 q 199 791 179 788 q 239 794 219 794 q 248 794 243 792 q 256 800 253 797 q 274 802 265 803 q 290 808 283 801 q 305 804 300 808 q 314 794 310 800 q 323 782 318 788 q 336 775 328 776 m 243 665 q 235 666 239 668 q 229 660 232 664 q 224 655 226 657 q 215 654 221 653 q 209 648 210 651 q 206 642 208 644 q 203 548 208 597 q 200 458 199 499 q 205 439 206 449 q 202 419 204 429 q 199 400 200 410 q 206 381 199 390 q 200 342 200 364 q 203 299 200 319 q 204 254 207 278 q 205 238 206 247 q 204 221 204 229 q 207 206 204 213 q 218 194 210 199 q 220 181 224 188 q 224 169 217 174 q 242 160 232 160 q 261 160 251 160 q 292 190 285 167 q 290 243 285 215 q 292 294 294 271 q 293 324 289 308 q 293 356 297 340 q 285 395 283 375 q 285 436 286 415 q 284 494 289 464 q 279 553 279 524 q 285 593 279 575 q 276 606 278 599 q 275 622 275 614 q 273 637 275 629 q 265 650 271 644 q 253 656 260 653 q 243 665 247 658 z "},"E":{"ha":385,"x_min":-65,"x_max":411,"o":"m 196 772 q 224 781 208 775 q 254 774 240 786 q 314 777 283 781 q 372 781 344 774 q 383 778 376 778 q 394 780 389 779 q 403 780 399 781 q 411 774 408 779 q 367 740 388 760 q 326 701 346 721 q 342 698 333 699 q 357 690 351 697 q 331 668 344 678 q 313 639 317 658 q 292 640 303 636 q 271 640 282 643 q 241 634 256 640 q 211 631 226 628 q 201 625 203 629 q 200 615 199 621 q 203 603 201 610 q 204 593 206 597 q 194 563 189 581 q 196 531 199 544 q 224 523 210 518 q 256 524 238 528 q 290 525 275 521 q 325 525 306 529 q 356 528 340 536 q 354 515 358 522 q 332 491 342 504 q 311 464 322 478 q 324 452 314 457 q 322 440 333 447 l 278 407 q 281 399 279 403 q 282 392 283 396 q 263 390 272 385 q 243 392 254 394 q 233 385 239 386 q 222 383 228 385 q 211 380 215 382 q 207 369 207 378 q 210 356 211 363 q 205 341 208 349 q 201 326 201 333 q 207 311 200 319 q 205 307 204 308 q 207 303 206 306 q 203 251 197 278 q 207 194 210 224 q 226 194 218 190 q 243 196 233 199 q 276 199 261 201 q 308 196 292 197 q 319 197 314 194 q 331 201 325 199 q 341 203 336 203 q 351 197 346 203 q 363 198 358 194 q 374 199 367 201 q 342 166 360 183 q 308 133 324 149 q 319 124 311 126 q 324 113 328 122 l 275 76 q 292 65 283 69 q 307 51 301 60 q 290 42 299 44 q 272 41 282 40 q 253 42 263 42 q 233 42 243 43 q 209 35 221 35 q 186 36 197 35 q 164 38 175 38 q 140 29 153 38 q 105 33 125 32 q 68 28 85 35 q 34 33 51 38 q 1 33 17 28 l 0 35 q 9 42 3 42 q 21 44 15 43 q 47 79 36 60 q 56 118 58 99 q 63 142 61 131 q 63 166 64 154 q 63 190 63 178 q 68 215 63 203 q 67 219 64 218 q 68 222 69 219 q 64 244 63 232 q 67 269 65 257 q 67 293 68 282 q 54 314 65 304 q 60 351 58 333 q 61 386 61 368 q 60 414 61 400 q 60 442 60 428 q 64 501 60 469 q 60 541 67 522 q 64 579 54 560 q 60 599 61 589 q 60 619 60 610 q 7 618 33 626 q -39 590 -19 610 q -44 578 -43 585 q -53 572 -46 571 q -56 589 -57 581 q -52 606 -56 597 q -45 624 -49 615 q -40 642 -42 633 q -28 653 -36 649 q -18 668 -19 658 q -40 667 -29 668 q -62 663 -51 667 q -62 678 -65 672 q -54 690 -60 685 q -43 700 -49 694 q -35 713 -37 706 q -20 724 -28 718 q -4 736 -12 729 q -22 742 -11 742 q -28 753 -32 742 q 14 769 -7 760 q 58 769 35 778 q 74 776 65 778 q 90 781 82 774 q 106 778 99 774 q 121 783 113 783 l 196 772 z "},"F":{"ha":382,"x_min":-78,"x_max":379,"o":"m 374 771 q 375 760 379 767 q 347 735 361 749 q 325 707 333 722 q 338 703 331 703 q 347 694 344 703 l 347 688 q 320 669 332 679 q 297 649 308 660 q 302 645 300 646 q 306 642 304 644 q 297 631 303 633 q 283 631 290 629 q 267 633 275 632 q 253 632 258 633 q 203 625 228 625 q 201 600 196 611 q 206 575 207 589 q 202 558 201 567 q 204 540 203 549 q 206 524 206 532 q 199 510 206 517 l 199 506 q 222 504 210 504 q 244 504 233 504 l 293 504 q 333 509 313 507 q 371 503 353 511 q 352 482 364 490 q 335 458 340 474 q 311 438 324 447 q 288 418 299 429 q 298 412 290 413 q 304 401 306 411 q 274 388 290 393 q 250 368 258 383 q 231 365 240 365 q 214 357 221 364 q 210 297 213 326 q 208 239 208 267 q 209 217 208 228 q 211 196 210 207 q 207 159 208 179 q 206 119 206 139 q 206 94 206 107 q 208 69 207 81 q 213 53 211 63 q 218 36 214 43 q 215 17 210 28 q 224 -3 219 6 l 253 -44 q 244 -49 249 -50 q 233 -47 239 -49 q 222 -42 228 -44 q 210 -42 215 -40 l 175 -17 q 165 -28 174 -26 q 160 -40 156 -31 q 161 -54 157 -46 q 154 -62 165 -62 q 122 -27 133 -49 q 99 14 110 -6 q 89 3 92 10 q 84 -8 86 -3 q 78 -18 82 -14 q 68 -22 75 -22 q 66 4 65 -10 q 64 31 67 18 q 63 54 61 43 q 64 78 65 65 l 61 78 q 59 115 58 97 q 65 151 60 132 q 64 188 63 171 q 68 222 65 206 q 58 250 58 236 q 59 278 57 264 q 64 308 61 293 q 64 336 67 322 q 62 416 67 376 q 61 497 57 456 q 59 510 60 504 q 57 524 58 515 q 60 563 63 543 q 56 603 57 582 q 16 599 36 604 q -15 575 -4 594 q -25 574 -18 569 q -20 596 -28 586 q -15 617 -12 606 q -5 629 -12 625 q -1 642 3 633 q -37 649 -21 651 q -71 642 -53 647 l -78 642 l -76 653 q -69 662 -67 654 q -64 676 -71 669 q -37 700 -51 688 q -8 724 -22 713 q -4 725 -7 722 l -21 736 q 19 759 -1 747 q 64 768 40 771 q 78 772 71 771 q 92 767 85 772 q 117 765 104 765 q 143 764 129 764 q 206 774 178 764 q 216 771 211 772 q 226 765 221 769 q 253 773 239 769 q 282 771 268 776 l 374 771 z "},"G":{"ha":453,"x_min":39,"x_max":468,"o":"m 304 804 q 348 790 328 804 q 379 756 368 776 q 393 722 386 740 q 394 683 400 703 q 397 678 397 681 q 393 675 396 676 q 384 678 385 668 q 378 690 383 688 q 368 698 371 693 q 358 704 365 703 q 351 653 356 679 q 329 607 346 626 q 314 621 318 610 q 303 640 310 632 q 295 624 300 632 q 293 606 290 615 q 281 596 282 606 q 271 586 281 586 q 263 606 264 593 q 260 631 263 619 q 262 644 267 638 q 257 658 257 651 q 242 669 253 669 q 224 678 231 669 q 212 677 217 681 q 203 667 207 674 q 196 654 199 661 q 189 643 193 647 q 192 628 193 636 q 187 613 190 621 q 182 598 183 606 q 188 582 181 590 q 190 554 185 568 q 185 517 181 538 q 181 479 189 496 q 181 426 197 454 q 183 422 186 424 q 182 418 179 421 q 184 372 188 394 q 188 328 181 350 q 183 298 182 313 q 186 269 183 283 q 192 240 189 254 q 193 210 194 225 q 213 191 200 199 q 238 186 225 183 l 257 207 q 260 246 257 226 q 274 281 264 265 q 266 340 271 310 q 261 400 261 369 q 267 449 261 426 q 262 478 264 463 q 264 506 260 493 q 262 512 264 508 q 258 519 260 515 q 256 525 256 522 q 264 529 257 528 q 301 529 283 525 q 340 526 319 533 q 376 533 356 533 q 411 529 396 532 q 415 511 414 522 q 408 494 415 500 q 408 473 404 483 q 408 451 413 463 q 411 393 410 419 q 413 340 413 367 q 412 310 413 325 q 408 281 411 296 q 415 263 415 272 q 411 245 414 254 q 407 227 408 236 q 413 208 406 218 q 415 185 415 196 q 412 165 414 175 q 409 146 410 156 q 413 125 408 136 q 421 66 419 93 q 435 11 422 39 q 453 -17 442 -4 q 468 -46 465 -29 l 460 -51 q 420 -26 436 -40 q 386 7 404 -11 q 383 -2 382 3 q 384 -11 383 -7 q 383 -17 385 -15 q 374 -17 382 -19 q 347 4 360 -7 q 325 29 335 15 q 319 18 321 26 q 310 7 317 10 q 300 17 303 10 q 292 32 297 25 q 242 24 267 24 q 188 31 214 24 q 136 50 161 39 q 117 68 128 60 q 96 85 106 76 q 78 106 86 94 q 71 132 71 117 q 53 163 57 147 q 49 196 49 179 q 51 235 49 215 q 49 274 53 254 q 56 288 51 279 q 49 299 60 296 q 44 310 47 306 q 39 322 42 315 q 45 344 42 333 q 50 367 49 356 q 47 403 47 386 q 46 440 46 421 l 46 513 q 45 560 49 536 q 46 610 42 585 l 43 613 q 44 627 47 618 q 44 643 42 636 q 48 663 50 653 q 50 683 46 672 q 63 700 58 690 q 70 719 67 710 q 78 738 74 729 q 93 754 83 747 q 100 760 94 758 q 111 765 106 763 q 121 770 117 767 q 125 781 125 774 q 160 803 138 796 q 172 809 161 810 q 189 808 182 808 q 222 819 204 818 q 260 819 240 819 q 283 815 272 822 q 304 804 293 808 z "},"H":{"ha":450,"x_min":11,"x_max":438,"o":"m 322 765 q 344 740 333 750 q 363 711 356 731 q 368 718 367 713 q 370 728 369 724 q 374 734 371 732 q 382 733 376 736 q 393 710 390 722 q 397 686 396 699 q 399 662 399 674 q 403 639 400 650 q 398 587 394 611 q 396 536 401 563 q 398 478 403 510 q 400 419 393 446 q 396 390 399 404 q 397 361 393 376 q 394 342 396 351 q 396 322 393 333 q 399 309 401 315 q 397 294 396 303 q 402 181 404 236 q 411 72 400 125 q 405 47 404 60 q 408 20 406 33 q 413 -6 411 7 q 411 -32 415 -19 q 421 -63 414 -49 q 438 -93 428 -78 q 433 -98 436 -97 q 428 -101 431 -99 q 385 -68 403 -90 q 351 -25 368 -46 q 345 -33 346 -28 q 344 -45 344 -39 q 341 -56 343 -51 q 331 -58 339 -60 q 310 -20 317 -40 q 297 19 304 0 q 291 15 293 19 q 287 7 289 11 q 281 0 285 3 q 272 0 278 -3 q 272 57 274 28 q 269 117 269 86 q 270 139 269 128 q 272 161 271 150 q 265 222 269 193 q 260 282 261 251 q 228 287 244 286 q 197 279 211 288 q 187 282 192 285 q 179 275 182 279 q 185 229 185 254 q 181 167 185 197 q 183 104 176 136 l 183 61 q 185 31 183 46 q 192 0 186 15 q 193 -45 183 -24 q 206 -90 203 -67 q 213 -99 208 -96 q 218 -110 218 -103 q 208 -112 211 -115 q 200 -106 204 -108 q 191 -105 196 -108 q 183 -99 186 -101 q 162 -71 174 -83 q 143 -42 150 -58 q 137 -51 138 -44 q 136 -63 136 -57 q 134 -74 136 -69 q 124 -76 132 -78 q 99 -45 114 -60 q 78 -12 85 -31 q 69 -23 71 -14 q 60 -28 67 -32 q 56 -6 56 -17 q 57 17 56 6 q 60 39 58 28 q 57 63 61 50 q 53 149 56 104 q 53 236 50 194 q 47 269 47 253 q 49 301 47 285 q 53 333 51 317 q 53 365 56 349 q 53 385 57 375 q 46 401 50 394 q 51 422 50 413 q 53 443 53 432 q 50 483 53 463 q 50 525 47 504 q 48 578 50 551 q 49 632 46 606 l 36 683 l 47 692 q 51 690 47 690 q 47 705 53 699 q 40 719 40 711 q 11 771 29 749 l 11 785 q 69 768 40 779 q 121 738 97 757 q 126 744 126 739 q 126 755 126 750 q 126 763 125 760 q 136 764 128 767 q 162 733 150 750 q 174 694 174 715 q 185 647 182 671 q 188 599 188 622 q 186 546 188 572 q 186 492 185 519 q 185 467 189 481 q 194 446 182 453 q 227 449 208 454 q 261 451 246 444 q 267 484 265 468 q 268 517 268 500 q 265 585 268 550 q 263 656 261 619 q 260 669 258 661 q 262 684 261 676 q 261 699 263 692 q 251 711 260 706 q 253 720 249 717 q 264 724 257 724 q 285 715 272 717 q 278 756 282 735 q 261 792 275 776 q 269 799 261 801 q 282 794 278 796 l 322 765 z "},"I":{"ha":392,"x_min":-8,"x_max":404,"o":"m 176 742 q 203 741 192 735 q 232 744 215 747 q 256 744 246 746 q 276 740 267 742 q 296 736 286 738 q 318 736 306 735 q 356 740 335 739 q 392 739 376 742 q 403 742 397 744 q 404 735 404 739 q 367 704 385 719 q 332 672 349 689 q 354 666 344 668 q 375 657 364 664 l 375 654 q 349 644 364 647 q 326 626 333 642 q 336 622 329 622 q 342 615 343 621 q 306 609 324 608 q 269 608 289 610 q 261 601 267 601 q 256 593 256 601 q 256 565 261 578 q 260 538 250 553 q 259 503 257 521 q 258 468 261 485 q 260 464 263 465 q 260 460 257 463 q 260 432 257 446 q 251 407 264 418 q 252 401 249 403 q 258 396 256 399 l 265 375 q 259 334 258 356 q 256 293 260 313 q 261 231 257 261 q 264 168 265 200 q 265 160 269 164 q 264 150 261 156 q 263 134 263 142 q 265 118 263 126 q 295 117 281 118 q 325 117 310 117 q 355 118 340 117 q 385 122 369 119 q 383 112 386 115 q 376 107 381 108 q 366 104 371 106 q 358 99 361 103 q 339 83 349 89 q 322 67 329 78 q 336 63 325 64 q 349 51 347 63 q 329 35 340 42 q 308 24 318 29 q 313 11 308 14 q 313 -1 310 6 q 308 -11 315 -7 q 297 -11 301 -12 q 289 -14 293 -10 q 243 -4 268 -4 q 196 -8 219 -4 q 149 -7 172 -11 q 99 -9 122 -8 q 51 -10 75 -10 q 44 -18 47 -14 q 35 -18 40 -22 q 29 -12 33 -12 q 19 -12 25 -11 q 10 -12 14 -12 q 6 -4 6 -11 l 42 24 q 31 35 40 33 q 21 43 22 38 q 50 60 36 51 q 74 83 64 68 q 56 101 71 99 q 43 108 43 101 q 51 113 46 115 q 63 113 56 111 l 128 118 q 131 188 131 153 q 131 263 131 222 q 129 288 129 275 q 129 314 129 301 q 130 356 129 335 q 131 397 131 376 q 131 422 131 410 q 129 447 131 435 q 128 473 128 460 q 129 500 129 486 q 124 544 129 524 q 124 570 126 556 q 124 597 122 585 q 101 594 114 594 q 81 603 89 593 q 36 604 58 601 q -7 607 14 607 q 4 621 -8 618 q 21 633 17 624 q 27 635 25 632 q 32 642 29 639 l 32 644 q 15 651 25 649 q -1 657 6 654 q 15 673 6 668 q 35 682 25 678 q 56 692 46 686 q 71 708 65 697 q 79 718 79 710 q 74 728 81 725 q 71 739 67 732 q 97 742 83 743 q 124 740 111 742 q 151 738 138 739 q 176 742 164 738 z "},"J":{"ha":415,"x_min":19,"x_max":367,"o":"m 299 763 q 302 758 299 760 q 306 754 306 757 q 311 758 310 754 q 314 767 313 763 q 317 774 315 772 q 325 771 318 776 l 338 754 q 343 758 338 758 q 360 715 356 736 q 364 669 364 693 q 361 620 364 644 q 361 569 358 596 q 363 531 364 550 q 363 493 363 513 q 367 447 363 468 q 362 400 361 424 q 363 353 363 376 q 361 317 363 335 q 354 281 360 300 q 358 138 358 210 l 358 90 q 342 56 350 75 q 317 29 335 38 q 302 3 307 18 q 282 -18 297 -12 q 236 -29 258 -29 q 190 -32 214 -29 q 148 -22 168 -31 q 111 -1 128 -14 q 93 3 99 -3 q 85 16 88 8 q 80 32 82 24 q 72 47 78 40 q 55 71 58 58 q 51 97 51 83 q 51 123 51 110 q 46 149 51 136 q 37 184 43 167 q 21 215 31 201 q 24 224 19 221 q 33 228 28 228 q 51 221 42 225 q 71 213 61 217 q 72 254 76 235 q 68 297 68 274 l 76 299 q 89 274 81 286 q 106 251 97 263 q 120 227 114 239 q 128 201 126 215 q 131 197 131 199 q 135 192 132 194 q 145 202 142 197 q 157 210 149 207 q 164 189 167 203 q 165 164 161 175 q 173 142 163 150 q 190 125 183 133 q 208 126 199 125 q 222 138 218 128 q 224 182 221 160 q 229 227 226 204 q 233 272 232 250 q 232 317 235 294 q 231 344 231 331 q 231 372 231 358 q 232 436 231 404 q 235 503 233 468 q 230 519 229 511 q 233 536 231 528 q 235 552 235 544 q 231 567 236 560 q 236 611 236 588 q 235 644 236 628 q 235 676 233 660 q 229 694 233 685 q 218 710 225 703 q 229 719 219 719 q 246 721 239 719 q 235 765 243 742 q 210 804 228 789 q 208 809 207 807 q 213 814 210 811 q 257 791 236 804 q 299 763 278 778 z "},"K":{"ha":456,"x_min":15,"x_max":469,"o":"m 101 779 q 107 786 104 782 q 114 789 110 790 q 132 778 125 785 q 138 793 138 786 q 138 811 138 800 q 144 814 140 814 q 149 813 147 814 l 163 796 q 172 679 172 735 q 179 560 172 624 q 202 613 190 588 q 219 671 214 639 q 240 717 229 696 q 260 764 251 739 q 277 802 276 779 q 289 843 278 825 l 297 842 q 303 808 300 825 q 308 775 306 790 q 324 790 318 782 q 336 807 329 799 q 347 794 344 804 q 356 779 349 785 q 354 773 353 776 q 360 768 356 769 q 382 785 372 774 q 396 810 392 797 q 401 813 399 813 q 406 813 403 813 l 408 808 q 387 757 401 781 q 374 706 372 733 q 357 665 361 686 q 338 629 353 643 q 329 604 332 617 q 324 579 326 592 q 316 556 321 567 q 301 535 311 544 q 288 484 296 507 q 272 436 279 461 q 288 384 281 410 q 310 333 294 358 q 314 313 310 322 q 324 296 318 304 q 333 278 329 288 q 336 260 338 269 q 386 156 364 208 q 446 54 408 103 q 459 32 449 43 q 468 8 469 21 q 457 8 461 6 q 449 16 453 11 q 440 26 444 21 q 429 35 436 32 q 394 44 413 46 q 391 37 393 42 q 385 29 389 32 l 381 31 q 358 58 369 44 q 331 81 346 71 q 323 72 324 78 q 322 58 322 65 q 320 47 322 51 q 310 44 318 43 q 260 142 279 90 q 214 239 242 193 q 201 272 210 257 q 183 306 192 288 q 181 278 181 292 q 181 249 181 264 q 181 219 181 233 q 183 193 181 206 q 182 164 185 178 q 183 136 179 150 l 181 135 l 188 71 q 190 57 185 64 q 193 42 194 50 q 199 3 196 22 q 214 -31 203 -15 q 212 -37 215 -36 q 206 -40 208 -39 q 178 -10 190 -28 q 149 24 165 8 q 140 24 144 25 q 132 20 136 22 q 124 19 128 18 q 119 26 121 19 q 110 45 115 35 q 94 60 104 56 l 92 65 q 82 48 85 58 q 68 39 79 38 q 65 49 61 43 q 67 58 69 54 q 63 78 63 68 q 63 97 63 88 q 63 116 64 107 q 56 133 63 125 q 59 161 58 147 q 60 189 60 175 q 58 244 60 217 q 56 299 56 271 q 60 353 56 325 q 56 435 57 393 q 53 518 56 476 q 52 591 58 554 q 49 664 46 628 q 51 702 57 685 q 51 743 44 719 q 43 760 49 751 q 44 779 38 768 q 34 817 40 799 q 15 851 28 836 q 27 856 21 857 q 38 851 33 854 q 49 842 43 847 q 60 836 54 838 q 80 806 71 821 q 101 779 89 790 z "},"L":{"ha":350,"x_min":-32,"x_max":396,"o":"m 135 794 q 142 790 138 793 q 147 794 147 788 l 146 800 q 152 801 150 799 q 155 806 154 803 q 157 811 156 808 q 163 814 158 814 q 186 755 182 788 q 193 689 190 722 q 200 649 199 669 q 201 607 201 628 q 201 565 201 586 q 200 524 200 544 q 200 502 200 513 q 201 481 200 492 q 192 426 192 456 q 196 376 192 401 q 197 322 200 350 q 197 265 193 294 q 197 211 201 236 l 211 204 q 264 201 239 199 q 315 204 289 204 q 341 203 328 204 q 367 197 354 201 q 382 198 374 194 q 396 194 390 201 q 388 188 393 189 q 379 183 383 186 q 347 166 361 175 q 321 139 332 157 q 324 128 319 132 q 333 121 328 124 q 342 114 339 118 q 344 103 346 110 q 336 97 342 99 q 325 93 331 94 q 316 88 319 92 q 314 78 313 85 q 315 67 321 75 q 276 65 294 67 q 238 64 257 64 q 197 66 217 64 q 153 75 176 68 q 131 67 142 69 q 106 68 119 65 q 92 65 99 65 q 83 58 86 64 q 60 62 71 65 q 35 61 50 58 q 18 63 26 53 q 19 70 17 65 q 29 74 22 75 q 51 109 39 89 q 57 150 64 129 q 59 186 57 169 q 61 219 61 203 q 60 242 61 231 q 53 267 58 253 q 53 283 50 275 q 60 301 57 292 q 58 341 58 321 q 58 382 58 361 q 59 449 58 415 q 60 517 60 483 q 59 567 60 542 q 57 617 58 592 q 54 654 54 636 q 53 693 54 672 q 46 704 46 699 q 47 715 46 710 q 50 727 49 721 q 49 739 51 733 q 27 796 46 771 q -15 842 8 821 q -25 846 -18 846 q -31 853 -32 846 q -19 858 -31 858 q 25 845 4 856 q 69 824 46 835 l 72 825 q 69 837 72 831 q 65 849 67 843 q 63 861 63 856 q 69 869 64 867 q 105 835 90 856 q 135 794 119 814 z "},"M":{"ha":629,"x_min":40,"x_max":606,"o":"m 149 719 q 156 732 154 722 q 169 739 158 742 q 201 690 192 717 q 221 638 210 663 q 242 569 233 601 q 257 501 251 538 q 273 473 271 490 q 286 444 275 456 q 288 432 288 438 q 296 425 289 426 l 318 376 q 337 418 332 393 q 357 464 342 443 q 360 488 356 476 q 370 508 364 499 q 382 528 376 518 q 389 550 388 539 q 398 577 397 564 q 408 603 399 590 q 409 621 406 611 q 416 640 413 631 q 420 658 419 649 q 413 674 421 667 q 415 678 413 676 q 421 679 418 681 q 431 674 426 678 q 442 674 435 671 q 454 705 457 686 q 450 740 451 724 q 444 763 449 751 q 432 781 440 774 q 434 786 431 783 q 439 790 438 789 q 485 758 467 779 q 519 714 504 736 q 529 728 524 721 q 535 744 535 735 q 540 746 538 744 q 546 744 543 747 q 560 692 557 719 q 564 638 564 665 q 563 585 564 611 q 563 535 561 558 q 568 495 569 515 q 567 457 567 475 q 565 437 565 446 q 564 417 564 428 q 571 364 564 394 q 574 306 568 335 q 579 246 579 276 q 571 196 579 221 q 575 144 575 171 q 575 92 575 118 q 578 39 575 65 q 589 -12 581 13 q 587 -32 585 -22 q 593 -51 589 -42 q 601 -69 597 -60 q 606 -86 606 -78 l 603 -89 q 565 -67 583 -78 q 535 -33 546 -56 q 515 -35 525 -31 q 499 -40 506 -40 q 492 -15 496 -26 q 483 8 488 -3 q 479 -6 478 4 q 469 -12 481 -15 l 451 -8 q 448 94 454 44 q 439 193 442 144 q 440 247 443 219 q 433 301 436 274 l 432 301 q 415 253 418 279 q 396 207 411 228 q 394 197 399 200 q 389 189 389 194 q 374 139 385 164 q 351 90 364 114 q 346 49 344 68 q 332 11 347 31 q 329 -3 333 4 q 322 -17 325 -10 q 312 -7 314 -15 q 307 7 310 1 q 299 22 303 14 q 288 36 294 29 q 291 61 294 49 q 281 85 288 74 q 267 109 274 97 q 258 135 260 121 q 240 181 247 157 q 217 228 232 206 l 218 250 l 214 254 q 207 278 214 265 q 196 300 200 290 q 188 214 196 256 q 186 126 181 172 q 185 107 183 117 q 187 88 186 97 q 188 67 188 78 q 182 47 188 57 l 188 19 l 185 18 q 198 -43 196 -12 q 214 -100 200 -74 l 207 -103 q 172 -74 193 -87 q 140 -42 151 -61 q 135 -42 138 -40 q 130 -47 132 -44 q 126 -49 128 -49 q 119 -47 124 -50 q 106 -17 114 -32 q 92 11 99 -3 q 88 7 86 11 q 88 0 89 3 q 78 -10 81 -3 q 65 -19 75 -18 q 59 1 61 -8 q 53 22 57 11 l 54 24 q 55 38 53 31 q 54 54 57 46 q 58 99 60 76 q 58 144 56 121 q 58 177 63 160 q 58 210 54 194 q 53 228 51 219 q 58 247 56 238 q 60 266 60 257 q 53 283 61 275 l 64 325 l 54 351 q 56 408 56 379 q 56 465 56 438 q 56 520 56 493 q 60 575 57 547 q 55 592 54 583 q 57 610 56 601 q 58 628 58 619 q 54 644 58 636 q 55 672 58 658 q 54 699 51 685 q 53 704 56 701 q 48 709 50 707 q 46 713 46 711 q 51 718 46 715 q 67 718 58 719 q 82 722 75 717 q 66 759 76 742 q 40 790 56 776 l 49 796 q 100 761 72 776 q 149 719 128 746 z "},"N":{"ha":488,"x_min":40,"x_max":469,"o":"m 315 813 q 355 783 335 801 q 385 746 375 765 q 390 756 389 750 q 393 768 392 763 q 397 778 394 774 q 406 781 399 782 q 415 768 407 769 q 426 757 424 767 q 433 674 429 715 q 435 593 438 633 q 432 570 432 581 q 432 549 432 560 q 431 515 432 532 q 425 479 431 499 q 430 438 428 458 q 424 396 432 417 q 428 354 428 372 q 425 301 428 326 q 428 246 422 275 q 427 220 426 235 q 428 192 428 206 q 431 160 431 176 q 433 131 431 143 q 433 109 429 119 q 432 90 438 99 q 449 24 436 54 q 469 -37 461 -6 l 469 -44 q 461 -43 463 -47 q 457 -36 460 -39 q 433 -12 446 -22 q 410 14 421 -3 q 400 4 400 13 q 390 -3 400 -4 q 367 26 378 11 q 338 49 357 42 q 335 34 335 43 q 325 26 335 25 q 311 63 318 46 q 296 97 304 79 q 293 124 297 111 q 283 150 289 138 q 270 176 276 163 q 264 204 264 189 q 237 251 253 228 q 214 300 221 274 q 211 303 211 301 q 208 306 211 306 q 206 271 206 290 q 197 239 207 251 q 201 176 201 208 q 203 110 201 143 q 209 45 204 76 q 228 -15 214 14 q 239 -26 232 -21 q 243 -40 246 -32 q 222 -33 232 -43 q 201 -17 213 -22 q 184 -1 189 -11 q 168 17 179 10 l 165 -15 q 152 -12 157 -18 q 142 0 147 -6 q 124 30 132 14 q 103 53 117 46 q 94 35 97 46 q 82 22 90 25 q 72 66 71 42 q 68 111 72 90 q 65 253 65 178 q 63 396 64 329 q 63 428 61 411 q 64 464 64 446 q 58 506 64 488 q 63 567 63 539 q 61 614 63 590 q 60 664 60 638 q 61 688 58 675 q 53 711 64 701 q 58 718 53 718 q 71 718 65 721 q 82 714 76 715 q 74 747 81 732 q 60 779 67 763 q 49 794 57 786 q 40 808 40 801 l 50 811 q 97 788 72 794 q 142 764 121 782 l 147 764 q 147 779 150 769 q 156 789 144 789 q 178 766 171 779 q 192 737 186 753 q 201 706 197 721 q 214 676 206 690 l 213 676 q 240 589 229 633 q 272 503 251 544 q 281 476 275 490 q 290 449 288 461 q 293 444 290 447 q 296 478 299 461 q 293 513 293 494 q 294 555 296 536 q 300 593 293 574 q 299 619 299 606 q 300 646 300 632 q 299 668 300 657 q 293 688 297 679 q 298 702 299 694 q 293 717 297 710 q 288 724 290 721 q 285 735 285 728 q 300 735 292 738 q 315 729 308 732 q 311 778 313 754 q 288 822 310 803 q 294 829 292 829 q 301 826 297 829 q 308 818 304 822 q 315 813 311 814 z "},"O":{"ha":475,"x_min":51,"x_max":426,"o":"m 313 742 q 334 726 321 731 q 360 716 347 721 q 383 703 372 711 q 397 679 393 696 q 405 651 400 664 q 413 624 410 638 q 417 596 417 610 q 413 565 418 582 q 413 538 411 551 q 417 512 415 525 q 418 485 418 499 q 413 458 418 472 q 414 435 415 447 q 415 411 413 422 q 413 366 419 388 q 417 321 407 344 l 422 317 q 421 255 418 285 q 419 196 424 225 q 424 156 426 178 q 424 115 422 135 q 424 78 424 99 q 422 40 425 58 q 409 4 418 21 q 382 -22 400 -12 q 358 -47 375 -40 q 325 -61 340 -53 q 285 -75 306 -67 q 246 -76 265 -83 q 222 -76 233 -79 q 199 -72 210 -74 q 174 -56 186 -65 q 146 -46 161 -46 q 120 -24 131 -39 q 99 4 110 -10 q 81 40 83 19 q 76 79 79 60 q 64 164 65 119 q 61 253 63 208 q 58 288 53 268 q 58 322 63 307 q 56 349 56 336 q 58 376 57 363 q 58 401 58 389 q 53 428 58 414 q 57 476 60 451 q 51 525 54 500 q 60 557 61 540 q 58 590 58 574 q 60 611 58 601 q 72 629 63 621 q 78 648 68 640 q 92 663 88 656 q 113 689 104 674 q 139 711 122 704 q 160 738 142 728 q 192 749 176 742 q 224 760 207 757 l 313 742 m 226 618 q 225 609 228 611 q 218 606 222 607 q 209 603 214 604 q 203 599 204 603 q 193 581 194 590 q 192 563 192 572 q 192 545 192 554 q 190 528 193 536 q 192 463 189 493 q 194 404 196 433 q 194 378 196 388 q 197 353 192 368 q 190 313 186 332 q 200 274 193 293 q 195 253 194 264 q 198 231 196 242 q 200 210 200 221 q 193 190 200 200 q 195 165 196 178 q 194 138 194 151 q 197 117 194 126 q 207 100 199 108 q 216 74 207 85 q 239 54 225 63 q 253 56 247 51 q 265 60 258 60 q 277 82 276 68 q 276 107 278 96 q 283 140 275 125 q 283 169 290 154 q 285 231 289 200 q 279 294 282 263 q 284 321 283 307 q 283 348 285 335 q 282 374 282 361 q 286 399 282 386 q 284 437 281 418 q 288 475 288 456 q 286 495 288 486 q 278 515 285 504 q 285 554 281 535 q 278 592 289 574 q 256 614 267 601 q 226 618 244 626 z "},"P":{"ha":444,"x_min":-69,"x_max":413,"o":"m 311 758 q 335 741 326 751 q 358 726 343 731 q 378 705 369 717 q 399 683 388 693 q 403 661 403 671 q 404 640 404 651 q 403 604 404 622 q 407 564 401 586 q 404 536 403 550 q 408 509 406 522 q 411 482 410 496 q 407 456 413 468 q 406 434 413 444 q 396 414 399 424 l 379 372 q 351 351 365 361 q 319 336 336 340 q 310 333 317 329 q 299 331 304 336 q 265 330 282 335 q 232 331 249 325 q 225 330 228 332 q 219 325 222 328 q 213 322 217 322 q 206 325 210 321 q 202 292 203 308 q 204 260 201 275 q 202 231 203 244 q 201 203 201 217 q 203 138 201 169 q 206 69 206 106 q 208 20 206 46 q 210 -26 210 -6 q 221 -67 215 -46 q 246 -100 226 -89 l 246 -110 l 235 -110 q 195 -85 213 -103 q 158 -53 178 -67 q 147 -56 151 -51 q 136 -57 143 -60 q 128 -35 136 -46 q 113 -15 119 -25 q 102 -12 107 -10 q 92 -18 97 -15 q 82 -22 86 -26 q 75 102 76 44 q 71 224 74 160 q 66 249 65 236 q 68 274 67 261 q 69 299 69 286 q 64 325 69 313 q 65 339 67 331 q 64 354 64 347 q 68 379 68 367 q 66 403 68 392 q 63 426 64 415 q 64 449 61 438 q 61 472 64 460 q 61 496 58 485 q 63 525 64 511 q 57 554 61 539 q 56 571 61 563 q 56 590 50 579 q 33 596 46 599 q 11 592 21 593 q -12 581 -3 593 q -32 565 -21 569 q -30 580 -33 572 q -23 595 -26 588 q -18 610 -19 603 q -22 625 -17 618 q -45 631 -33 636 q -68 629 -57 626 q -65 644 -69 638 q -55 656 -61 650 q -42 666 -49 661 q -33 678 -36 671 q -12 691 -25 686 q 7 706 0 696 q -7 713 -4 703 q -17 729 -10 722 q 15 742 -1 743 q 50 749 31 742 q 83 749 65 751 q 115 757 101 747 q 150 753 131 756 q 185 758 169 751 q 205 755 196 754 q 222 758 214 756 q 240 761 231 760 q 260 758 249 763 q 272 763 265 764 q 285 760 279 763 q 298 756 292 757 q 311 758 304 754 m 261 606 q 233 607 246 610 q 204 603 219 604 l 200 536 q 203 500 207 517 q 208 465 199 483 q 219 467 214 468 q 228 464 224 465 q 237 462 232 463 q 247 465 242 461 q 272 473 267 464 q 278 494 278 482 q 276 522 278 507 q 282 549 275 538 q 273 572 278 560 q 271 597 268 583 l 261 606 z "},"Q":{"ha":472,"x_min":53,"x_max":531,"o":"m 286 815 q 314 803 299 807 q 344 794 329 799 q 369 780 358 789 q 388 754 381 771 q 406 718 400 739 q 408 678 411 697 q 421 581 421 629 q 415 510 421 542 q 417 475 418 492 q 417 443 417 458 q 422 403 417 421 q 419 342 421 371 q 418 285 418 314 q 419 239 418 261 q 424 193 421 217 q 420 166 419 179 q 421 138 421 153 q 418 115 421 126 q 408 92 415 103 q 408 68 407 81 q 396 46 408 56 q 384 40 390 43 q 376 29 378 36 q 401 2 385 10 q 429 -21 417 -6 q 458 -28 444 -28 q 486 -33 471 -29 q 506 -32 497 -31 q 526 -29 515 -33 l 531 -33 q 518 -47 526 -44 q 503 -58 510 -49 q 475 -65 488 -61 q 451 -79 463 -68 q 435 -81 442 -78 q 421 -81 429 -85 q 409 -87 414 -83 q 404 -99 404 -92 q 412 -115 408 -106 q 425 -122 415 -124 q 422 -131 428 -128 q 411 -137 415 -135 q 331 -111 371 -129 q 269 -56 290 -93 q 149 -4 221 -1 q 130 11 142 8 q 107 25 118 14 q 81 92 92 57 q 71 163 71 128 q 63 180 64 171 q 63 198 63 189 q 65 217 64 207 q 63 236 65 226 q 58 281 57 258 q 58 328 58 304 q 58 349 58 339 q 56 369 57 358 q 58 393 57 381 q 58 417 58 406 q 56 482 58 449 q 54 547 53 515 q 61 583 58 565 q 64 619 64 601 q 60 663 64 639 q 61 680 57 672 q 71 694 65 688 q 81 710 76 701 q 83 729 85 718 q 101 741 90 738 q 111 760 113 744 q 148 785 131 772 q 183 813 165 799 q 199 808 192 800 q 215 818 206 817 q 234 819 225 819 q 251 816 243 818 q 268 813 260 814 q 286 815 276 813 m 239 686 q 225 681 232 683 q 215 674 218 679 q 198 629 201 653 q 194 581 194 606 q 195 549 194 565 q 196 518 196 533 q 190 467 196 489 l 196 457 l 188 368 q 194 331 199 349 q 194 293 190 313 q 197 272 197 283 q 196 250 197 261 q 195 227 194 239 q 201 206 196 215 q 204 181 194 190 q 213 156 214 171 q 219 135 218 146 q 235 122 221 124 q 246 123 240 124 q 256 122 251 122 q 266 122 261 121 q 276 128 271 122 q 286 174 293 149 q 294 216 294 197 q 296 257 293 235 l 289 269 q 289 340 294 307 q 285 408 283 374 q 292 440 293 425 q 288 472 292 456 q 283 503 285 488 q 286 536 281 519 q 284 572 283 554 q 285 608 285 590 q 280 650 285 631 q 258 686 275 669 q 249 682 254 681 q 239 686 243 683 z "},"R":{"ha":465,"x_min":-86,"x_max":558,"o":"m 331 771 q 350 765 340 768 q 369 760 360 763 q 397 727 388 744 q 418 690 406 710 q 419 622 421 658 q 413 554 417 586 q 424 533 424 544 q 431 510 424 521 q 426 469 426 490 q 411 432 425 447 q 401 398 410 414 q 379 369 393 382 q 349 347 365 356 q 317 332 333 338 q 328 311 324 322 q 339 290 332 300 q 341 271 336 279 q 351 253 346 263 q 361 235 357 244 q 363 217 365 226 q 378 196 371 206 q 383 172 386 186 q 417 128 403 151 q 444 80 431 104 q 473 33 458 56 q 508 -10 488 10 q 533 -42 515 -31 q 558 -72 550 -54 q 551 -76 556 -78 q 544 -72 547 -74 q 533 -65 540 -68 q 521 -58 526 -62 q 498 -47 510 -47 q 475 -39 486 -47 q 467 -41 469 -37 q 462 -49 464 -44 q 457 -54 460 -53 q 449 -51 454 -56 q 389 -10 426 -21 q 381 -10 385 -8 q 376 -16 378 -12 q 371 -21 374 -19 q 364 -19 368 -22 l 356 -6 q 344 -6 353 -7 q 339 1 336 -6 q 345 10 346 6 q 341 17 344 14 q 333 25 338 21 q 329 35 329 29 q 269 130 300 79 q 214 229 238 181 q 206 238 210 233 q 197 247 203 243 l 194 236 q 197 193 197 215 q 196 147 196 171 q 197 115 196 131 q 206 85 199 100 q 215 2 206 44 q 246 -76 224 -40 q 244 -83 247 -81 q 239 -83 242 -86 q 224 -72 229 -79 q 213 -56 218 -64 q 201 -40 207 -47 q 183 -29 194 -33 q 170 -26 179 -28 q 160 -36 161 -25 q 160 -42 163 -39 q 156 -46 158 -44 q 130 -9 142 -31 q 103 29 118 13 q 89 17 94 26 q 72 11 83 8 q 71 56 75 35 q 69 97 67 76 q 65 186 65 144 q 64 272 65 228 q 60 310 57 290 q 65 350 63 331 q 57 381 57 365 q 59 411 57 396 q 63 442 61 426 q 60 472 64 457 q 57 511 53 492 q 53 550 61 531 q 53 578 58 564 q 51 608 49 592 q 19 616 36 617 q -15 617 1 615 q -32 613 -21 607 q -26 626 -32 621 q -19 640 -19 631 q -26 648 -22 642 q -28 657 -29 654 q -31 664 -28 664 q -39 663 -35 664 q -47 662 -43 663 q -53 667 -51 661 q -61 670 -57 671 q -69 667 -65 669 q -78 663 -74 664 q -86 667 -82 663 q -69 689 -81 681 q -45 705 -58 697 q -19 720 -32 713 q 3 740 -7 728 q 6 740 6 739 q 8 743 6 742 q -8 755 4 753 q -17 769 -19 757 q 10 776 -1 778 q 36 782 22 775 q 64 778 51 778 q 92 781 76 778 q 119 781 104 782 q 149 781 133 781 q 192 785 171 781 q 231 779 208 779 q 256 780 243 779 q 281 781 268 781 q 306 779 293 781 q 331 771 319 778 m 218 636 q 203 622 207 632 q 199 603 200 611 q 198 546 203 571 q 201 490 193 521 q 206 476 201 479 q 218 472 211 472 q 233 472 225 472 q 244 468 240 472 q 255 476 249 472 q 267 483 261 479 q 277 493 274 488 q 276 507 281 499 q 277 565 281 536 q 275 624 274 594 q 249 642 268 638 q 218 636 231 646 z "},"S":{"ha":399,"x_min":-19,"x_max":404,"o":"m 278 782 q 331 735 314 765 q 361 672 347 704 q 362 613 360 646 q 363 553 364 581 q 372 487 368 519 q 400 431 376 454 q 403 426 404 431 q 399 418 401 421 q 372 437 382 424 q 352 463 361 450 q 333 488 343 476 q 308 501 324 499 q 297 497 304 494 q 287 522 293 510 q 269 543 281 533 q 263 534 268 536 q 254 531 258 532 q 247 526 250 529 q 247 514 244 522 q 238 515 240 508 q 235 525 235 521 q 229 571 236 547 q 231 618 222 594 q 217 640 221 631 q 201 650 213 651 q 182 647 190 649 q 163 623 167 639 q 161 589 158 607 q 166 533 164 563 q 182 478 168 504 q 210 456 199 468 q 234 430 222 443 q 258 404 246 417 q 288 383 271 392 q 298 363 290 371 q 314 349 306 356 q 329 334 322 342 q 339 314 336 326 q 364 260 354 289 q 369 201 374 231 q 376 147 385 174 q 365 92 367 119 l 338 29 q 325 19 329 25 q 317 6 321 13 q 308 -6 314 0 q 293 -11 303 -11 q 265 -27 283 -28 q 233 -29 246 -26 q 216 -44 226 -36 q 197 -39 206 -51 q 181 -27 190 -29 q 161 -24 171 -25 q 142 -22 151 -24 q 124 -11 132 -19 q 115 -1 121 -4 q 102 3 108 1 q 90 8 96 6 q 79 18 83 11 q 56 42 63 24 q 36 71 49 60 q 31 128 38 97 q 26 183 24 158 l 24 185 q 13 255 26 221 q -11 325 0 289 q -10 336 -8 331 q -15 347 -12 342 q -19 356 -18 351 q -12 364 -19 360 q 10 334 -3 349 q 31 304 24 319 l 33 304 q 47 266 38 285 q 75 236 57 247 q 86 238 82 231 q 97 242 90 246 q 108 219 107 232 q 124 201 110 206 q 131 203 129 200 q 135 209 133 206 q 140 215 138 213 q 149 214 143 217 q 154 169 156 193 q 172 131 153 146 q 180 132 176 136 q 188 132 183 128 q 211 134 199 135 q 231 147 224 133 l 235 160 q 231 185 232 172 q 228 208 231 197 q 221 230 226 219 q 204 247 215 240 q 200 263 206 258 q 187 271 194 268 q 173 278 179 274 q 169 294 167 283 q 157 310 167 304 q 140 324 147 315 q 124 331 128 324 q 110 343 119 339 l 74 371 q 67 393 74 383 q 51 412 60 403 q 36 430 43 421 q 28 450 29 439 q 28 479 31 464 q 19 508 25 494 q 20 542 21 525 q 14 576 19 558 q 19 609 13 593 q 15 642 25 625 q 30 687 26 665 q 53 726 33 708 q 71 753 60 740 q 94 774 82 767 q 121 777 107 778 q 143 792 135 776 q 171 792 157 789 q 197 797 185 794 q 231 796 213 797 q 264 783 249 794 l 278 782 z "},"T":{"ha":324,"x_min":-57,"x_max":388,"o":"m 364 736 q 374 735 369 736 q 382 738 378 735 l 388 732 q 364 715 376 721 q 339 702 351 708 q 315 688 326 696 q 296 665 303 679 q 299 658 296 660 q 305 657 301 657 q 311 655 308 657 q 314 647 314 653 q 298 638 307 643 q 296 622 289 633 q 306 616 300 618 q 317 610 311 614 q 301 603 310 604 q 285 604 293 603 q 269 606 276 606 q 253 606 261 607 l 238 603 q 228 557 235 579 q 233 510 221 535 q 235 481 235 494 q 236 453 236 468 q 235 400 236 426 q 235 346 233 374 q 240 283 240 318 q 240 245 240 264 q 240 207 239 226 q 245 114 243 161 q 251 21 247 67 q 263 -25 253 -3 q 282 -71 274 -47 q 296 -93 290 -82 q 313 -112 301 -104 q 296 -117 306 -124 q 279 -107 286 -111 q 258 -86 267 -97 q 242 -62 250 -75 q 227 -38 235 -50 q 208 -17 219 -26 q 199 -20 201 -17 q 196 -28 197 -24 q 192 -35 194 -32 q 185 -37 190 -39 q 170 -3 181 -19 q 147 31 160 14 q 140 28 142 33 q 135 21 138 24 q 134 13 138 17 q 125 11 131 8 l 121 15 q 118 67 118 42 q 118 121 118 93 q 118 175 118 149 q 115 228 118 201 q 115 292 117 261 q 109 356 113 324 q 103 422 106 389 q 103 490 100 454 q 101 510 94 500 q 107 529 108 519 l 97 603 q 82 602 90 606 q 64 601 74 599 q 28 601 44 599 q -3 592 13 603 q -8 594 -7 592 q -12 597 -10 596 l -54 589 q -57 593 -57 590 q -56 597 -57 596 q -20 616 -37 604 q 10 642 -3 628 q 8 653 14 646 q -6 660 1 654 q -19 663 -12 665 l -24 668 q -12 674 -19 676 q 3 678 -4 672 q 19 692 8 685 q 26 713 31 700 q 19 717 24 717 q 12 719 15 718 q 6 722 8 721 q 7 731 4 724 q 44 733 25 733 q 76 738 63 732 q 122 737 100 738 q 168 739 144 736 q 233 732 200 736 q 299 735 267 728 q 356 742 326 732 l 364 736 z "},"U":{"ha":475,"x_min":38,"x_max":422,"o":"m 107 735 q 122 708 111 719 q 139 682 133 697 q 142 690 142 685 q 143 701 143 696 q 146 708 143 706 q 156 708 149 710 l 175 668 q 183 663 182 668 q 188 656 185 658 q 188 646 183 651 q 189 635 192 640 q 190 546 185 590 q 194 456 194 501 q 194 385 197 422 q 194 313 192 349 q 195 258 197 285 q 196 204 193 231 q 192 174 194 189 q 200 143 190 158 q 213 96 197 114 q 228 88 221 93 q 242 80 235 83 q 256 76 249 76 q 271 85 263 76 q 280 111 279 97 q 280 139 281 125 q 279 167 279 153 q 288 194 279 181 q 287 233 293 214 q 288 275 281 251 q 286 295 285 286 q 281 313 288 304 q 281 342 286 328 q 288 369 276 356 q 284 412 285 390 q 283 457 283 433 q 283 484 283 471 q 282 511 283 497 l 286 521 q 288 588 279 558 q 283 617 283 603 q 283 647 283 632 q 283 673 283 660 q 275 699 282 686 q 263 741 272 719 q 239 778 254 763 q 242 783 242 781 q 246 783 242 786 q 283 763 268 778 q 317 738 297 749 q 318 748 319 743 q 324 756 317 753 q 350 730 339 744 q 372 700 361 715 q 380 710 376 703 q 390 719 383 717 q 398 708 397 717 q 403 697 399 700 q 406 645 406 672 q 414 594 406 618 q 414 531 410 560 q 414 467 418 503 q 415 403 415 435 q 414 339 414 371 q 414 301 414 319 q 417 264 414 283 q 417 224 413 244 q 422 185 422 204 q 415 162 415 174 q 416 138 414 150 q 420 113 418 125 q 419 88 422 100 q 412 44 422 64 q 394 1 401 24 q 367 -31 375 -12 q 336 -60 358 -50 q 305 -73 322 -68 q 271 -71 288 -78 q 239 -82 256 -82 q 207 -76 222 -82 q 176 -62 192 -71 q 147 -46 161 -53 q 118 -32 128 -43 q 102 -7 108 -21 q 90 22 96 7 q 75 49 85 38 q 69 144 72 97 q 67 235 67 190 q 66 272 64 254 q 65 306 68 289 l 58 393 q 57 442 63 419 q 58 492 51 464 q 58 513 60 503 q 63 535 57 524 q 55 590 61 563 q 51 649 49 618 q 50 657 46 653 q 50 665 54 661 q 49 676 51 671 q 43 685 46 681 q 39 695 40 690 q 42 706 38 700 q 57 702 49 703 q 72 697 65 701 l 76 703 q 69 738 72 719 q 57 771 67 756 q 54 780 58 775 q 53 789 50 785 q 74 783 67 790 q 85 767 81 776 q 94 749 90 758 q 107 735 99 739 z "},"V":{"ha":418,"x_min":-71,"x_max":422,"o":"m 347 803 q 378 776 371 803 q 383 771 382 775 q 389 771 383 767 q 403 787 400 776 q 417 800 406 797 q 422 792 422 796 q 420 782 422 788 q 416 771 418 776 q 417 760 414 765 q 410 694 415 725 q 394 632 406 664 q 399 613 400 622 q 394 593 399 603 q 385 574 390 583 q 378 556 381 564 q 378 527 375 540 q 375 500 382 514 q 360 444 358 472 q 356 383 361 415 q 334 217 349 297 q 313 49 319 136 q 324 -8 317 21 q 350 -61 331 -37 q 344 -65 349 -65 q 338 -62 339 -65 q 326 -62 333 -60 q 313 -58 318 -65 q 288 -29 304 -43 q 256 -6 271 -15 q 253 -15 253 -8 q 254 -26 254 -21 q 252 -34 254 -31 q 242 -35 250 -37 q 216 10 228 -11 q 188 53 204 31 q 172 35 176 47 q 156 22 167 24 q 136 105 149 63 q 121 190 124 147 q 104 269 111 231 q 81 349 97 308 q 67 427 76 388 q 49 506 58 467 q 31 584 39 544 q 18 664 22 624 q 8 694 11 679 q 7 726 4 708 q -6 747 -3 735 q -12 773 -10 760 q -18 799 -14 786 q -32 821 -22 811 q -42 835 -35 828 q -51 847 -49 842 q -56 849 -53 850 q -63 849 -60 849 q -69 851 -67 849 q -69 860 -71 853 q -60 865 -62 867 q -50 861 -57 863 q 3 838 -21 854 q 51 800 28 822 l 76 800 q 92 777 90 793 q 106 753 94 761 q 116 776 108 765 q 122 799 124 786 q 139 718 132 761 q 161 635 146 675 q 178 557 172 596 q 197 481 183 518 q 196 456 193 468 q 203 431 199 443 q 213 408 208 419 q 215 382 217 396 l 218 379 q 226 399 224 388 q 228 421 228 410 q 231 444 229 432 q 238 464 232 456 q 243 528 247 499 q 256 565 250 544 q 257 606 263 586 q 263 624 258 615 q 272 642 268 633 q 276 661 275 651 q 269 682 276 671 q 279 744 278 715 q 281 808 281 774 q 276 840 281 824 q 258 869 271 857 q 265 879 257 876 q 286 860 278 872 q 303 837 294 849 q 322 815 311 825 q 347 803 332 806 z "},"W":{"ha":679,"x_min":-44,"x_max":685,"o":"m 3 767 q 18 750 8 757 q 37 736 28 743 q 53 722 46 729 q 64 701 61 714 q 69 706 69 703 q 69 713 69 710 q 68 720 68 717 q 75 725 68 724 q 95 717 89 731 q 108 696 101 704 q 122 668 115 681 q 135 640 128 656 q 142 598 133 618 q 143 558 150 578 q 151 539 149 549 q 154 520 153 529 q 157 501 156 511 q 164 482 158 492 q 170 422 161 450 q 186 363 179 394 q 211 432 201 397 q 231 504 221 467 q 232 541 228 525 q 247 574 236 557 q 256 608 249 592 q 257 642 263 624 q 260 653 263 647 q 256 666 258 660 q 253 677 253 672 q 265 683 254 682 q 283 679 271 679 q 287 716 290 697 q 276 751 283 735 q 269 761 274 758 q 267 771 264 764 q 276 773 271 778 q 288 765 282 768 q 331 729 314 754 l 332 731 q 361 705 346 718 q 386 674 376 692 q 390 681 390 676 q 390 690 390 686 q 390 698 389 694 q 396 704 390 701 q 411 678 403 690 q 418 650 419 667 q 424 625 425 639 q 428 600 422 611 q 441 569 438 585 q 447 537 444 553 q 451 504 449 521 q 461 472 453 488 q 462 450 458 461 q 469 428 465 439 q 478 406 474 417 q 482 385 482 394 l 492 358 q 506 417 504 386 q 515 481 508 449 q 526 534 524 504 q 540 589 528 564 q 543 622 540 604 q 546 657 546 639 q 536 700 546 682 q 530 735 539 719 q 506 763 521 751 q 507 767 507 765 q 510 771 507 769 q 544 751 529 764 q 575 726 560 739 q 585 747 585 733 q 588 771 586 760 q 592 774 590 772 q 597 775 594 776 q 629 730 611 751 q 656 682 647 708 q 662 688 660 683 q 666 696 664 692 q 671 701 668 700 q 679 699 674 703 q 676 617 685 657 q 665 535 667 578 q 650 468 658 500 q 646 400 642 436 q 645 374 647 386 q 639 349 643 361 q 632 326 635 338 q 631 301 629 314 q 617 233 619 267 q 608 160 614 199 q 597 95 604 128 q 585 26 589 63 q 588 3 589 15 q 585 -22 588 -10 q 583 -47 583 -35 q 590 -68 583 -58 q 591 -87 594 -78 q 594 -106 588 -97 q 600 -111 597 -108 q 600 -119 603 -114 q 602 -126 599 -124 q 609 -131 606 -129 q 613 -135 613 -133 q 608 -140 614 -137 q 582 -127 597 -131 q 553 -111 567 -124 q 536 -93 542 -106 q 515 -81 531 -81 q 503 -61 507 -71 q 485 -49 499 -51 q 477 -63 481 -54 q 464 -71 474 -72 q 438 15 453 -31 q 417 104 422 61 q 406 132 411 119 q 390 156 400 144 q 391 184 394 171 q 383 210 388 197 q 373 236 378 224 q 369 264 368 249 q 356 301 367 283 q 344 339 346 318 q 335 304 333 325 q 328 267 338 283 q 313 217 324 240 q 294 169 301 194 q 299 144 300 157 q 293 117 297 131 q 285 90 289 103 q 282 65 281 78 q 280 33 283 49 q 273 3 276 18 q 268 -26 269 -11 q 274 -60 267 -42 q 281 -87 278 -72 q 294 -115 285 -103 q 292 -121 296 -117 q 272 -107 279 -117 q 256 -87 264 -97 q 240 -67 249 -76 q 219 -53 232 -57 q 210 -70 213 -60 q 199 -82 207 -81 q 174 -53 186 -68 q 154 -19 163 -37 q 144 -31 147 -22 q 133 -35 142 -40 q 124 -7 126 -21 q 119 21 121 7 q 113 49 117 35 q 101 75 110 63 q 98 115 101 96 q 90 151 94 133 q 82 188 86 169 q 78 225 78 206 q 65 263 74 244 q 61 301 57 281 q 62 319 65 310 q 54 337 58 328 q 47 355 50 346 q 51 372 44 364 q 48 391 54 383 q 39 407 42 399 q 24 480 32 443 q 13 553 17 517 q -3 651 10 603 q -26 749 -15 700 q -31 756 -33 751 q -32 763 -28 760 q -37 770 -33 767 q -44 778 -42 774 q -40 785 -44 785 q -32 783 -36 785 q -15 773 -25 774 q 3 767 -6 772 z "},"X":{"ha":481,"x_min":8,"x_max":525,"o":"m 374 803 l 376 781 q 398 792 388 781 q 415 810 408 803 q 422 793 422 803 q 419 774 422 783 q 421 749 424 761 q 412 724 418 736 q 401 701 406 713 q 396 675 396 689 l 392 671 q 383 633 383 653 q 364 597 382 613 q 349 540 361 568 q 328 481 336 511 q 331 454 326 467 q 342 428 336 442 q 353 401 349 415 q 356 372 357 388 q 392 267 371 319 q 433 165 414 215 q 445 149 442 158 q 451 128 449 139 q 458 110 453 118 q 474 96 463 101 q 494 62 479 75 q 525 33 510 49 q 517 26 522 28 q 486 35 501 29 q 456 47 471 42 q 467 11 457 29 q 450 10 460 4 q 431 19 440 17 q 406 32 417 22 q 387 53 396 42 q 368 74 378 64 q 347 90 358 85 l 349 63 q 336 61 340 53 q 325 72 332 69 q 319 90 321 79 q 311 108 318 101 q 308 119 314 115 q 308 128 301 122 q 301 141 307 135 q 293 151 296 147 q 276 207 286 181 q 254 261 265 233 l 229 217 q 227 199 232 206 q 219 181 222 192 q 203 135 206 158 q 193 88 200 111 q 195 72 196 79 q 193 57 194 64 q 192 42 192 50 q 200 29 193 35 q 178 33 190 21 q 165 48 172 43 q 149 58 158 53 q 130 34 139 49 q 128 3 121 19 q 128 -13 126 -4 q 124 -29 129 -22 l 117 -26 q 109 -3 115 -14 q 97 20 103 8 q 88 43 90 32 q 89 67 85 54 l 78 115 q 62 105 69 113 q 44 101 54 97 q 46 115 43 110 q 44 126 49 121 q 63 160 60 143 q 71 197 67 178 q 87 235 82 215 q 99 274 92 254 q 117 317 108 294 q 131 363 126 339 q 147 407 136 383 q 160 454 158 431 q 159 487 168 469 q 147 522 150 504 q 139 547 147 536 q 124 571 131 558 q 118 599 124 585 q 106 626 113 613 q 93 652 99 639 q 86 681 88 665 q 75 713 79 696 q 63 746 71 729 l 65 749 q 48 759 58 757 q 29 765 38 761 q 42 776 32 774 q 60 782 51 779 l 74 782 q 64 809 76 797 q 43 833 51 821 q 26 847 36 842 q 10 860 15 853 q 12 865 8 864 q 18 867 15 865 q 89 844 54 860 q 153 810 124 829 q 160 823 160 815 q 171 828 160 831 q 195 777 183 801 q 218 725 207 753 q 233 700 229 714 q 243 672 236 686 q 253 690 251 679 q 265 710 256 701 q 278 754 268 732 q 297 798 288 776 q 312 842 307 819 q 308 888 317 864 l 311 893 q 351 854 340 882 q 374 803 361 826 z "},"Y":{"ha":357,"x_min":-54,"x_max":371,"o":"m 67 744 l 71 749 q 72 759 67 756 q 75 769 78 763 q 93 761 88 779 q 114 725 100 742 q 126 689 128 708 q 149 623 132 654 q 181 560 165 592 q 196 605 188 583 q 213 649 204 626 q 216 672 211 660 q 225 694 221 683 q 229 717 229 706 q 217 738 229 728 q 217 743 215 740 q 222 746 219 746 q 234 741 228 746 q 246 732 240 736 q 257 728 251 728 q 268 736 263 728 q 269 742 265 740 q 275 746 272 743 q 286 774 286 757 q 283 804 286 790 q 293 807 285 807 q 317 757 308 783 q 335 704 325 731 q 353 714 343 707 q 371 718 363 721 q 369 706 369 713 q 367 692 369 699 q 349 630 357 657 q 325 571 340 603 q 323 551 331 560 q 308 533 315 542 q 284 461 301 494 q 258 388 267 428 q 256 333 257 360 q 254 281 254 307 q 256 243 254 261 q 260 207 257 225 l 260 167 q 258 141 260 154 q 254 117 257 128 q 264 44 265 83 q 271 -28 263 6 q 281 -73 274 -51 q 292 -118 289 -94 q 285 -118 288 -121 q 280 -112 282 -115 q 274 -106 278 -108 q 267 -103 271 -103 q 240 -67 256 -83 q 210 -32 225 -50 q 207 -51 207 -42 q 200 -68 207 -61 l 197 -68 l 151 8 q 145 0 147 6 q 141 -11 143 -6 q 135 -19 139 -17 q 124 -18 132 -22 q 122 -10 121 -14 q 121 -1 122 -6 q 122 25 119 11 q 124 52 124 39 q 124 78 125 65 q 118 104 124 92 q 115 216 115 163 q 113 329 115 269 q 76 428 93 381 q 39 528 58 475 q 31 583 42 557 q 10 638 19 610 q -6 653 6 647 q -15 671 -18 660 q -31 688 -22 682 q -50 700 -39 693 l -51 708 q -22 711 -36 711 q 3 718 -8 711 q -12 765 3 744 q -50 796 -26 786 q -49 807 -54 801 q 7 792 -19 806 q 54 760 33 779 q 60 752 56 754 q 67 744 64 750 z "},"Z":{"ha":469,"x_min":15,"x_max":450,"o":"m 314 811 q 362 810 340 807 q 408 817 383 813 q 412 805 417 813 q 408 793 407 797 l 415 758 q 407 738 407 749 q 408 715 407 726 q 410 692 410 703 q 403 672 411 682 q 376 639 392 653 q 361 603 361 625 q 356 588 354 597 q 349 576 358 578 q 322 500 338 538 q 286 426 306 463 q 283 396 290 410 q 267 368 276 382 q 250 340 257 354 q 250 310 243 326 q 233 256 243 282 q 217 203 224 229 q 248 199 232 201 q 279 201 264 196 q 302 195 290 196 q 325 197 314 194 q 388 202 354 200 q 450 201 421 204 q 442 188 450 193 q 426 178 433 182 q 424 172 424 175 q 419 167 424 169 q 394 149 407 161 q 374 125 382 138 q 386 111 375 114 q 404 101 397 108 q 399 92 407 94 q 386 86 390 90 l 390 71 q 365 68 376 65 q 338 68 353 71 q 210 64 275 63 q 85 57 146 65 q 79 53 82 53 q 72 54 76 54 l 64 78 q 69 104 78 90 q 58 132 60 118 q 65 154 65 143 q 67 181 64 165 l 63 188 q 71 208 64 199 q 85 226 78 217 q 96 246 92 236 q 97 267 100 256 q 122 334 117 297 q 139 403 126 371 q 156 419 151 408 q 163 443 161 431 q 167 468 165 456 q 175 490 169 481 q 190 524 185 506 q 200 557 196 542 q 228 614 224 585 q 243 675 232 643 q 231 678 238 681 q 218 678 224 675 q 172 676 194 678 q 126 672 150 675 q 103 665 114 672 q 81 661 93 658 q 56 644 69 653 q 33 625 42 636 l 25 625 q 36 668 31 647 q 57 708 42 689 q 47 714 54 717 q 38 721 40 711 q 27 719 32 724 q 18 718 22 715 q 28 740 15 732 q 49 757 40 747 q 69 772 60 764 q 90 783 79 779 q 80 793 86 790 q 76 807 74 796 q 83 810 79 814 q 89 807 86 807 q 113 817 100 815 q 138 817 125 818 q 162 815 150 815 q 186 818 174 814 q 251 813 219 817 q 314 811 282 808 z "},"\"":{"ha":469,"x_min":53,"x_max":401,"o":"m 200 625 q 201 550 201 588 q 213 475 201 513 l 210 468 q 203 469 206 467 q 197 475 200 472 q 191 480 194 478 q 182 481 188 482 q 178 489 178 483 q 176 497 179 494 q 167 514 172 504 q 151 522 163 524 q 136 525 142 521 q 127 536 131 529 q 121 551 124 543 q 113 564 118 558 q 100 547 106 558 q 82 538 94 535 q 79 547 74 542 q 79 558 85 553 q 76 593 81 576 q 79 629 71 610 q 76 649 72 638 q 74 668 81 660 l 74 750 q 65 763 63 754 q 67 778 67 771 q 67 813 67 796 q 53 844 68 831 q 61 853 53 856 q 74 847 69 850 q 90 826 85 840 q 106 800 94 811 q 107 794 106 797 q 111 792 108 792 q 115 784 113 788 q 121 776 118 781 q 126 788 125 781 q 129 802 128 796 q 134 812 131 808 q 147 811 138 815 q 160 782 156 797 q 175 754 164 767 q 178 759 179 756 q 182 763 176 763 q 194 740 192 751 q 197 715 197 728 q 197 693 197 704 q 200 671 197 682 q 201 649 199 661 q 200 625 203 636 m 396 497 q 397 483 393 490 q 393 471 400 476 q 378 476 383 471 q 369 488 372 481 q 364 504 367 496 q 358 519 361 513 q 353 529 354 524 q 346 538 353 535 q 333 530 339 529 q 324 518 326 531 q 303 516 313 519 q 283 522 293 513 q 272 568 272 542 q 268 618 271 594 q 269 631 271 624 q 266 645 268 638 q 264 660 264 653 q 269 674 264 667 q 269 724 268 697 q 263 774 269 750 q 258 806 261 789 q 253 839 254 824 q 265 842 257 842 q 278 828 274 836 q 285 813 282 821 q 291 797 288 804 q 301 783 294 789 q 312 769 303 772 q 324 758 321 765 q 329 768 328 761 q 333 782 331 775 q 339 792 335 789 q 351 790 343 796 q 359 769 361 779 q 365 750 357 760 q 369 757 369 751 q 369 768 369 763 q 372 776 369 774 q 383 775 375 779 q 390 756 394 768 q 388 735 385 744 q 393 678 394 706 q 396 624 392 650 l 400 615 q 398 569 399 593 q 393 525 397 546 q 394 511 401 518 q 396 497 388 504 z "},"a":{"ha":450,"x_min":40,"x_max":456,"o":"m 299 501 q 320 502 310 504 q 340 498 331 500 q 360 496 350 496 q 381 501 369 496 q 388 502 385 503 q 394 503 390 501 q 396 465 397 485 q 393 426 394 446 q 389 414 389 419 q 392 403 389 408 q 398 391 394 397 q 403 379 401 385 q 393 321 393 354 q 394 299 393 310 q 396 275 394 288 q 394 260 396 268 q 393 244 393 253 q 395 229 393 236 q 406 218 397 222 q 405 197 410 207 q 400 174 400 186 q 403 153 404 164 q 401 132 403 143 q 400 111 400 121 q 406 93 400 101 q 405 57 404 74 q 415 22 406 40 q 417 6 413 15 q 424 -12 422 -3 q 433 -29 431 -19 q 446 -42 435 -39 q 452 -51 449 -44 q 450 -61 456 -58 q 442 -57 444 -62 q 433 -51 439 -51 q 394 -33 413 -44 q 354 -17 376 -21 q 341 -1 347 -8 q 325 10 335 7 q 314 5 318 10 q 306 -4 310 0 q 299 -10 303 -8 q 290 -4 296 -11 q 292 1 293 -1 q 292 7 292 4 q 282 17 279 7 q 281 33 285 26 l 279 74 q 253 61 264 74 q 229 50 243 49 q 219 43 226 43 q 208 38 213 43 q 169 18 192 21 q 128 4 146 15 q 92 26 108 11 q 65 63 75 42 q 49 125 64 93 q 51 184 54 154 q 47 246 47 214 q 53 296 47 274 q 51 306 53 301 q 46 315 49 311 q 42 324 43 319 q 43 335 40 328 q 51 358 51 346 q 49 383 50 371 q 51 406 49 394 q 67 426 53 417 l 117 479 q 160 487 140 479 q 200 506 181 494 q 249 503 224 506 q 299 501 274 501 m 222 368 q 207 367 215 378 q 203 353 207 360 q 197 339 200 346 q 193 325 194 332 q 196 310 192 318 q 188 272 189 294 q 194 232 188 250 q 196 198 188 214 q 211 167 204 182 q 224 162 218 160 q 234 169 229 164 q 244 177 239 174 q 258 178 250 181 q 265 202 264 189 q 266 228 267 215 q 265 255 265 242 q 269 281 265 268 q 263 305 264 293 q 263 328 263 317 q 265 353 264 340 q 261 379 265 365 q 242 378 250 386 q 222 368 233 369 z "},"b":{"ha":436,"x_min":-14,"x_max":396,"o":"m 114 778 q 128 788 117 793 q 162 756 151 775 q 176 715 172 736 q 180 669 179 693 q 186 625 181 646 q 181 608 181 617 q 183 590 181 599 q 185 572 185 581 q 183 554 186 563 q 182 534 189 544 q 182 514 175 524 q 202 519 192 517 q 219 531 213 521 q 242 533 231 535 q 263 525 253 531 q 288 531 275 532 q 312 526 300 531 q 335 517 324 522 q 358 510 347 513 q 367 485 364 499 q 375 457 371 471 q 379 421 382 442 q 382 382 376 400 q 383 351 383 367 q 381 321 383 336 q 385 265 394 296 q 392 228 396 247 q 385 190 388 208 q 396 143 396 169 q 365 61 396 96 q 358 49 367 51 q 347 38 350 46 q 321 26 335 35 q 293 22 307 18 q 273 14 283 14 q 252 15 263 14 q 231 17 242 17 q 210 14 219 18 q 208 -12 207 0 q 214 -39 208 -25 q 178 -39 196 -42 q 150 -19 160 -36 q 128 -6 142 -11 q 111 13 115 -1 q 106 9 107 13 q 103 2 104 6 q 99 -3 101 -1 q 92 -1 97 -4 q 88 7 88 1 q 81 14 88 13 q 73 47 74 29 q 61 79 72 65 q 65 110 65 94 q 64 140 65 125 q 63 170 63 156 q 65 197 63 185 q 53 212 58 204 q 54 229 49 219 l 61 243 q 56 335 58 288 q 54 428 53 383 q 57 452 58 440 q 55 476 56 464 q 54 499 54 488 q 61 522 54 511 q 54 564 54 544 q 54 603 54 583 q 53 635 54 618 q 49 671 53 651 l 35 701 q 44 713 38 711 q 40 740 47 726 q 21 761 32 754 q 3 771 13 768 q -14 781 -7 774 l -11 786 q 31 793 4 793 q 53 792 42 793 q 76 790 65 792 q 95 787 85 789 q 114 778 106 785 m 243 414 q 222 419 232 425 q 200 413 211 413 q 190 403 189 411 q 186 392 192 396 q 183 369 183 381 q 183 346 183 357 q 186 282 183 314 q 189 221 189 250 q 187 179 183 199 q 192 139 190 160 q 203 126 196 129 q 217 124 210 124 q 233 125 225 124 q 247 125 240 126 q 256 148 258 133 q 256 174 254 163 q 256 220 254 197 q 256 264 258 243 q 259 301 265 282 q 260 340 253 321 q 251 363 256 351 q 251 386 247 375 l 243 414 z "},"c":{"ha":447,"x_min":46,"x_max":401,"o":"m 313 528 q 323 522 321 529 q 332 513 325 514 q 343 506 339 511 q 351 497 347 501 q 358 488 354 492 q 369 485 363 485 q 385 471 381 478 q 390 455 389 464 q 392 436 392 446 q 396 417 392 426 q 397 391 394 403 q 392 367 399 379 q 383 354 389 356 q 372 353 378 353 q 360 352 365 354 q 353 339 354 350 q 349 330 353 332 q 342 321 344 328 q 331 315 335 321 q 325 303 328 310 q 318 292 322 297 q 306 286 314 286 q 300 277 304 279 q 292 273 296 275 q 284 268 288 271 q 282 257 281 265 q 269 256 275 247 q 265 294 267 275 q 256 332 264 314 q 263 360 263 347 q 257 388 263 372 q 238 401 246 390 q 215 403 229 411 q 206 383 211 393 q 192 367 201 374 q 188 336 186 351 q 181 306 190 321 q 186 257 190 282 q 189 207 182 232 q 188 184 188 194 q 182 163 189 174 q 193 135 185 149 q 190 108 201 122 q 201 99 196 104 q 214 92 207 93 q 232 92 222 96 q 249 97 242 88 q 256 105 254 100 q 257 115 257 110 q 258 124 257 119 q 265 131 258 128 q 266 140 267 135 q 265 151 265 146 q 267 159 265 156 q 274 164 268 163 q 286 152 279 161 q 301 151 293 143 q 316 153 308 156 q 331 149 324 151 q 344 148 338 147 q 357 157 351 149 q 366 168 363 161 q 373 181 369 175 q 381 191 376 188 q 396 190 386 194 q 400 152 399 172 q 401 113 401 132 q 390 46 401 74 q 372 26 383 35 q 354 6 361 17 q 320 -16 338 -6 q 279 -25 303 -26 q 258 -32 268 -25 q 236 -28 247 -39 q 184 -32 208 -39 q 139 -10 160 -25 q 100 6 115 -12 q 71 40 85 25 q 67 59 74 53 q 60 76 61 65 q 67 136 67 108 q 60 185 67 161 q 57 205 64 196 q 46 224 50 214 q 49 251 46 239 q 54 278 53 264 l 53 372 q 66 398 56 386 q 71 425 76 410 q 94 455 82 440 q 111 488 106 469 q 120 500 115 494 q 132 504 125 506 q 148 501 140 499 q 163 507 156 503 q 178 515 171 511 q 194 517 186 518 q 217 522 208 514 q 238 526 225 531 q 250 528 243 529 q 264 524 257 526 q 290 516 274 519 q 313 528 306 513 z "},"d":{"ha":450,"x_min":49,"x_max":443,"o":"m 325 788 q 340 771 335 779 q 349 751 344 763 q 356 764 354 754 q 367 768 357 774 q 380 714 382 744 q 385 657 378 683 q 390 606 376 631 q 388 540 382 572 q 389 472 393 507 q 390 453 392 460 q 386 435 389 446 q 388 421 379 426 q 396 408 396 415 q 386 377 390 392 q 389 343 382 363 q 387 318 388 331 q 386 293 386 306 q 397 192 386 243 q 390 172 389 182 q 394 153 390 163 q 402 132 399 143 q 401 110 406 121 q 407 69 408 90 q 415 28 406 47 q 430 0 422 11 q 443 -26 438 -11 l 438 -33 q 411 -24 425 -28 q 384 -14 397 -19 q 359 -1 371 -8 q 339 17 347 6 q 334 7 335 14 q 331 -6 333 0 q 331 -17 335 -10 q 306 -5 317 -14 q 292 19 294 4 q 282 24 285 19 q 282 36 279 29 q 256 24 268 33 q 229 14 244 14 q 211 6 219 11 q 192 1 203 0 q 181 8 186 4 q 169 10 176 13 q 150 16 160 15 q 133 26 140 17 q 125 28 128 24 q 119 35 122 33 q 100 44 107 35 q 86 61 93 54 q 71 96 85 81 q 56 202 61 149 q 49 314 51 256 q 52 334 53 324 q 51 354 51 344 q 51 373 50 364 q 61 392 53 382 q 60 431 60 410 q 83 461 61 451 q 99 487 86 476 q 124 507 113 497 q 155 514 140 507 q 185 526 169 521 q 200 526 193 528 q 214 521 207 524 q 228 517 221 518 q 244 518 236 515 q 254 515 249 521 q 263 519 260 510 q 255 613 254 568 q 251 704 256 657 q 247 713 251 708 q 239 719 243 717 q 233 726 235 722 q 239 735 232 731 l 261 736 q 249 781 260 760 q 219 817 238 803 q 223 824 217 824 q 232 822 229 824 q 256 818 244 822 q 278 808 267 814 q 301 795 290 801 q 325 788 313 789 m 219 408 q 194 393 204 408 q 196 379 199 385 q 190 368 193 374 q 185 356 186 363 q 190 343 183 350 q 190 311 189 326 q 190 281 190 296 q 189 249 190 265 q 182 218 188 233 q 192 205 190 213 q 194 188 194 197 q 194 170 194 179 q 197 154 193 161 q 206 139 196 142 q 224 133 217 136 q 242 136 233 136 q 258 146 251 136 q 260 168 267 156 q 256 190 253 181 q 261 203 258 197 q 264 219 264 208 q 254 288 254 249 q 256 332 254 310 q 254 378 257 354 l 247 385 q 245 396 249 393 q 237 399 242 399 q 226 401 232 400 q 219 408 221 403 z "},"e":{"ha":458,"x_min":57,"x_max":424,"o":"m 343 540 q 380 508 367 529 q 404 463 393 486 q 408 416 400 439 q 419 369 417 393 q 420 325 417 350 q 421 281 424 300 q 408 267 417 269 q 389 267 400 265 q 354 269 374 274 q 318 264 335 264 q 294 266 307 271 q 265 264 281 261 q 247 267 256 269 q 229 263 238 265 q 213 257 221 260 q 194 257 204 254 q 190 234 189 246 q 192 211 190 222 q 196 189 194 200 q 193 168 197 178 q 210 144 201 157 q 235 133 218 132 q 251 149 249 136 q 263 169 253 161 q 263 181 264 174 q 263 196 263 189 q 265 206 263 203 q 279 207 268 210 q 295 194 290 203 q 307 178 300 185 q 319 188 314 182 q 331 200 325 194 q 345 208 338 206 q 361 208 353 211 q 375 224 368 214 q 393 229 382 235 q 401 209 404 219 q 406 188 399 199 q 403 167 400 178 q 407 146 407 157 q 391 122 401 132 q 382 97 381 113 q 363 76 372 88 q 344 53 354 64 q 322 35 333 43 q 294 28 310 28 q 269 17 282 25 q 242 19 256 8 q 225 22 232 15 q 170 29 197 26 q 124 60 143 32 q 106 76 111 64 q 99 100 100 88 l 76 125 q 72 151 76 139 q 64 176 68 164 q 59 201 60 189 q 65 226 58 214 q 58 265 58 242 q 60 297 58 281 q 58 328 61 313 q 59 343 57 335 q 63 360 61 351 q 65 376 65 368 q 58 390 65 383 q 68 432 69 410 q 78 474 67 454 q 83 501 69 492 q 107 522 97 511 q 122 542 111 535 q 142 558 132 549 q 164 563 153 556 q 186 567 175 569 q 201 572 193 574 q 215 568 208 569 l 243 586 q 298 571 269 578 q 343 540 326 564 m 240 471 q 217 462 229 464 q 201 446 204 460 q 201 415 203 431 q 200 383 199 399 q 200 363 199 374 q 217 351 201 351 q 241 355 229 351 q 265 351 253 358 q 266 374 269 363 q 269 399 263 386 q 265 418 265 407 q 263 440 264 429 q 257 458 261 450 q 240 471 253 467 z "},"f":{"ha":369,"x_min":57,"x_max":372,"o":"m 313 785 q 344 787 331 788 q 372 779 357 786 l 372 774 q 331 763 351 771 q 303 733 311 754 q 290 722 296 729 q 285 707 283 715 q 299 703 290 704 q 315 703 307 703 q 310 691 318 692 q 296 686 303 690 q 288 679 293 682 q 276 673 282 676 q 269 665 271 669 q 272 653 267 660 l 272 649 q 242 644 257 651 q 213 640 228 638 q 203 632 204 639 q 200 621 201 625 q 201 599 199 610 q 205 576 203 588 q 206 555 207 565 q 200 535 206 544 l 203 528 q 229 528 217 529 q 254 521 242 528 q 298 526 275 528 q 342 528 321 525 l 349 522 q 317 499 333 513 q 289 467 300 486 q 303 458 293 460 q 313 444 313 456 q 281 422 293 438 q 251 400 269 407 q 248 385 249 393 q 238 379 247 378 q 222 378 231 378 q 207 376 214 379 q 200 357 199 367 q 201 338 201 347 q 193 254 193 296 q 197 174 193 214 q 199 94 200 135 q 203 65 200 79 q 203 35 206 50 q 216 9 210 24 q 232 -15 222 -6 q 239 -39 231 -29 q 258 -56 247 -49 q 256 -63 260 -61 q 246 -62 251 -65 q 219 -45 232 -56 q 194 -25 207 -35 q 184 -22 189 -29 q 174 -12 179 -15 q 145 -3 158 -6 q 117 3 132 0 q 115 13 113 8 q 118 24 117 18 l 104 49 q 99 38 107 42 q 85 28 90 33 q 78 27 82 29 q 71 26 75 25 q 67 64 64 43 q 65 104 71 85 q 67 146 68 125 q 65 188 67 167 q 63 231 64 210 q 65 274 63 253 q 60 294 61 283 q 58 317 58 306 q 63 363 58 339 q 60 385 60 374 q 60 408 60 397 q 60 447 60 428 q 61 485 61 465 q 57 533 61 508 q 63 571 63 553 q 63 608 63 589 q 65 640 63 625 q 75 671 67 656 q 79 692 81 681 q 89 710 78 703 l 114 728 q 125 751 117 743 q 145 763 133 758 q 169 772 157 768 q 193 782 182 775 q 212 782 203 779 q 228 792 221 785 q 270 786 250 785 q 313 785 290 788 z "},"g":{"ha":447,"x_min":43,"x_max":440,"o":"m 347 593 q 371 598 358 596 q 394 604 383 600 q 414 599 403 601 q 435 604 425 597 q 440 599 439 603 q 414 570 428 585 q 393 540 400 556 q 401 534 394 533 q 413 532 407 535 q 398 492 404 511 q 388 450 392 474 q 387 378 390 413 q 389 307 383 343 q 392 286 394 299 q 392 264 389 274 q 394 176 394 218 q 394 90 394 135 q 398 59 401 75 q 399 28 394 43 q 389 -26 401 -3 q 354 -71 376 -50 q 303 -103 332 -92 q 247 -108 275 -115 q 200 -119 226 -119 q 158 -115 179 -119 q 117 -110 138 -111 q 86 -103 101 -106 q 61 -85 71 -100 l 61 -78 q 70 -78 65 -76 q 80 -81 75 -79 q 90 -83 85 -83 q 99 -78 94 -83 q 144 -62 125 -82 q 124 -48 136 -54 q 110 -29 113 -42 q 128 -29 118 -21 q 160 -17 143 -22 q 193 -10 176 -11 q 186 -3 190 -6 q 177 1 182 -1 q 169 7 172 4 q 165 15 165 10 q 178 17 172 21 q 190 14 183 13 q 223 21 210 10 q 251 40 236 32 q 255 51 254 46 q 263 63 256 57 q 259 76 264 69 q 258 90 254 83 q 244 89 251 93 q 229 88 238 85 q 205 92 217 92 q 182 92 193 92 q 153 95 167 92 q 128 118 139 99 q 112 118 119 115 q 99 126 104 121 q 77 160 92 146 q 58 193 63 174 q 59 229 65 211 q 58 265 53 247 q 56 291 60 279 q 51 318 51 303 q 56 355 58 335 q 56 392 53 375 q 48 427 53 410 q 53 464 43 444 q 58 495 50 481 q 67 526 67 510 q 85 556 78 538 q 118 573 106 563 q 150 594 131 583 q 168 594 160 592 q 184 601 176 597 q 200 607 192 604 q 217 607 208 610 q 224 608 219 611 q 231 611 229 604 q 287 602 258 604 q 347 593 315 600 m 219 496 q 208 485 213 490 q 197 472 203 479 q 192 450 192 461 q 186 428 193 439 q 188 386 192 406 q 193 347 185 367 l 193 276 q 197 261 197 269 q 200 246 197 253 q 205 231 203 239 q 217 219 207 224 q 238 218 226 221 q 254 228 249 215 q 258 235 256 231 q 256 243 260 239 q 257 285 257 263 q 257 329 257 307 l 257 415 q 257 446 261 431 q 253 476 253 461 q 238 490 246 488 q 219 496 231 493 z "},"h":{"ha":458,"x_min":15,"x_max":461,"o":"m 118 829 q 133 807 121 815 q 150 786 144 799 l 156 781 q 162 786 160 782 q 166 794 164 790 q 172 799 168 799 q 181 796 175 800 q 190 747 188 772 q 192 699 192 722 q 190 650 192 674 q 189 603 189 626 q 194 567 196 583 q 193 532 193 550 q 194 513 193 522 q 200 493 196 503 q 235 501 219 503 q 271 507 250 499 q 329 491 303 504 q 379 458 356 478 l 399 414 q 403 349 403 382 q 402 312 403 329 q 401 275 401 294 q 406 210 401 240 q 406 176 407 193 q 406 143 406 160 q 408 97 406 119 q 418 50 410 74 q 420 26 415 38 q 432 3 425 14 q 447 -17 439 -7 q 461 -39 456 -28 q 447 -42 454 -49 q 431 -33 439 -36 q 405 -10 414 -25 q 381 14 396 4 q 378 3 376 10 q 381 -8 379 -3 q 381 -17 382 -12 q 372 -21 381 -21 q 344 6 360 -7 q 321 36 328 18 q 314 42 318 39 q 307 40 310 46 q 297 28 299 38 q 285 25 294 19 q 278 83 281 53 q 275 143 275 113 q 275 165 275 154 q 276 188 275 176 q 273 199 278 194 q 272 211 268 204 q 273 237 272 225 q 274 260 274 249 q 269 307 274 282 q 265 326 271 318 q 261 346 258 335 q 254 358 260 353 q 242 367 249 364 q 216 360 226 369 q 197 342 206 351 q 194 331 197 335 q 199 324 192 326 l 196 324 q 194 270 194 296 q 193 218 193 244 q 197 96 193 158 q 194 78 193 86 q 197 60 194 69 q 203 43 200 51 q 206 25 206 35 q 214 -2 210 11 q 229 -26 218 -15 l 228 -35 q 181 -12 199 -35 q 146 31 163 11 q 140 17 139 26 q 132 7 140 8 q 115 35 119 19 q 100 65 110 51 q 88 45 92 57 q 72 32 85 33 q 64 78 65 56 q 60 125 63 101 q 65 172 65 146 q 62 227 65 200 q 63 281 58 254 q 55 313 58 296 q 51 347 51 329 q 58 386 51 371 q 56 411 56 401 q 51 435 56 421 q 61 475 57 453 q 58 517 65 497 q 59 565 64 540 q 57 615 54 590 q 50 641 47 626 q 47 667 53 656 q 49 692 50 679 q 51 715 49 704 q 44 757 51 736 q 31 799 38 778 q 22 803 29 804 q 17 810 15 803 q 19 820 15 815 q 29 822 22 825 q 57 815 43 818 q 79 800 71 811 q 81 813 85 806 q 79 826 78 819 q 58 869 72 851 q 65 876 57 879 q 76 872 72 872 l 118 829 z "},"i":{"ha":236,"x_min":39,"x_max":225,"o":"m 101 625 q 95 619 97 624 q 91 611 93 615 q 87 603 89 607 q 79 601 85 600 q 61 628 71 615 q 51 660 51 642 q 50 715 49 690 q 39 767 51 739 q 40 773 39 769 q 44 776 40 776 q 62 767 53 774 q 78 771 71 761 q 77 811 76 789 q 63 847 78 833 q 74 852 68 853 q 84 847 79 851 q 93 836 89 842 q 100 826 97 831 q 114 791 103 806 q 135 760 125 776 q 145 769 142 761 q 156 774 149 776 q 164 726 163 751 q 163 678 165 700 q 168 615 167 650 q 169 547 169 579 l 167 544 q 136 587 147 564 q 101 625 125 610 m 190 100 q 204 49 194 72 q 225 3 214 26 q 219 1 222 0 q 213 0 215 1 q 183 31 197 11 q 147 58 169 51 q 142 44 144 51 q 133 35 140 38 q 124 45 126 38 q 117 60 121 53 l 93 96 q 86 94 88 97 q 83 86 85 90 q 81 79 82 82 q 74 78 79 76 q 66 99 67 88 q 65 124 65 111 q 65 148 65 136 q 58 171 64 160 q 59 221 61 196 q 60 271 57 246 l 63 274 q 63 307 61 290 q 64 339 64 324 q 57 383 64 364 q 63 408 58 394 q 57 432 67 421 q 59 455 58 443 q 60 478 60 467 q 58 516 60 497 q 53 554 56 535 q 60 558 56 565 q 68 547 65 550 l 104 510 q 108 528 110 517 q 119 543 107 540 q 140 508 131 525 q 158 475 149 492 q 165 481 163 476 q 174 483 167 486 q 179 436 179 463 q 177 392 179 414 q 175 349 175 371 q 179 307 175 328 q 178 273 175 292 q 181 236 182 254 q 180 168 178 204 q 190 100 182 132 z "},"j":{"ha":253,"x_min":-133,"x_max":196,"o":"m 68 631 q 63 654 61 642 q 67 678 65 667 q 53 733 61 706 q 24 782 44 761 q 26 788 22 786 q 33 792 31 790 q 44 786 38 789 q 57 783 50 783 q 79 761 68 771 q 103 740 90 751 q 105 755 106 747 q 113 765 104 763 q 137 731 125 749 q 160 693 149 713 q 167 702 165 696 q 175 706 168 708 l 179 697 q 183 628 181 661 q 185 563 185 594 q 181 499 185 532 q 167 519 171 506 q 156 543 164 532 l 139 564 q 129 556 133 561 q 118 551 125 551 q 108 569 111 560 q 100 588 106 578 q 88 576 93 582 q 75 564 82 569 q 67 569 72 564 q 68 599 72 582 q 68 631 64 615 m 196 283 q 193 245 193 264 q 194 206 193 226 l 192 199 q 186 171 188 185 q 185 142 185 157 q 185 112 185 126 q 188 85 186 97 l 185 74 q 189 22 183 46 q 182 -31 194 -3 q 176 -85 188 -58 q 142 -126 165 -112 q 117 -151 135 -144 q 85 -168 100 -158 l 29 -179 q 13 -176 21 -175 q -5 -179 4 -178 q -22 -181 -14 -181 q -39 -176 -31 -181 q -87 -167 -62 -169 q -133 -151 -112 -164 q -116 -147 -126 -140 q -94 -150 -106 -153 q -76 -144 -87 -146 q -64 -128 -65 -142 q -66 -122 -64 -124 q -71 -117 -68 -119 q -75 -112 -74 -115 q -74 -106 -76 -110 q -53 -105 -65 -103 q -32 -100 -40 -107 q -15 -86 -25 -93 q -10 -68 -4 -79 q -15 -60 -10 -62 q -25 -55 -21 -57 q -31 -50 -29 -53 q -28 -42 -33 -47 q 2 -44 -14 -49 q 31 -36 18 -39 q 58 3 54 -22 q 60 51 63 28 q 65 87 63 69 q 67 121 67 104 q 65 143 67 132 q 58 167 64 154 q 58 186 56 176 q 63 205 60 196 q 66 224 65 214 q 61 243 67 233 q 67 278 71 261 q 67 315 64 294 q 64 349 60 333 q 65 382 68 365 q 64 433 63 410 q 68 482 65 457 q 65 499 65 490 q 67 517 64 508 q 78 508 78 519 q 83 492 79 497 q 97 459 89 475 q 113 428 106 443 q 119 439 117 432 q 124 452 121 446 q 131 462 126 458 q 144 464 136 465 q 161 408 147 436 q 194 357 175 381 q 193 320 190 338 q 196 283 196 303 z "},"k":{"ha":444,"x_min":25,"x_max":493,"o":"m 151 768 q 158 777 156 771 q 164 789 161 783 q 170 796 167 794 q 181 790 174 797 q 186 727 183 758 q 185 664 189 696 q 190 608 192 635 q 192 551 189 581 q 191 498 185 524 q 192 446 197 472 q 194 426 194 436 q 199 407 193 417 q 229 448 214 428 q 249 493 244 468 q 263 517 254 506 q 269 544 271 529 q 280 546 276 549 q 285 538 283 543 q 287 526 286 532 q 292 517 288 519 q 295 510 294 514 q 301 508 296 507 q 322 546 313 526 q 324 586 331 565 q 324 594 325 589 q 329 599 322 600 q 340 587 339 596 q 344 571 340 578 q 360 542 351 556 q 372 514 369 529 q 380 523 378 515 q 389 524 382 531 q 392 514 393 519 q 388 503 390 508 q 385 493 386 499 q 389 483 385 488 q 347 399 369 442 q 306 311 324 356 q 301 305 304 308 q 294 298 297 301 q 291 290 292 294 q 294 282 290 286 l 293 282 q 310 251 297 265 q 333 224 322 236 q 349 204 340 213 q 365 188 357 196 q 380 172 374 181 q 390 151 386 164 q 418 119 404 135 q 447 90 432 103 q 493 31 467 61 l 492 22 q 472 29 482 24 q 451 31 463 35 l 457 6 l 451 4 q 402 33 426 15 q 351 61 378 50 q 350 53 349 58 q 351 42 351 47 q 349 32 351 36 q 339 31 347 28 q 272 103 307 71 q 203 175 236 136 q 202 135 203 156 q 201 93 201 114 q 206 35 201 64 q 226 -18 211 6 q 235 -25 231 -21 q 243 -33 240 -29 q 238 -37 240 -39 q 233 -40 236 -36 q 223 -31 229 -33 q 210 -26 217 -29 q 181 -1 193 -17 q 157 28 169 15 q 150 21 153 26 q 145 10 147 15 q 140 3 143 4 q 131 8 136 1 q 113 40 119 24 q 96 72 106 57 q 83 60 89 67 q 68 54 78 53 q 68 101 64 79 q 68 146 72 122 q 69 188 69 168 q 68 228 69 208 q 65 267 67 247 q 65 308 64 286 q 63 346 60 326 q 61 382 67 365 q 63 403 63 393 q 63 425 63 414 q 60 495 63 461 q 60 565 57 529 q 67 579 67 572 q 63 593 67 586 q 57 608 60 600 q 57 624 54 615 q 60 651 65 638 q 50 675 54 664 q 51 697 51 686 q 51 719 51 708 q 47 770 51 746 q 25 813 42 794 q 30 819 25 819 q 38 819 35 819 l 68 790 q 67 806 71 799 q 63 819 63 813 q 62 831 64 825 q 57 841 60 836 q 54 851 54 846 q 61 860 54 856 q 108 817 89 843 q 151 768 128 790 z "},"l":{"ha":253,"x_min":4,"x_max":249,"o":"m 117 825 q 119 832 119 828 q 117 840 118 836 q 116 848 115 844 q 122 853 117 851 q 132 845 128 850 q 140 835 136 840 q 149 827 144 831 q 161 825 154 824 q 175 801 168 814 q 179 775 182 788 q 188 731 188 753 q 188 689 188 710 q 188 668 188 678 q 192 647 189 658 q 188 591 189 619 q 186 532 186 563 q 190 451 186 489 q 188 427 188 439 q 188 403 188 415 q 188 374 188 388 q 189 346 189 361 q 185 289 189 315 q 183 269 183 278 q 182 249 182 260 q 186 184 182 217 q 189 118 190 151 q 193 99 193 110 q 194 79 193 89 q 197 60 194 69 q 208 44 200 50 q 224 21 214 33 q 247 7 235 8 q 248 1 247 3 q 243 -4 249 -1 q 207 3 225 1 q 169 11 189 4 q 179 -7 172 3 q 196 -22 186 -17 q 183 -26 194 -32 q 156 -8 169 -21 q 126 4 143 4 l 97 38 q 93 31 93 36 q 92 22 93 26 q 90 15 92 18 q 83 14 89 13 q 59 67 65 38 q 64 124 53 96 q 60 198 63 163 q 57 271 57 233 q 58 298 57 285 q 60 325 58 311 q 59 332 57 329 q 60 338 61 335 q 58 394 58 365 q 58 451 58 422 q 58 508 58 479 q 56 569 58 538 q 60 629 60 600 q 50 710 60 671 q 50 740 49 724 q 33 764 51 757 q 37 774 33 772 q 46 774 40 775 q 57 770 51 772 q 68 769 63 768 q 54 807 68 792 q 31 842 40 822 q 23 847 28 846 q 14 849 18 849 q 7 852 10 850 q 7 861 4 854 q 32 863 19 867 q 58 854 44 858 l 117 825 z "},"m":{"ha":686,"x_min":29,"x_max":650,"o":"m 132 569 q 139 555 136 564 q 151 549 142 546 q 155 555 154 550 q 157 563 156 560 q 160 569 158 567 q 168 568 163 571 q 183 532 175 550 q 192 497 190 514 q 220 513 206 504 q 249 528 235 521 l 249 533 q 272 549 260 544 q 296 556 283 554 q 322 557 308 557 q 351 561 336 557 q 369 544 365 556 q 383 526 372 533 q 389 506 388 517 q 399 489 390 496 l 432 513 q 444 533 436 526 q 461 544 451 540 q 482 553 471 549 q 501 567 493 558 q 535 565 518 569 q 567 561 551 561 q 599 533 582 546 q 618 496 617 521 q 621 466 618 481 q 624 436 624 451 q 622 357 622 399 q 621 274 621 315 q 621 213 621 243 q 624 156 621 183 q 620 129 618 142 q 626 105 622 117 q 632 81 629 93 q 633 56 635 68 q 642 28 638 42 q 650 3 646 14 q 633 8 640 0 q 615 19 625 17 q 593 41 604 32 q 575 63 582 50 q 568 51 568 60 q 558 46 568 43 q 533 92 543 68 q 514 142 522 117 q 506 132 508 139 q 503 119 504 125 q 500 110 503 113 q 489 114 497 108 q 484 176 489 142 q 483 238 479 210 q 483 265 478 249 q 483 297 489 282 q 487 314 488 306 q 484 330 486 322 q 481 346 482 338 q 486 363 481 354 q 480 385 482 374 q 475 407 478 396 q 462 411 469 415 q 447 414 454 407 q 433 403 439 407 q 418 394 426 400 q 406 371 408 383 q 403 346 403 358 q 404 325 403 335 q 406 306 406 315 q 403 284 403 294 q 403 263 403 274 q 403 233 403 247 q 404 203 404 218 q 399 151 404 175 q 415 85 404 115 q 436 21 425 56 q 440 13 440 17 q 432 11 436 8 q 425 14 428 14 q 410 36 422 29 q 392 57 397 43 q 382 65 385 60 q 372 72 379 71 q 364 57 365 65 q 363 38 363 49 q 359 36 361 35 q 354 36 357 38 q 327 70 346 56 q 301 106 308 85 q 297 100 297 104 q 296 92 296 96 q 294 85 296 88 q 285 85 292 82 q 272 196 269 138 q 268 307 274 254 q 267 328 269 318 q 262 349 264 339 q 260 369 260 360 q 265 388 260 379 l 260 411 q 235 406 247 414 q 217 386 224 397 q 203 372 213 376 q 192 334 194 353 q 190 296 190 315 q 192 254 190 275 q 190 214 193 233 l 190 174 q 192 141 190 157 q 200 107 193 125 q 206 62 201 86 q 226 18 211 38 q 226 12 229 13 q 219 8 222 11 q 192 41 203 24 q 163 72 182 58 q 156 63 156 69 q 156 50 156 57 q 154 39 156 43 q 143 38 153 35 q 119 69 128 50 q 97 103 110 89 q 85 90 89 100 q 69 83 81 79 l 65 94 q 65 126 68 110 q 64 156 61 142 q 60 205 56 182 q 58 254 65 228 q 62 266 61 260 q 68 276 63 272 q 69 285 65 282 q 71 294 74 289 q 60 307 64 301 q 58 321 56 313 q 63 337 64 328 q 65 354 63 346 q 61 397 61 376 q 62 437 61 417 q 60 479 63 457 q 52 503 53 490 q 43 526 51 515 q 35 537 40 533 q 33 547 29 540 q 53 546 44 554 q 74 539 61 538 q 81 569 76 554 q 75 600 86 585 q 64 617 71 610 q 50 631 57 624 l 53 636 q 76 624 67 633 q 94 605 86 615 q 111 585 103 594 q 132 569 119 575 z "},"n":{"ha":447,"x_min":32,"x_max":443,"o":"m 132 631 q 136 647 139 636 q 143 657 133 657 q 174 624 167 647 q 182 581 181 601 l 185 578 q 225 604 204 596 q 268 624 246 613 q 324 613 299 629 q 369 578 350 597 q 380 533 382 556 q 381 488 378 511 q 386 347 381 417 q 394 204 392 276 q 395 200 399 201 q 393 196 392 199 q 402 146 401 172 q 421 96 403 119 q 433 83 425 88 q 443 69 440 79 q 439 67 442 67 q 434 67 436 67 q 430 67 432 67 q 428 63 428 67 q 394 85 414 78 q 367 114 375 92 q 365 99 364 108 q 360 85 367 90 q 331 108 340 92 q 310 139 321 124 q 297 135 303 142 q 283 135 290 129 q 274 140 276 135 q 269 150 271 144 q 267 162 268 156 q 261 172 265 168 q 260 213 260 192 q 261 254 261 233 q 260 295 261 275 q 254 335 258 315 q 253 394 257 367 q 246 454 250 422 l 233 465 q 207 444 222 453 q 186 419 192 436 q 187 381 183 403 q 182 344 190 360 q 186 244 185 294 q 196 146 188 194 q 210 107 199 124 q 235 71 221 90 q 230 63 233 64 q 222 65 226 63 q 214 69 218 67 q 207 72 210 72 l 157 121 q 153 103 153 114 q 143 94 153 93 q 123 115 132 103 q 107 140 114 128 q 92 137 100 143 q 78 135 85 131 q 65 167 68 150 q 62 200 63 183 q 61 234 61 217 q 57 268 61 251 q 58 319 58 294 q 57 369 57 343 q 57 392 57 381 q 58 415 57 403 q 60 442 57 429 q 65 469 64 454 q 56 488 57 479 q 57 506 56 497 q 60 525 58 515 q 58 544 61 535 q 55 570 60 556 q 47 596 50 585 q 38 606 44 601 q 35 618 32 611 q 53 617 46 624 q 71 615 61 610 q 60 658 67 639 q 38 692 54 676 q 47 698 40 699 q 60 694 54 697 q 99 667 81 682 q 132 631 117 651 z "},"o":{"ha":461,"x_min":50,"x_max":408,"o":"m 360 514 q 376 483 367 499 q 391 451 385 468 q 401 418 397 435 q 401 385 404 401 q 398 339 401 363 q 406 294 394 315 q 408 271 407 282 q 408 249 408 260 q 407 200 408 224 q 407 147 406 176 q 397 126 400 138 q 394 103 394 114 q 356 50 383 71 q 299 14 329 29 q 286 9 293 8 q 272 11 279 10 q 258 12 265 13 q 246 4 251 11 q 207 12 226 11 q 171 24 188 13 q 145 27 157 24 q 122 36 133 31 q 104 58 113 46 q 81 78 96 71 q 76 92 81 86 q 72 107 71 99 q 64 152 63 128 q 54 197 65 176 q 53 247 57 222 q 50 296 50 271 q 51 318 50 307 q 57 342 53 329 q 52 367 51 354 q 56 392 53 379 q 61 417 58 404 q 61 442 64 429 q 100 517 75 479 q 163 554 126 549 q 217 567 189 567 q 279 557 249 567 q 338 539 310 547 l 360 514 m 231 443 q 214 441 222 446 q 199 432 206 436 q 194 418 201 424 q 189 404 186 413 q 185 356 185 379 q 188 311 185 333 q 194 264 190 289 q 195 249 197 256 q 191 234 193 242 q 190 219 189 226 q 197 204 190 213 q 202 175 196 189 q 207 147 208 161 q 231 134 217 136 q 258 133 246 132 q 269 151 261 143 q 274 169 276 158 q 265 199 268 183 q 269 229 263 215 q 269 321 276 275 q 269 410 263 367 q 263 415 265 414 q 256 421 260 415 q 247 435 257 429 q 231 443 236 440 z "},"p":{"ha":464,"x_min":-36,"x_max":417,"o":"m 386 524 q 397 499 389 511 q 399 474 406 488 q 411 432 411 456 q 409 406 411 419 q 410 379 407 393 q 412 333 407 356 q 408 286 417 310 q 413 260 411 272 q 407 236 414 249 q 404 199 411 217 q 394 163 397 181 q 367 138 383 147 q 335 118 350 129 q 298 102 317 110 q 258 101 279 94 q 234 99 246 101 q 210 94 222 97 q 212 -11 207 40 q 219 -117 217 -62 q 234 -174 225 -146 q 251 -231 243 -203 q 242 -232 246 -236 q 236 -225 239 -228 q 226 -210 233 -215 q 215 -197 218 -206 q 209 -193 213 -194 q 208 -187 206 -192 q 195 -169 200 -181 q 179 -156 190 -158 q 168 -158 172 -153 q 157 -160 164 -164 q 149 -142 151 -151 q 138 -132 147 -133 q 127 -112 132 -121 q 108 -104 122 -104 q 102 -112 103 -107 q 100 -121 101 -117 q 97 -128 99 -125 q 88 -128 94 -131 q 81 -64 86 -96 q 79 0 76 -32 q 74 140 74 75 q 74 281 75 206 q 70 312 69 297 q 72 341 71 326 q 74 370 74 356 q 68 400 74 385 q 65 413 72 408 q 58 426 58 417 q 13 431 36 432 q -29 418 -10 429 q -33 423 -36 419 q -32 431 -29 426 q -24 444 -31 439 q -12 455 -18 450 q 0 465 -6 460 q 6 481 6 471 q 11 488 7 485 q 19 493 15 490 q 24 499 24 496 q 17 507 24 503 q 17 516 14 514 q 24 519 19 518 q 30 522 28 519 q 28 531 32 524 l 18 538 l 15 535 q 10 542 15 539 q 1 549 6 546 q -6 556 -4 553 q 1 563 -7 560 q 60 565 31 560 q 121 567 90 571 q 160 568 140 569 q 197 576 181 567 q 240 576 218 574 q 283 579 261 579 q 313 576 299 579 q 339 565 326 574 q 365 551 354 567 q 386 524 376 535 m 232 440 q 219 435 226 439 q 210 425 213 432 q 209 407 213 415 q 202 391 206 399 q 198 375 199 383 q 206 357 197 367 q 207 302 203 329 q 214 247 211 275 q 216 234 211 240 q 228 222 221 228 q 245 217 236 215 q 265 219 254 219 q 277 229 272 224 q 283 242 282 235 q 280 263 281 253 q 279 285 279 274 q 279 306 279 296 q 281 325 279 315 q 277 360 276 344 q 278 392 278 376 q 271 431 278 413 q 268 438 271 438 q 262 438 265 439 q 256 438 258 438 q 254 444 253 438 q 244 441 247 443 q 232 440 240 439 z "},"q":{"ha":450,"x_min":40,"x_max":460,"o":"m 379 550 q 381 510 379 531 q 388 468 382 490 q 381 406 381 436 q 381 343 381 375 q 388 323 386 332 q 394 306 389 314 q 388 274 388 289 q 390 247 388 260 q 393 219 392 233 q 392 188 394 204 l 394 117 q 394 83 392 100 q 400 49 397 67 q 403 14 403 32 q 399 -22 404 -4 q 408 -73 407 -47 q 411 -124 408 -99 q 422 -172 414 -149 q 450 -217 429 -196 q 456 -218 457 -214 q 460 -225 456 -222 q 453 -233 460 -232 q 442 -231 446 -233 l 369 -175 q 358 -174 363 -171 q 351 -182 354 -178 q 345 -189 349 -186 q 336 -185 342 -192 l 339 -182 q 324 -149 331 -167 q 304 -118 317 -131 q 294 -120 300 -122 q 286 -126 288 -118 q 281 -129 285 -129 q 276 -126 278 -129 q 269 -56 267 -92 q 263 19 271 -21 q 263 35 267 28 q 258 49 258 42 q 217 53 239 49 q 176 51 196 58 q 153 57 165 56 q 130 60 142 58 q 107 65 118 61 q 88 79 96 68 q 74 88 81 83 q 64 100 67 92 q 56 135 56 115 q 44 167 57 154 q 53 199 54 183 q 49 229 51 214 q 44 260 46 244 q 50 292 42 275 q 45 322 42 307 q 43 353 49 336 q 42 386 43 368 q 40 422 40 404 q 48 469 40 447 q 82 503 56 492 q 113 528 93 524 q 156 535 133 533 q 174 546 165 546 q 193 542 183 546 q 213 536 203 539 q 236 540 224 533 q 284 542 260 538 q 328 540 308 547 q 340 545 333 544 q 353 545 347 546 q 366 544 360 544 q 375 550 372 544 l 379 550 m 228 413 q 210 412 218 417 q 193 404 201 407 q 185 381 186 393 q 183 354 183 368 l 179 350 q 179 317 179 335 q 176 283 179 299 q 181 255 182 269 q 179 225 179 240 q 184 197 179 210 q 206 178 189 185 q 227 183 219 175 q 246 193 235 190 q 249 227 247 208 q 253 265 251 246 q 247 329 249 297 q 246 393 246 361 l 228 413 z "},"r":{"ha":371,"x_min":11,"x_max":385,"o":"m 365 582 q 374 547 375 567 q 385 514 372 528 q 359 493 369 507 q 343 464 349 479 q 328 461 336 458 q 314 465 319 464 q 282 392 282 439 q 278 390 281 389 q 274 389 276 390 q 267 425 269 406 q 258 461 264 444 q 233 496 258 489 q 220 490 228 492 q 206 487 213 489 q 194 481 199 485 q 190 467 189 476 q 192 446 192 456 q 192 425 192 436 q 191 390 192 407 q 190 356 190 374 q 194 300 190 326 q 193 264 189 283 q 199 225 197 244 q 221 117 190 169 q 235 88 228 103 q 258 67 243 74 l 257 58 q 234 65 244 58 q 214 80 224 71 q 194 98 204 89 q 171 111 183 107 q 165 104 167 110 q 163 93 164 99 q 160 85 163 88 q 150 86 157 82 q 136 106 142 96 q 124 126 131 117 q 110 143 118 136 q 89 153 101 150 q 82 148 85 153 q 77 140 79 143 q 72 135 75 136 q 63 142 68 135 q 67 176 68 158 q 64 212 67 193 q 60 249 61 231 q 61 283 58 267 q 60 306 57 297 q 68 326 63 315 q 58 356 57 340 q 63 386 60 371 q 60 395 63 390 q 55 404 57 400 q 52 413 53 408 q 57 422 51 418 l 57 472 q 55 530 57 500 q 43 586 53 560 q 29 601 39 597 q 11 613 19 606 q 28 618 18 619 q 49 617 38 617 q 62 618 56 619 q 74 624 68 617 q 101 619 86 618 q 129 628 117 619 q 152 626 140 626 q 175 625 164 625 q 218 632 200 625 q 260 632 239 632 q 300 627 281 632 q 336 612 319 622 q 365 582 353 601 z "},"s":{"ha":413,"x_min":-10,"x_max":408,"o":"m 190 567 q 201 572 196 572 q 213 571 207 572 q 226 569 219 569 q 239 572 232 568 q 279 564 260 574 q 318 549 299 554 q 336 516 329 533 q 356 483 343 499 q 353 467 351 475 q 358 453 354 460 q 367 440 363 446 q 371 426 371 433 q 385 367 381 397 q 408 314 389 338 q 406 309 406 311 q 400 307 406 307 q 394 313 397 310 q 388 318 390 315 q 367 335 376 325 q 350 356 358 346 q 331 375 342 367 q 307 386 321 383 q 300 399 304 393 q 289 408 296 406 q 273 400 276 410 q 261 383 269 390 l 253 385 q 251 408 256 397 q 244 432 247 418 q 233 442 239 439 q 219 449 226 446 q 213 442 217 443 q 204 440 208 440 q 197 438 200 439 q 193 429 193 436 q 204 385 186 404 l 206 375 q 326 296 260 325 l 361 243 q 367 204 361 222 q 374 167 374 186 q 369 149 374 157 q 361 131 365 140 q 356 114 357 122 q 358 96 354 106 q 351 75 356 85 q 344 56 346 65 q 321 40 333 49 q 296 23 308 31 q 271 12 283 15 q 244 13 258 8 q 228 7 238 10 q 211 8 219 4 q 194 14 203 14 q 175 13 185 14 q 157 14 165 13 q 142 26 149 15 l 121 44 q 82 60 97 43 q 56 93 67 76 q 50 126 51 108 q 46 160 49 143 q 38 194 43 178 q 22 225 33 210 q 6 246 17 238 q -10 265 -4 254 q 3 269 -7 275 q 15 260 7 261 q 26 253 22 260 q 45 228 36 242 q 74 218 54 215 q 88 199 81 211 q 111 194 96 188 l 113 192 q 125 205 119 197 q 140 211 131 213 q 156 197 151 208 q 163 175 160 186 q 173 156 167 164 q 196 151 179 149 q 208 153 204 146 q 219 165 213 161 q 219 188 222 176 q 211 208 215 199 q 176 240 194 224 q 136 261 158 256 q 115 282 128 275 q 88 295 101 289 q 65 310 75 301 q 51 335 54 318 q 41 351 42 342 q 42 369 40 360 q 44 387 43 378 q 38 404 44 396 q 41 439 33 424 q 46 474 49 454 q 65 505 54 489 q 88 536 76 521 q 100 544 93 542 q 113 547 107 546 q 126 551 119 549 q 136 561 132 553 q 153 566 147 561 q 168 574 160 571 q 181 572 175 571 q 190 567 186 572 z "},"t":{"ha":324,"x_min":-25,"x_max":343,"o":"m 154 706 q 176 679 167 694 q 196 649 185 664 q 201 658 203 651 q 207 667 199 664 q 218 649 217 661 q 224 628 219 636 q 224 590 221 608 q 229 553 226 572 q 258 551 243 550 q 289 549 274 553 q 297 553 293 554 q 306 551 301 553 q 314 547 310 549 q 322 547 318 544 q 333 547 328 546 q 343 543 339 549 q 326 524 339 532 q 306 507 314 517 q 294 490 303 496 q 286 472 286 483 q 305 460 293 464 q 321 447 317 457 q 306 434 317 439 q 303 418 296 429 q 285 411 296 411 q 265 413 275 411 q 245 412 254 414 q 232 397 236 410 q 227 360 229 378 q 225 322 225 342 q 228 240 225 282 q 229 156 232 199 q 228 123 226 139 q 234 91 231 107 q 242 60 238 75 q 246 28 246 44 q 253 8 249 17 q 260 -10 258 0 q 249 -12 253 -19 q 235 -1 244 -4 q 219 16 225 4 q 208 38 214 28 q 192 56 201 49 q 168 58 183 63 q 165 57 167 56 q 161 58 163 58 q 152 91 160 74 q 126 114 144 108 q 120 111 122 114 q 117 105 118 108 q 113 99 115 101 q 107 96 111 96 q 103 147 100 119 q 103 201 107 174 q 101 247 100 226 q 103 289 103 268 q 102 313 103 300 q 99 339 101 325 q 101 371 101 354 q 101 403 100 388 q 58 408 81 410 q 17 415 36 407 q -6 411 6 414 q -25 415 -17 408 q -16 424 -24 422 q -1 425 -8 425 q 15 438 10 429 q 25 456 19 447 q 15 465 24 463 q 11 476 7 467 q 32 490 19 482 q 44 510 44 497 q 44 526 46 521 q 38 539 43 531 l 25 543 l 26 551 q 63 549 43 553 q 99 549 82 546 q 100 593 106 572 q 97 636 94 614 q 86 656 89 644 q 76 676 83 667 q 63 690 69 683 q 56 706 57 697 q 76 699 67 708 q 97 685 86 690 q 109 684 104 688 q 119 678 114 681 q 125 703 125 690 q 115 728 125 717 q 122 732 117 732 q 128 729 126 732 q 139 715 135 722 q 154 706 143 707 z "},"u":{"ha":481,"x_min":33,"x_max":433,"o":"m 131 536 q 151 517 140 525 q 178 510 163 510 q 192 428 189 469 q 196 343 196 386 q 195 304 196 324 q 193 265 194 285 q 198 242 197 254 q 199 218 199 231 q 203 194 200 206 q 218 175 207 183 q 242 170 231 172 q 265 172 253 168 q 273 196 275 183 q 278 219 271 208 q 281 272 285 249 q 282 319 276 296 q 282 360 281 340 q 283 399 283 379 q 275 464 283 431 q 281 478 281 471 q 278 492 281 485 q 272 506 275 500 q 268 519 269 513 q 286 530 283 519 q 294 547 289 540 l 283 597 q 300 592 292 603 q 339 551 321 572 q 374 508 357 529 q 372 504 374 506 q 372 501 369 503 l 385 496 q 388 503 386 499 q 386 510 389 507 q 394 517 392 510 q 397 530 396 524 q 401 538 399 536 q 413 531 404 539 q 417 520 413 524 q 425 510 421 517 q 426 435 418 471 q 428 357 433 400 q 426 299 428 326 q 425 244 425 272 q 425 217 425 231 q 428 188 425 203 q 426 171 429 179 q 419 153 422 163 q 415 135 417 144 q 418 117 414 126 q 388 63 411 85 q 333 28 364 40 q 288 21 310 24 q 244 18 267 18 q 192 22 218 18 q 163 36 176 28 q 133 46 150 44 q 92 80 106 58 q 72 126 78 101 q 62 175 65 150 q 53 221 58 200 q 57 251 60 236 q 54 276 54 265 q 58 321 58 299 q 52 395 58 360 q 51 472 46 431 q 49 490 49 482 q 42 504 50 497 q 51 510 43 513 q 65 513 60 508 q 62 560 67 535 q 33 601 57 586 q 41 609 33 608 q 51 604 49 610 q 73 588 64 597 q 90 570 82 579 q 108 551 99 561 q 131 536 118 542 z "},"v":{"ha":401,"x_min":-4,"x_max":381,"o":"m 286 681 q 321 649 306 668 q 347 610 336 629 q 353 616 351 611 q 356 626 354 621 q 359 633 357 631 q 368 635 361 636 q 381 579 381 610 q 376 531 381 556 q 364 483 371 506 q 357 440 358 461 q 353 400 356 419 q 345 361 350 381 q 328 322 340 342 q 328 309 326 315 q 322 297 331 303 q 319 249 322 272 q 307 201 317 225 q 306 140 299 171 q 335 89 314 110 q 347 74 344 83 q 357 58 349 64 l 351 51 q 338 59 344 57 q 323 63 331 61 q 308 69 315 65 q 296 79 301 72 q 288 77 293 76 q 279 78 283 78 l 267 96 q 262 80 260 89 q 265 61 264 71 q 259 51 268 50 q 244 53 250 51 q 224 72 233 63 q 203 92 214 81 l 176 121 q 169 106 172 114 q 157 97 165 99 q 131 197 146 146 q 99 296 115 249 q 87 347 97 321 q 85 396 76 372 q 70 435 83 417 q 60 474 57 453 q 56 505 60 488 q 42 533 53 522 q 40 539 38 536 q 44 544 43 542 q 36 575 44 561 q 14 599 28 589 q 19 608 11 607 q 29 611 26 608 q 40 613 33 608 q 24 647 33 631 q -1 675 15 663 q -2 682 -4 678 q 3 686 0 686 q 27 674 14 675 q 51 668 40 674 q 81 649 68 661 q 111 631 94 638 q 115 647 114 638 q 119 661 115 656 q 142 645 129 654 q 161 625 154 636 q 167 584 161 604 q 178 544 172 564 q 190 505 185 525 q 196 463 196 485 q 206 426 203 444 q 215 392 210 408 q 233 492 226 442 q 246 593 240 542 q 244 602 247 597 q 240 611 242 607 q 237 619 238 615 q 243 625 236 622 q 257 613 250 618 q 274 607 264 608 q 282 616 285 610 q 282 629 279 622 q 278 660 283 644 q 267 688 274 675 q 269 694 265 692 q 278 696 274 697 l 286 681 z "},"w":{"ha":611,"x_min":-33,"x_max":628,"o":"m 519 579 q 553 563 536 571 q 581 540 569 556 q 585 553 586 544 q 594 557 583 561 q 617 519 607 540 q 614 475 628 499 q 603 431 614 451 q 592 386 593 410 q 584 369 585 378 q 583 351 583 360 q 582 335 583 343 q 572 318 581 326 q 574 282 572 300 q 561 250 576 264 q 531 142 556 194 q 531 132 532 138 q 527 121 529 126 q 526 110 525 115 q 533 103 526 106 q 535 92 535 97 q 531 81 536 86 q 524 71 528 75 q 515 63 519 67 q 510 53 511 58 q 514 39 510 47 l 507 6 q 515 -17 513 -6 q 524 -40 517 -29 q 513 -42 518 -47 q 501 -35 507 -36 q 485 -24 492 -31 q 474 -9 479 -17 q 463 6 469 -1 q 444 15 456 13 q 433 31 439 24 q 417 43 426 38 q 406 33 414 36 q 400 21 397 31 q 384 29 389 18 q 372 47 379 40 q 363 76 375 64 q 347 104 351 89 q 325 174 332 136 q 306 240 318 211 q 300 261 303 251 q 294 282 297 271 q 281 247 283 267 q 272 208 279 228 q 276 200 276 206 q 272 192 275 194 q 260 172 261 183 q 258 150 258 161 q 258 128 258 139 q 247 108 257 117 q 242 90 242 99 q 244 72 242 81 q 247 53 246 63 q 246 35 249 44 q 254 12 253 24 q 268 -7 256 0 q 263 -17 271 -17 q 251 -14 254 -17 q 229 -1 240 -8 q 207 -6 218 6 l 207 -4 q 178 22 196 7 q 149 57 160 38 q 135 51 142 60 q 121 47 128 42 q 85 177 96 111 q 51 310 74 243 q 40 372 42 342 q 24 433 39 401 q 19 465 24 450 q 8 493 14 479 q -5 522 1 507 q -12 553 -11 536 q -25 567 -17 560 q -32 581 -33 574 q 3 576 -12 582 q 35 563 19 571 l 61 549 q 63 559 64 553 q 60 570 61 565 q 60 578 58 575 q 69 579 61 581 q 99 558 83 568 q 122 529 114 547 q 134 516 135 526 q 139 496 133 506 q 150 449 143 469 q 163 401 157 429 q 169 369 169 386 q 175 336 168 353 q 181 356 178 347 q 183 375 183 364 q 199 427 194 403 q 211 475 204 451 q 211 495 214 486 q 208 515 208 504 q 222 515 215 519 q 238 508 229 511 q 248 511 244 506 q 253 524 251 517 q 244 563 250 543 q 221 597 238 583 q 228 607 218 607 q 270 578 249 592 q 310 547 292 564 q 314 539 308 540 q 322 535 319 538 q 331 518 325 521 q 336 526 335 521 q 339 535 338 531 q 343 540 340 539 q 353 538 346 542 q 366 511 356 524 q 374 485 376 499 q 386 452 383 469 q 396 419 389 435 q 410 358 400 388 q 425 297 421 329 q 440 349 431 321 q 454 401 450 376 q 463 434 464 417 q 474 469 463 451 q 473 484 475 476 q 476 499 471 492 q 490 492 483 496 q 499 500 497 489 q 496 555 501 528 q 472 603 490 582 q 478 606 474 606 q 485 604 482 607 l 519 579 z "},"x":{"ha":478,"x_min":-15,"x_max":475,"o":"m 368 650 l 364 643 q 373 601 367 621 q 378 560 379 582 q 386 556 381 556 q 397 556 392 556 q 404 556 401 557 q 407 547 407 554 q 388 519 400 533 q 376 490 376 506 q 344 435 358 463 q 322 376 329 408 q 347 313 329 343 q 379 256 364 283 q 422 199 401 228 q 457 139 442 171 q 447 132 453 136 q 438 121 440 128 q 440 100 435 108 q 451 85 444 92 q 465 70 458 78 q 475 51 472 63 q 453 54 464 50 q 433 65 443 58 q 414 76 424 71 q 394 85 404 82 q 363 104 379 96 q 333 129 346 113 q 325 122 326 128 q 322 109 324 115 q 318 101 321 103 q 307 108 315 100 q 299 135 308 124 q 286 161 290 147 q 278 174 281 167 q 269 189 275 182 q 239 226 256 211 q 213 178 224 206 q 200 122 201 150 q 203 108 201 115 q 201 92 204 100 q 210 69 204 81 q 219 49 217 58 l 211 44 q 181 68 196 57 q 151 90 167 79 q 140 65 136 81 q 147 55 144 61 q 143 44 150 49 q 129 58 131 46 q 122 79 128 71 q 110 90 114 83 q 104 104 107 97 q 99 117 101 111 q 89 128 96 124 q 63 117 76 122 q 38 113 50 113 l 35 118 q 71 188 57 151 q 108 257 85 225 q 133 312 121 286 q 156 367 146 338 q 143 392 147 381 q 135 418 139 403 q 97 480 113 447 q 53 539 81 513 q 18 569 46 565 l 18 578 q 39 580 29 583 q 57 588 49 576 q 26 627 42 607 q -12 658 10 647 q -12 663 -15 661 q -7 664 -10 664 q 22 651 8 661 q 54 640 36 640 l 124 613 q 129 628 132 619 q 129 644 126 638 q 149 631 143 646 q 164 604 156 615 q 197 556 182 581 q 228 507 211 531 q 249 540 239 522 q 265 576 258 558 q 276 593 275 583 q 277 613 278 603 q 276 631 276 622 q 283 646 276 639 q 303 633 293 639 q 321 619 313 628 q 335 653 332 632 q 342 692 339 674 q 351 684 349 689 q 356 673 354 679 q 360 660 358 667 q 368 650 363 654 z "},"y":{"ha":421,"x_min":3,"x_max":383,"o":"m 314 586 q 322 592 318 589 q 332 594 325 596 q 345 563 335 576 q 360 535 356 550 q 373 532 369 540 q 374 515 376 524 q 372 434 365 475 q 376 353 379 393 q 378 306 378 329 q 378 258 378 282 q 378 211 378 235 q 383 164 379 188 q 378 119 382 140 q 382 74 375 97 q 376 50 382 63 q 381 25 371 38 q 371 -28 382 -1 q 336 -68 360 -54 q 316 -74 325 -68 q 298 -88 307 -81 q 280 -101 289 -96 q 258 -106 271 -107 q 215 -112 238 -111 q 174 -107 193 -114 q 158 -101 167 -101 q 139 -102 149 -101 q 119 -104 129 -103 q 100 -103 108 -106 q 88 -92 96 -94 q 70 -87 79 -89 q 53 -83 61 -86 q 42 -69 46 -79 l 85 -69 q 106 -69 96 -69 q 128 -64 117 -68 q 137 -60 132 -61 q 144 -51 142 -58 q 143 -44 146 -47 q 136 -38 140 -40 q 129 -33 132 -36 q 128 -26 126 -31 q 169 -6 153 -29 q 149 7 160 1 q 125 11 139 13 l 122 18 q 144 23 132 24 q 168 22 156 22 q 192 22 181 21 q 215 31 204 22 q 253 40 236 26 q 253 90 260 65 q 203 81 228 86 q 151 85 178 76 q 132 97 143 93 q 109 106 121 101 q 88 118 97 111 q 75 139 79 125 q 54 176 60 156 q 47 217 49 196 q 46 259 46 238 q 42 300 46 281 q 44 323 43 311 q 44 346 44 335 q 40 422 44 385 q 33 496 36 460 q 27 507 32 503 q 17 514 22 511 q 7 520 11 517 q 3 531 3 524 q 15 532 8 532 q 29 533 22 532 q 42 537 36 533 q 50 550 47 540 q 50 563 49 557 q 51 576 51 569 q 51 606 54 590 q 44 636 47 622 q 57 636 50 642 q 88 594 72 615 q 125 554 104 572 q 132 560 129 556 q 137 568 135 564 q 142 574 139 572 q 151 574 146 576 l 168 535 q 165 501 163 518 q 161 469 168 485 q 165 406 165 433 q 164 360 165 383 q 164 313 163 338 q 169 286 171 303 q 176 260 167 269 q 187 249 185 256 q 190 236 189 243 q 192 223 190 229 q 201 213 194 217 q 240 226 225 215 q 244 250 247 238 q 238 275 240 263 q 243 305 246 289 q 240 336 240 321 q 241 383 240 360 q 242 431 242 407 q 239 490 242 461 q 226 544 236 519 q 228 552 225 549 q 236 554 231 556 q 249 556 243 553 q 251 582 251 569 q 254 608 250 594 q 253 619 256 614 q 248 628 250 624 q 245 638 246 633 q 251 647 244 643 q 283 616 271 635 q 314 586 294 597 z "},"z":{"ha":450,"x_min":6,"x_max":432,"o":"m 257 568 q 272 574 263 574 q 290 574 281 575 q 307 570 299 572 q 322 568 315 568 q 366 573 346 575 q 410 572 386 571 q 411 553 418 565 q 406 531 404 542 q 406 521 408 525 q 410 513 403 517 q 413 502 413 507 q 417 493 414 497 q 412 476 419 482 q 407 463 404 471 q 399 435 404 446 q 378 413 393 424 q 363 393 374 400 q 350 372 353 386 l 344 372 q 294 307 315 342 q 247 240 272 272 q 287 238 267 239 q 326 238 307 238 q 378 238 353 238 q 432 239 404 239 l 432 232 q 401 208 418 217 q 376 181 383 200 q 388 172 388 183 q 394 154 389 161 q 378 147 388 150 q 362 141 369 144 q 350 131 354 138 q 349 113 346 125 q 322 106 335 106 q 294 106 310 107 l 132 107 q 119 111 125 113 q 106 108 113 110 q 91 105 99 106 q 76 110 83 104 q 77 143 83 126 q 72 178 71 160 q 81 192 82 185 q 78 210 81 200 q 72 222 75 215 q 76 235 68 229 q 144 317 114 276 q 204 403 175 357 q 219 419 211 413 q 231 436 228 425 q 188 438 210 436 q 146 440 167 440 q 101 435 122 440 q 60 414 79 429 l 57 414 q 58 422 54 418 q 61 429 63 426 q 67 444 63 436 q 65 458 72 453 q 39 450 51 456 q 13 438 26 444 q 8 445 6 440 q 13 453 11 450 q 42 488 29 469 q 76 517 54 507 q 56 528 65 526 q 33 533 46 531 q 42 543 35 542 q 54 547 50 544 q 79 560 65 557 q 108 564 93 563 q 137 567 122 565 q 165 576 151 569 q 210 567 186 568 q 257 568 233 565 z "},":":{"ha":263,"x_min":65,"x_max":211,"o":"m 88 478 q 76 476 82 468 q 74 550 75 513 q 71 622 72 588 q 76 629 71 629 q 101 618 92 629 q 121 600 110 607 q 132 606 124 608 q 143 610 140 603 q 153 609 149 613 q 160 601 157 606 q 168 593 164 597 q 179 590 172 589 l 203 601 q 206 592 208 596 q 201 578 199 586 q 199 564 204 571 q 199 509 194 539 q 204 453 203 479 q 189 450 197 444 q 172 454 181 456 q 152 470 160 461 q 136 490 144 479 q 119 492 126 489 q 113 499 117 497 q 106 503 110 500 q 103 494 106 497 q 96 490 100 492 q 89 486 92 489 q 88 478 86 483 m 206 238 q 210 217 211 228 q 204 199 208 207 q 208 190 207 194 q 203 182 208 185 q 190 190 196 179 q 176 204 185 200 q 166 209 172 206 q 153 215 160 213 q 141 218 147 218 q 131 213 135 218 q 122 205 126 204 q 113 209 117 206 q 103 217 108 213 q 94 222 99 221 q 78 222 85 228 q 65 222 72 217 q 72 303 71 264 q 76 388 72 343 q 81 400 75 396 q 87 388 85 394 q 91 374 89 381 q 98 360 93 367 q 111 350 103 354 l 131 342 q 142 353 139 344 q 154 358 146 361 q 166 344 156 347 q 185 339 176 342 q 191 340 188 338 q 197 343 194 342 q 203 344 200 344 q 208 338 206 343 q 207 308 206 322 q 211 278 208 293 q 208 257 204 268 q 206 238 211 246 z "},"+":{"ha":450,"x_min":28,"x_max":410,"o":"m 186 593 l 231 543 q 240 552 238 546 q 249 564 243 558 q 258 554 260 561 q 265 543 257 547 q 264 521 258 532 q 267 500 269 510 l 271 457 q 280 458 275 460 q 289 453 285 456 q 329 456 308 457 q 369 463 350 456 q 386 460 376 460 q 404 464 396 460 q 408 463 407 465 q 410 458 408 460 q 397 446 406 451 q 379 435 388 440 q 365 422 371 429 q 358 404 358 414 q 369 392 367 400 q 376 379 371 385 q 358 371 369 374 q 350 354 347 368 q 352 344 351 350 q 357 338 353 339 q 324 329 342 329 q 286 329 306 329 q 281 303 282 317 q 279 276 279 290 q 281 237 279 257 q 283 197 282 217 q 283 183 281 190 q 279 168 285 175 q 272 172 274 168 q 271 179 271 175 q 270 188 271 183 q 265 196 269 193 q 242 225 256 215 q 233 217 238 222 q 222 211 229 211 q 206 235 211 219 q 190 263 201 250 q 187 256 186 260 q 186 249 188 253 q 176 247 182 249 q 167 250 169 246 l 161 257 q 163 288 164 272 q 163 324 161 304 q 139 326 151 326 q 115 326 126 326 q 74 325 94 326 q 31 322 53 324 l 28 328 q 59 342 47 335 q 86 363 71 350 q 82 374 88 369 q 78 386 76 379 q 104 399 90 389 q 121 424 118 410 q 117 433 121 429 q 110 440 114 436 q 103 448 106 444 q 101 457 100 451 q 116 458 108 463 q 131 457 124 454 q 144 459 138 458 q 156 464 151 460 q 150 535 153 497 q 144 607 147 574 q 139 615 139 610 q 138 624 139 619 q 147 626 142 629 q 164 603 157 618 q 186 593 171 589 z "},"":{"ha":447,"x_min":65,"x_max":403,"o":"m 189 767 q 206 767 196 771 q 217 749 210 756 q 221 732 224 743 q 202 677 210 704 q 192 621 194 650 q 185 599 185 610 q 175 582 186 588 q 167 548 172 564 q 150 521 161 532 q 140 501 150 508 q 141 494 146 497 q 138 488 136 492 q 129 483 135 483 q 121 486 124 483 q 117 512 118 499 q 119 536 117 525 q 115 553 121 546 q 103 568 110 561 q 104 591 100 579 q 93 608 108 603 q 83 605 90 606 q 72 607 76 604 q 66 616 65 610 q 69 625 67 622 q 82 651 76 638 q 85 678 88 665 q 101 739 94 710 q 107 804 108 768 q 110 823 113 813 q 107 843 108 833 q 119 845 114 851 q 128 835 125 839 q 133 812 126 822 q 144 790 140 801 q 166 788 156 789 q 183 779 176 786 l 189 767 m 397 721 q 400 713 403 718 q 397 706 397 708 q 374 628 386 667 q 347 553 361 589 q 338 512 338 532 q 324 474 338 492 q 321 463 324 468 q 313 454 318 457 l 308 457 l 308 514 q 303 522 303 518 q 292 516 299 517 q 279 518 285 515 q 272 531 272 524 q 270 547 271 539 q 268 562 269 554 q 261 576 267 569 q 249 571 254 578 q 238 574 243 564 l 249 607 q 248 613 244 610 q 250 618 251 615 q 259 653 257 636 q 269 689 261 671 q 276 703 278 696 q 279 718 275 711 q 275 736 274 728 q 280 752 276 744 q 285 767 283 760 q 282 783 288 775 q 291 799 285 793 q 304 813 297 806 q 311 813 311 811 q 318 811 311 814 q 317 805 319 808 q 321 799 315 801 q 321 779 315 792 q 336 803 331 789 q 350 825 342 818 q 360 828 357 832 q 371 826 364 824 l 374 814 q 366 762 368 786 q 361 711 364 738 q 367 701 364 707 q 376 701 371 696 q 385 715 383 706 q 397 721 388 725 z "},"":{"ha":464,"x_min":63,"x_max":422,"o":"m 314 565 q 300 558 310 558 q 282 569 290 565 q 271 583 274 572 q 263 640 268 611 q 247 696 258 668 q 244 717 250 707 q 246 738 239 728 q 240 772 242 756 q 243 804 239 789 q 243 825 238 814 q 239 832 236 828 q 240 840 242 836 q 245 847 240 844 q 254 849 250 849 q 268 826 261 838 q 276 803 275 815 q 288 790 281 793 q 306 782 296 786 q 311 772 310 778 q 315 760 313 765 q 320 752 317 756 q 332 750 324 749 q 339 758 333 754 q 350 760 344 761 q 359 755 357 761 q 360 744 361 749 q 361 716 360 731 q 371 690 363 701 q 382 628 375 658 q 404 568 389 599 q 410 549 404 557 q 422 532 415 540 q 411 524 419 521 q 397 529 403 526 q 383 549 393 542 q 364 563 372 556 q 345 556 354 560 q 325 557 336 553 l 314 565 m 107 517 q 100 522 100 517 q 100 529 100 528 q 88 610 93 569 q 79 689 82 650 q 76 710 79 700 q 69 731 72 721 q 65 750 67 740 q 67 771 64 760 q 63 782 64 775 q 68 793 63 789 l 72 793 l 97 740 q 106 736 103 742 q 113 747 107 743 q 125 750 118 751 q 145 728 140 744 q 167 706 150 713 q 172 710 169 707 q 176 716 174 713 q 181 720 178 719 q 188 718 183 721 l 190 683 q 194 679 196 682 q 196 674 193 676 q 202 637 196 654 q 207 600 208 619 q 208 584 203 590 q 213 571 213 578 q 223 556 221 564 q 226 539 225 547 q 228 523 226 531 q 238 510 229 515 q 237 492 240 500 q 231 474 233 483 q 224 470 224 471 q 217 468 224 469 q 215 475 215 471 q 210 479 215 479 q 200 497 210 488 q 198 469 197 485 q 194 442 199 453 q 187 437 192 435 q 176 433 182 439 l 168 443 q 152 494 161 471 q 135 542 143 517 q 126 547 131 544 q 118 542 121 549 q 116 527 114 536 q 107 517 118 518 z "},"^":{"ha":532,"x_min":22,"x_max":519,"o":"m 358 739 q 409 659 386 700 q 468 585 432 618 q 494 551 483 569 q 519 518 504 533 q 510 513 518 513 q 500 518 506 517 q 490 521 494 519 q 480 525 485 522 q 472 535 475 528 q 456 546 465 542 q 436 549 447 550 q 431 546 433 549 q 425 542 428 543 q 403 567 417 556 q 374 581 390 578 q 365 568 364 578 q 368 553 365 558 q 379 532 379 543 q 360 544 365 533 q 344 565 356 556 q 330 579 335 568 q 315 596 325 590 q 290 638 306 619 q 258 676 274 656 l 256 676 q 187 601 221 640 q 129 518 153 563 q 127 510 129 514 q 121 507 125 506 q 112 492 113 501 q 103 479 111 482 q 101 510 96 493 q 106 543 106 528 q 99 549 103 549 q 92 547 96 549 q 85 544 88 544 q 81 551 82 544 q 82 568 82 558 q 75 585 82 578 q 53 583 64 588 q 33 572 43 578 q 26 573 31 575 q 24 576 22 571 q 31 584 25 583 q 39 589 36 585 q 68 639 50 615 q 106 686 86 663 q 142 733 125 710 q 169 785 160 757 q 192 794 178 796 q 220 800 207 793 q 247 797 233 807 q 265 799 257 796 q 282 804 274 801 q 298 806 290 807 q 313 796 306 806 q 334 767 324 781 q 358 739 344 754 z "},"|":{"ha":253,"x_min":46,"x_max":219,"o":"m 78 853 q 84 830 78 839 q 88 807 90 821 l 94 800 q 103 812 100 806 q 114 817 107 818 q 124 794 121 808 q 138 771 128 779 q 137 758 133 764 q 143 746 140 753 q 160 769 157 753 q 161 800 164 785 q 169 808 161 806 q 176 797 175 804 q 176 781 176 789 q 174 764 175 772 q 176 747 174 756 q 178 709 174 728 q 179 671 183 690 q 181 638 182 654 q 181 604 179 622 q 190 441 182 522 q 194 276 197 360 q 193 239 196 257 q 190 203 190 221 q 201 154 190 175 q 205 77 199 113 q 208 1 211 42 q 211 -33 210 -17 q 213 -67 213 -50 q 208 -107 213 -86 q 213 -130 207 -119 q 218 -151 219 -140 q 208 -151 214 -153 q 198 -126 199 -140 q 194 -99 197 -112 q 183 -87 192 -89 q 179 -74 175 -85 q 171 -69 176 -72 q 161 -74 165 -67 q 153 -91 154 -81 q 140 -104 151 -101 q 135 -81 135 -93 q 128 -57 135 -68 q 122 -67 122 -60 q 111 -71 121 -75 q 110 -64 110 -68 q 107 -57 110 -60 q 101 -82 104 -71 q 94 -104 99 -93 q 86 -88 88 -97 q 85 -70 85 -79 q 87 -51 86 -61 q 83 -33 88 -42 q 81 50 86 11 q 75 133 76 89 q 76 147 76 140 q 71 161 76 154 q 71 201 76 183 q 74 238 65 219 q 69 285 67 263 q 65 333 72 308 q 70 355 71 343 q 67 378 69 367 q 63 400 64 389 q 67 422 61 411 q 62 450 58 438 q 60 478 65 463 q 58 501 58 489 q 58 524 58 513 l 58 575 q 54 635 58 606 q 58 651 58 643 q 54 667 57 658 q 51 683 51 675 q 54 699 50 690 q 49 722 51 710 q 54 744 47 733 q 49 791 46 765 q 53 840 51 817 q 50 856 54 849 q 56 871 46 864 q 50 884 53 878 q 51 897 47 890 q 54 899 53 901 q 58 899 56 897 q 65 872 67 888 q 78 853 63 857 z "},"/":{"ha":379,"x_min":39,"x_max":340,"o":"m 250 797 q 272 778 261 789 q 290 756 283 767 q 298 749 293 749 q 306 754 303 750 q 313 775 310 764 q 324 793 317 786 q 330 785 331 792 q 331 771 329 778 q 340 724 340 744 q 328 683 340 700 q 318 653 326 667 q 315 625 310 640 q 297 557 306 590 q 278 489 289 524 q 277 459 281 474 q 263 433 274 444 q 262 400 265 417 q 253 367 258 383 q 243 333 249 350 q 236 300 238 317 q 217 238 225 268 q 203 176 210 208 q 185 108 200 140 q 168 43 171 75 q 167 -7 158 19 q 188 -54 176 -33 q 187 -60 186 -57 q 185 -64 188 -62 q 158 -47 169 -57 q 135 -29 147 -36 l 110 -3 q 105 -25 103 -12 q 100 -47 107 -37 q 88 -26 89 -42 q 76 -1 88 -11 q 69 22 71 10 q 61 42 67 33 q 55 38 57 42 q 51 30 53 33 q 48 24 50 26 q 40 25 46 22 q 45 77 39 51 q 59 128 51 103 q 74 178 67 153 q 83 232 81 204 q 99 279 90 256 q 99 328 108 303 q 117 363 113 344 q 123 399 121 381 q 128 438 125 418 q 144 474 132 457 q 153 528 144 500 q 175 581 163 556 q 176 619 174 599 q 197 654 179 640 l 206 715 q 200 722 203 719 q 200 731 197 725 q 216 733 207 733 q 231 740 225 733 q 224 776 226 760 q 200 806 221 793 q 201 811 199 810 q 206 815 203 813 q 227 806 217 813 q 250 797 238 800 z "},"\\":{"ha":382,"x_min":-17,"x_max":386,"o":"m 335 -24 q 305 -17 319 -21 q 279 -6 290 -12 q 269 -3 274 -1 q 264 -11 265 -6 q 267 -33 265 -22 q 267 -54 269 -44 q 257 -50 260 -57 q 250 -37 254 -43 q 219 -3 232 -22 q 211 40 207 17 q 205 71 204 56 q 194 97 206 86 q 178 166 186 132 q 164 236 169 200 q 150 262 153 247 q 151 292 147 276 q 137 321 142 304 q 128 355 132 338 q 122 390 125 372 q 111 422 118 407 q 99 484 106 454 q 83 546 92 514 q 73 580 76 563 q 67 615 69 597 q 60 649 64 632 q 50 681 57 665 q 27 725 47 707 q -12 757 7 743 q -14 762 -11 760 q -14 767 -17 764 q 17 763 1 768 q 46 760 32 758 l 81 749 q 75 770 83 760 q 68 793 67 781 q 89 780 82 793 q 111 764 96 767 q 128 747 121 757 q 144 733 135 738 q 148 739 149 735 q 147 747 147 743 q 147 753 146 751 q 154 756 147 756 q 175 708 168 733 q 187 657 182 683 q 197 605 192 631 q 214 554 203 579 q 223 506 219 531 q 246 463 226 481 q 246 423 240 442 q 258 387 251 404 q 272 351 265 369 q 274 313 278 333 q 291 260 286 289 q 297 203 296 231 q 315 168 307 188 q 313 128 322 149 l 335 69 q 342 66 338 67 q 346 60 347 65 q 333 49 340 53 q 324 36 325 44 q 347 8 336 21 q 382 -7 358 -6 q 381 -18 386 -12 q 358 -20 369 -21 q 335 -24 346 -19 z "},"%":{"ha":724,"x_min":47,"x_max":675,"o":"m 440 810 q 466 775 456 793 q 481 733 476 757 q 498 746 492 736 q 511 763 504 756 q 520 743 519 756 q 529 724 521 731 q 517 696 521 711 q 510 665 513 681 q 503 635 507 650 q 490 606 499 619 q 472 539 494 569 q 456 467 461 503 q 442 394 450 431 q 435 387 440 389 q 433 379 431 385 q 458 394 447 386 q 486 408 469 403 q 506 421 496 419 q 525 419 515 422 q 546 413 535 417 q 568 410 557 408 q 585 397 575 400 q 607 392 596 394 q 628 387 618 390 q 643 371 638 383 q 655 349 651 361 q 660 325 658 338 q 665 299 663 313 q 672 275 667 286 q 672 235 669 253 q 675 197 675 218 q 672 174 671 186 q 674 150 674 163 q 674 125 675 138 q 665 101 674 113 l 656 54 q 626 24 639 38 q 596 -6 614 10 q 567 -15 583 -10 q 539 -10 550 -19 q 497 -10 519 -12 q 457 0 475 -7 q 435 22 446 11 q 408 36 425 33 q 399 66 403 50 q 389 96 396 82 q 385 122 394 111 q 388 139 388 129 q 383 157 388 149 l 379 157 q 363 106 365 133 q 346 56 360 79 q 344 28 346 40 q 339 1 342 17 l 350 -69 q 331 -62 339 -72 q 315 -44 324 -51 l 296 -17 q 288 -23 290 -18 q 284 -33 286 -28 q 279 -41 282 -37 q 271 -43 276 -44 q 256 13 256 -14 q 256 68 256 39 q 243 58 249 65 q 231 53 238 51 q 239 106 233 78 q 250 160 244 133 q 266 236 261 196 q 282 310 271 276 q 281 327 278 319 q 288 342 283 335 q 295 358 292 350 q 296 374 299 365 q 259 372 276 372 q 226 356 242 371 q 191 362 207 351 q 156 372 175 372 q 139 379 149 383 q 122 383 129 375 q 110 393 119 392 q 96 397 101 394 q 66 438 72 413 q 53 489 60 463 q 52 526 50 506 q 49 561 54 546 q 49 580 47 569 q 53 601 51 590 q 56 621 56 611 q 51 640 56 631 q 66 682 51 663 q 90 722 81 701 q 112 741 100 735 q 137 751 124 747 q 164 757 150 754 q 190 765 178 760 q 232 758 208 760 q 276 750 256 756 q 314 731 297 744 q 335 692 331 718 q 331 669 331 681 q 334 644 332 657 q 338 620 336 632 q 338 596 340 608 q 343 581 340 589 q 347 565 346 574 q 364 624 358 593 q 381 683 369 654 q 385 719 379 703 q 394 754 392 736 q 388 761 392 758 q 388 771 385 764 l 407 775 q 409 804 410 790 q 401 833 408 818 l 404 840 q 428 829 415 833 q 440 810 442 825 m 199 629 q 188 624 194 625 q 179 615 182 622 q 179 599 181 607 q 176 583 178 592 q 175 567 175 575 q 181 553 175 560 q 179 518 175 536 q 197 489 183 500 q 221 492 208 488 q 231 514 231 500 q 232 539 231 528 q 226 583 232 558 q 206 621 221 607 q 199 629 206 629 m 529 288 q 510 261 510 281 q 508 225 510 242 q 508 204 510 214 q 508 186 506 194 q 506 180 506 183 q 509 173 507 176 q 512 165 511 169 q 511 157 513 161 q 510 144 507 147 q 519 140 513 140 q 531 137 525 139 q 540 129 538 135 l 551 135 q 558 149 563 140 q 557 167 554 158 q 563 197 568 182 q 560 229 558 213 q 563 243 564 236 q 559 256 561 250 q 555 269 557 263 q 557 282 553 275 q 549 279 553 278 q 542 283 546 281 q 536 288 539 286 q 529 288 533 290 z "},"!":{"ha":274,"x_min":39,"x_max":232,"o":"m 69 444 q 70 483 69 463 q 71 522 71 503 q 69 560 71 542 q 64 597 68 579 q 65 624 68 611 q 64 650 63 638 q 65 664 67 658 q 63 678 64 669 q 48 688 57 683 q 43 703 39 693 q 58 707 50 706 q 72 714 65 708 q 62 771 65 740 q 42 825 58 801 q 58 822 50 829 q 76 813 67 815 q 106 782 93 800 q 135 750 119 764 l 150 724 q 157 734 156 728 q 160 747 158 740 q 163 758 161 753 q 172 763 165 763 q 187 733 176 747 q 189 700 197 718 q 190 697 190 699 q 192 694 189 694 l 194 694 q 192 649 193 671 q 190 604 190 626 q 196 546 190 572 q 195 500 194 522 q 199 454 196 478 q 199 368 203 410 q 194 283 194 326 q 199 226 194 256 q 193 223 197 219 q 186 224 189 226 q 189 197 186 210 q 186 172 192 183 q 164 188 172 176 q 150 213 156 200 q 140 212 144 215 q 128 210 135 208 q 113 243 117 224 q 100 278 108 263 q 95 267 97 274 q 85 263 93 260 l 74 385 q 72 414 76 399 q 69 444 67 429 m 197 117 q 201 72 200 94 q 203 26 201 49 q 212 -19 206 3 q 232 -58 218 -40 q 220 -60 225 -68 q 208 -51 215 -53 q 183 -37 194 -46 q 161 -21 172 -29 q 156 -24 158 -21 q 153 -31 154 -28 q 149 -34 151 -33 q 143 -32 147 -35 q 119 -14 128 -26 q 99 7 110 -1 q 88 -4 90 6 q 76 -12 85 -14 l 72 18 l 75 17 q 71 35 68 24 q 67 54 74 46 q 73 110 68 81 q 75 167 78 140 q 85 172 78 176 q 95 158 93 167 q 104 147 97 150 q 121 117 104 131 q 126 124 125 118 q 130 133 128 129 q 135 139 132 138 q 146 136 139 140 q 153 125 144 125 q 167 118 163 125 q 182 117 175 119 q 197 117 189 114 z "},"?":{"ha":442,"x_min":44,"x_max":404,"o":"m 400 560 q 397 533 404 544 q 386 508 389 522 q 374 460 382 485 q 339 425 367 435 q 319 400 328 414 q 296 381 311 386 q 283 363 285 374 q 281 342 281 353 q 283 319 282 331 q 282 300 285 308 q 281 266 282 283 q 279 233 281 249 q 283 195 286 215 q 282 156 281 175 q 273 153 275 151 q 271 160 271 156 q 271 169 271 164 q 267 176 271 174 l 243 214 l 197 217 l 178 250 q 171 247 172 250 q 168 239 169 243 q 164 232 167 235 q 156 233 161 229 q 151 253 153 243 q 151 275 149 264 l 149 278 q 148 316 154 299 q 150 354 142 333 q 151 384 149 368 q 167 410 154 400 q 168 431 164 422 q 179 448 172 440 q 194 463 186 456 q 207 481 201 471 q 227 499 219 488 q 244 518 235 511 q 251 534 250 526 q 251 550 251 542 q 249 567 250 558 q 250 585 247 576 q 247 617 246 600 q 232 643 247 635 q 227 651 232 649 q 218 654 222 653 q 193 644 203 657 q 175 621 183 631 q 174 592 176 608 q 175 561 171 576 q 166 547 172 551 q 153 540 160 543 q 142 533 147 538 q 139 517 138 528 q 132 513 136 510 q 125 517 128 517 q 116 526 118 519 q 107 535 114 532 q 98 522 103 528 q 86 514 93 517 q 73 493 79 503 q 68 468 67 483 l 61 468 q 52 500 54 483 q 50 533 50 517 q 51 568 50 551 q 54 603 53 585 q 52 646 44 625 q 61 688 60 667 q 75 706 69 694 q 88 728 81 718 q 105 747 96 739 q 129 754 114 754 q 161 778 140 775 q 199 788 182 781 q 239 782 219 783 q 278 781 258 781 q 311 767 296 775 q 342 751 326 758 q 353 734 350 743 q 360 715 357 725 q 367 697 364 706 q 378 679 371 688 q 390 619 388 651 q 400 560 393 588 m 278 99 q 285 51 281 75 q 285 3 289 26 q 294 -26 290 -10 q 306 -56 299 -42 q 303 -64 306 -60 q 294 -64 300 -68 q 232 -18 251 -53 q 219 -22 224 -14 q 207 -28 215 -29 q 194 -6 204 -15 q 176 15 185 4 q 167 14 169 21 q 158 11 165 7 q 147 62 153 36 q 150 115 142 88 q 148 128 150 121 q 144 141 146 135 q 144 153 143 147 q 153 163 146 158 q 163 155 160 161 q 172 143 165 149 q 192 128 186 138 q 210 111 197 119 q 216 121 215 114 q 225 128 217 128 q 257 92 246 114 q 267 100 263 94 q 278 99 271 106 z "},"&":{"ha":526,"x_min":51,"x_max":519,"o":"m 296 779 q 322 761 308 768 q 343 738 336 754 q 363 722 358 735 q 378 700 368 710 l 383 706 q 385 692 381 697 q 392 679 390 686 q 400 656 399 668 q 401 631 401 643 q 407 623 407 628 q 403 615 407 618 q 393 620 396 614 q 383 628 390 626 q 370 624 376 625 q 360 615 364 622 q 357 592 356 604 q 350 574 358 581 q 328 588 333 576 q 302 556 308 575 q 289 519 296 538 l 279 519 q 281 528 278 524 q 276 536 283 533 q 272 593 276 564 q 254 644 267 622 q 235 655 246 656 q 214 657 224 654 q 190 625 200 643 q 188 585 181 607 q 188 549 186 569 q 197 513 190 529 q 224 485 208 497 q 260 479 240 472 q 301 474 282 471 q 342 478 321 478 q 381 469 360 478 l 472 476 q 481 467 475 468 q 493 469 486 467 q 507 471 500 471 q 519 464 514 471 q 512 455 519 456 q 501 449 504 454 q 474 424 486 438 q 449 401 463 411 q 456 394 450 397 q 466 388 461 390 q 473 381 471 385 q 469 371 475 376 q 442 329 446 356 q 427 331 435 331 q 413 328 419 331 q 411 279 401 303 q 413 242 414 261 q 411 204 411 224 q 412 183 411 193 q 415 161 413 172 q 408 132 411 147 q 414 101 406 117 q 404 78 410 90 q 400 51 399 65 q 385 38 389 46 q 380 22 382 31 q 374 7 378 14 q 360 -4 371 0 q 342 -19 353 -15 q 318 -24 331 -22 q 294 -29 306 -26 q 274 -40 282 -32 q 253 -37 263 -40 q 232 -40 243 -33 q 178 -36 204 -39 q 135 -12 153 -33 q 117 -3 124 -11 q 103 13 110 4 q 90 31 97 22 q 74 43 83 39 l 61 65 q 63 106 69 85 q 58 149 56 128 q 58 156 54 150 q 58 167 61 161 q 56 240 64 199 q 58 267 56 256 q 53 293 60 279 q 65 339 60 317 q 86 382 71 361 q 88 394 83 389 q 98 406 93 400 q 106 417 103 411 q 103 431 108 422 q 78 457 92 446 q 60 483 64 468 q 53 529 54 507 q 51 575 51 551 q 52 606 51 590 q 53 638 53 622 q 59 655 56 646 q 64 675 63 664 q 58 683 60 678 q 53 693 56 689 q 72 709 60 704 q 81 729 83 714 q 99 740 89 735 q 113 757 108 746 q 132 765 122 763 q 151 768 142 767 q 171 772 161 769 q 189 783 181 775 q 202 785 196 782 q 214 792 208 789 q 225 794 219 794 q 238 786 231 794 q 266 782 253 779 q 296 779 279 785 m 206 344 q 192 322 194 335 q 192 294 190 308 q 190 262 189 279 q 189 231 192 244 q 197 175 199 204 q 203 119 196 146 q 213 106 208 113 q 226 97 217 100 q 247 95 235 94 q 265 101 258 96 q 269 133 275 121 q 276 178 272 153 q 274 224 279 204 q 275 243 276 233 q 271 263 274 253 q 270 302 272 282 q 258 339 268 322 q 245 347 251 346 q 233 345 239 347 q 219 342 226 343 q 206 344 213 340 z "},"~":{"ha":589,"x_min":57,"x_max":531,"o":"m 522 511 q 504 465 511 488 q 479 422 497 442 l 481 419 q 494 422 488 421 q 508 417 501 422 q 499 386 507 401 q 503 360 492 371 q 474 327 497 335 q 432 311 451 319 q 392 310 413 313 q 354 319 372 308 l 349 313 q 336 319 344 319 q 321 325 328 319 q 288 344 306 336 q 256 361 271 351 q 214 364 236 369 q 176 343 192 358 q 160 324 165 338 q 144 313 156 311 q 126 258 129 290 q 119 258 122 254 q 113 275 122 271 q 104 289 104 279 l 106 342 q 94 344 100 351 q 82 343 89 338 q 88 369 83 357 q 90 396 93 382 q 85 393 88 396 q 79 394 82 390 q 74 396 76 397 q 69 392 71 394 q 64 390 67 390 q 57 393 61 389 q 66 410 64 400 q 75 428 68 419 q 115 467 96 447 q 164 494 135 488 q 191 515 175 507 q 225 517 207 522 q 246 511 236 515 q 265 503 256 507 q 284 495 275 499 q 303 493 293 492 q 319 481 311 489 q 333 467 326 474 q 349 456 340 460 q 369 453 358 451 q 392 452 381 454 q 415 450 404 450 q 435 453 425 450 q 451 468 444 456 q 485 488 469 475 q 507 521 500 501 q 520 525 510 528 q 522 511 531 522 z "},"*":{"ha":621,"x_min":56,"x_max":574,"o":"m 399 740 q 410 717 404 729 q 413 692 415 706 q 418 690 415 686 q 425 694 421 694 q 435 705 429 700 q 439 719 442 710 q 447 721 442 722 q 453 713 453 719 q 460 694 458 703 q 467 676 463 686 q 453 637 460 656 q 440 596 447 618 q 463 587 447 582 q 490 590 479 592 q 519 585 506 583 q 550 586 532 588 q 567 588 558 594 q 569 578 574 585 q 547 559 553 572 q 533 535 542 546 q 516 522 525 528 q 497 510 507 517 q 513 498 504 503 q 524 483 521 493 q 515 474 521 476 q 513 463 510 471 q 474 451 493 456 q 433 444 454 447 q 443 419 435 431 q 460 398 451 408 q 478 376 469 388 q 490 350 486 364 q 499 331 490 339 q 513 313 507 322 q 527 292 515 299 q 542 269 539 285 l 535 267 q 503 276 519 272 q 476 289 486 279 q 466 292 471 289 q 456 299 461 296 q 445 302 450 301 q 435 297 440 303 q 421 297 426 294 q 410 305 415 300 q 401 316 406 310 q 390 326 396 322 q 383 322 385 326 q 380 315 381 318 q 377 310 379 311 q 369 313 375 308 q 369 319 368 314 q 365 324 371 325 l 333 375 l 329 375 q 296 326 308 353 q 264 276 283 300 q 259 249 267 261 q 250 221 251 236 q 244 219 246 221 q 242 213 243 217 q 239 208 240 210 q 233 207 238 206 q 224 228 226 218 q 217 254 221 239 q 219 259 222 257 q 218 264 215 261 q 219 276 218 269 q 214 282 221 282 q 208 289 211 288 q 199 286 204 289 q 189 289 193 283 q 188 314 183 303 q 188 339 192 325 q 172 342 182 343 q 157 350 161 342 q 192 392 176 368 q 222 439 208 415 q 190 441 207 442 q 158 440 174 440 q 131 442 144 440 q 106 450 118 443 q 81 448 93 453 q 56 446 68 443 q 60 456 56 453 q 71 463 65 460 q 82 472 76 467 q 88 485 88 476 q 99 494 99 488 q 98 507 100 500 q 97 519 96 514 q 113 525 99 525 q 122 528 117 528 q 132 532 128 529 q 124 540 124 532 q 124 554 125 549 l 126 557 q 113 564 122 561 q 107 575 104 567 q 135 582 121 578 q 165 583 150 586 l 192 585 q 173 618 185 601 q 150 651 161 635 q 135 662 144 658 q 129 676 126 665 q 138 681 132 681 q 143 689 143 682 q 105 725 125 707 q 69 763 85 743 q 88 766 76 768 q 108 761 100 764 q 162 740 135 747 q 210 714 189 733 q 217 719 217 715 q 218 726 218 722 q 219 734 218 731 q 225 739 219 738 q 258 716 240 728 q 278 683 276 704 q 292 663 289 676 q 304 639 296 650 q 315 651 313 643 q 321 667 318 658 q 328 681 324 675 q 343 690 332 688 q 349 710 343 701 q 363 725 356 719 q 365 772 378 747 q 370 776 367 778 q 376 775 374 775 l 399 740 z "},"(":{"ha":358,"x_min":50,"x_max":374,"o":"m 229 869 q 210 822 219 847 q 208 774 201 797 q 224 782 215 778 q 242 783 232 786 q 240 766 236 774 q 250 751 244 758 q 258 738 256 744 q 256 724 261 732 q 244 707 246 717 q 240 689 243 697 q 222 636 232 661 q 207 583 211 611 q 192 556 196 572 q 194 525 188 540 q 183 479 183 501 q 182 433 182 457 q 182 413 182 422 q 179 392 182 403 q 190 304 186 349 q 200 215 193 260 q 228 133 217 174 q 258 51 239 92 q 261 28 256 38 q 274 8 267 18 q 286 -11 281 -1 q 290 -33 292 -21 q 327 -82 308 -58 q 368 -128 346 -106 q 364 -142 374 -137 q 342 -139 353 -143 q 323 -128 332 -135 q 305 -116 314 -122 q 286 -107 296 -110 l 274 -97 q 272 -109 271 -103 q 265 -118 272 -115 q 249 -109 258 -112 q 230 -101 239 -106 q 213 -91 221 -97 q 203 -74 206 -85 q 199 -78 200 -75 q 197 -84 197 -81 q 193 -88 196 -87 q 186 -86 190 -89 q 177 -71 183 -78 q 165 -57 171 -64 q 156 -42 160 -50 q 151 -22 151 -33 q 117 38 128 6 q 89 101 106 71 q 86 124 88 113 q 88 146 85 135 q 82 170 86 158 q 74 194 78 182 q 67 217 69 206 q 68 242 65 229 q 54 283 53 261 q 50 325 56 304 q 56 373 57 347 q 61 422 54 399 q 50 472 50 444 q 56 518 50 496 q 68 563 61 540 q 70 587 65 576 q 81 608 75 597 q 92 628 88 618 q 94 654 97 639 q 113 695 110 672 q 128 736 117 718 q 127 753 132 744 q 129 769 122 763 q 147 783 136 779 q 157 801 158 788 q 173 825 164 815 q 186 849 182 835 q 194 853 192 850 q 198 860 196 857 q 203 865 200 864 q 211 863 206 867 q 215 873 210 869 q 224 881 219 876 q 231 877 229 882 q 229 869 232 872 z "},")":{"ha":379,"x_min":6,"x_max":329,"o":"m 150 -131 q 169 -82 160 -107 q 171 -33 178 -57 q 156 -42 164 -37 q 138 -44 147 -47 q 139 -27 143 -35 q 129 -12 135 -19 q 120 1 124 -6 q 124 17 117 8 q 135 33 133 24 q 139 51 136 43 q 158 104 147 79 q 172 157 168 129 q 188 184 183 168 q 185 215 192 200 q 197 260 196 238 q 197 307 197 283 q 197 328 197 318 q 200 349 197 338 q 190 436 194 392 q 179 525 186 481 q 151 608 163 567 q 121 689 140 649 q 118 713 124 703 q 106 731 113 722 q 92 750 99 740 q 89 774 86 760 q 52 822 71 797 q 11 868 33 846 q 17 881 6 876 q 38 878 28 882 q 56 868 47 874 q 74 856 65 863 q 93 847 83 850 l 106 836 q 108 848 108 842 q 114 857 107 854 q 131 848 121 851 q 149 840 140 844 q 166 830 158 836 q 176 813 174 824 q 181 817 179 814 q 183 824 182 821 q 186 828 183 826 q 193 826 189 829 q 202 811 196 818 q 214 797 208 804 q 224 781 219 789 q 228 761 228 772 q 263 701 251 733 q 290 638 274 669 q 293 617 292 628 q 292 594 294 606 q 297 569 293 582 q 306 546 301 557 q 312 522 310 535 q 311 497 314 510 q 322 478 319 489 q 326 458 325 468 q 326 436 326 447 q 329 415 326 425 q 324 366 324 392 q 318 317 325 340 q 327 292 325 306 q 329 267 329 279 q 324 221 329 243 q 311 176 318 199 q 309 152 314 163 q 298 132 304 142 q 287 111 292 122 q 285 86 282 100 q 266 45 269 68 q 251 3 263 22 q 252 -13 247 -4 q 251 -31 257 -22 q 232 -43 243 -39 q 222 -62 221 -47 q 206 -85 215 -76 q 193 -110 197 -94 q 185 -114 188 -110 q 181 -122 183 -118 q 176 -126 179 -125 q 168 -122 174 -126 q 165 -133 169 -129 q 156 -142 160 -137 q 149 -137 150 -142 q 150 -131 147 -133 z "},"[":{"ha":364,"x_min":51,"x_max":339,"o":"m 328 903 q 318 897 325 896 q 307 892 311 897 q 276 874 293 881 q 251 847 260 867 l 267 832 q 272 831 268 835 l 272 824 l 244 815 q 247 806 244 811 q 251 797 249 801 q 252 789 253 793 q 244 783 251 785 l 194 779 q 185 742 188 761 q 188 706 182 724 q 188 683 189 694 q 186 658 188 671 q 185 634 185 646 q 192 611 186 622 q 189 586 189 599 q 189 560 189 574 q 193 472 189 515 q 194 386 197 428 q 196 351 196 368 q 196 319 196 335 q 197 288 196 304 q 200 254 197 272 q 194 232 194 243 q 196 209 194 221 q 198 185 197 197 q 194 163 199 174 q 199 106 194 135 q 201 50 203 78 q 228 49 214 46 q 256 51 242 53 q 281 49 268 53 q 304 51 293 44 q 322 49 313 49 q 339 44 331 49 q 324 30 338 33 q 300 19 310 26 q 278 3 292 7 q 258 -15 265 -1 q 266 -28 258 -24 q 278 -37 274 -33 q 283 -35 281 -35 q 285 -39 285 -36 q 276 -49 285 -46 q 275 -61 267 -53 q 281 -68 278 -64 q 276 -75 283 -72 q 270 -74 272 -74 q 265 -69 268 -75 q 258 -77 265 -78 q 244 -79 251 -76 q 208 -82 229 -85 q 171 -92 186 -79 q 154 -83 161 -93 q 137 -83 146 -81 q 119 -88 128 -85 q 103 -93 111 -92 q 86 -90 94 -94 q 81 -91 83 -92 q 76 -92 79 -90 q 81 -81 75 -85 q 90 -78 86 -78 q 90 -56 92 -67 q 85 -33 88 -44 q 83 -10 83 -22 q 88 14 83 1 q 84 99 83 57 q 79 185 85 140 q 81 227 82 204 q 69 268 79 250 q 65 326 58 296 q 75 386 71 357 q 72 451 71 418 q 65 513 74 483 q 64 549 63 532 q 65 585 65 567 q 64 609 65 597 q 57 633 63 621 q 63 661 61 647 q 64 690 64 675 q 63 732 64 711 q 61 772 61 753 q 62 785 68 779 q 56 799 56 792 q 58 823 57 810 q 60 850 60 836 q 53 893 60 875 q 52 906 53 900 q 58 918 51 913 l 65 914 q 103 913 85 914 q 139 919 121 913 q 185 914 160 914 q 211 915 199 914 q 235 917 224 915 q 268 917 251 914 q 301 921 285 919 q 317 917 313 924 q 328 903 322 910 z "},"]":{"ha":350,"x_min":18,"x_max":306,"o":"m 29 -101 q 39 -95 32 -94 q 50 -90 46 -96 q 81 -72 64 -79 q 107 -46 99 -65 l 90 -31 q 86 -29 89 -32 l 86 -22 l 113 -14 q 111 -5 114 -10 q 106 4 108 0 q 105 13 104 8 q 113 18 106 17 l 164 22 q 173 59 171 40 q 169 96 175 78 q 171 142 167 117 q 165 190 175 168 q 168 217 168 204 q 168 244 168 231 q 164 331 168 288 q 163 415 160 375 q 161 449 161 433 q 161 481 161 465 q 161 513 161 496 q 158 547 161 529 q 164 569 164 557 q 162 592 164 581 q 159 616 160 604 q 163 639 158 628 q 160 695 164 667 q 157 751 156 724 q 129 752 143 756 q 103 750 115 749 q 77 753 90 749 q 53 750 64 757 q 36 753 44 753 q 18 757 28 753 q 33 772 19 768 q 57 782 47 775 q 78 799 65 794 q 99 817 92 803 q 92 830 100 825 q 81 839 85 835 q 72 840 75 833 q 81 851 72 847 q 82 863 90 854 q 77 869 81 865 q 81 876 74 874 q 88 876 85 875 q 92 871 90 876 q 99 878 92 879 q 113 881 107 878 q 150 883 129 886 q 186 893 171 881 q 204 885 194 894 q 221 884 213 882 q 238 890 229 886 q 254 894 246 893 q 272 892 263 896 q 276 892 275 893 q 281 893 278 892 q 277 883 283 886 q 268 879 271 879 q 267 857 265 868 q 272 835 269 846 q 274 812 274 824 q 269 788 274 800 q 274 703 275 744 q 278 617 274 661 q 277 574 276 597 q 288 533 278 551 q 292 475 299 506 q 283 415 286 444 q 285 382 286 399 q 285 350 285 365 q 286 319 285 335 q 292 289 288 304 q 294 252 294 269 q 293 218 293 235 q 294 193 293 206 q 301 168 296 181 q 293 108 293 139 q 294 69 293 89 q 297 29 296 49 q 296 16 290 22 q 301 3 301 10 q 299 -21 300 -8 q 299 -47 299 -33 q 300 -69 299 -58 q 306 -92 301 -81 q 305 -105 304 -99 q 300 -117 306 -111 l 292 -112 q 254 -112 272 -112 q 219 -118 236 -111 q 174 -112 199 -112 q 147 -113 160 -112 q 122 -115 135 -114 q 90 -115 107 -112 q 57 -119 74 -118 q 40 -115 46 -122 q 29 -101 35 -108 z "},"<":{"ha":469,"x_min":32,"x_max":460,"o":"m 308 879 q 299 849 307 863 q 292 819 292 835 q 302 822 297 818 q 311 831 307 826 q 319 838 315 835 q 331 836 324 840 q 340 822 340 829 q 336 807 339 815 q 331 790 333 799 q 336 775 329 782 q 347 774 342 774 q 354 764 353 774 q 344 731 353 747 q 325 698 336 714 q 303 665 314 682 q 285 631 292 649 q 276 610 282 619 q 264 590 271 600 q 252 570 257 581 q 247 549 247 560 q 213 494 228 521 q 186 436 197 468 q 200 398 189 414 q 219 363 211 382 q 236 337 226 347 q 257 314 246 326 q 297 250 271 279 q 339 186 324 221 q 397 108 369 149 q 458 35 424 67 q 458 26 460 31 q 453 19 457 21 q 442 24 447 26 q 432 29 436 21 q 427 37 432 33 q 419 43 422 40 q 402 42 410 39 q 387 50 394 44 q 372 61 379 56 q 356 67 364 67 q 354 56 351 63 q 349 50 357 49 q 314 70 328 57 q 281 94 300 83 q 278 80 278 89 q 272 67 279 71 q 262 76 264 67 q 250 86 260 86 q 211 160 236 125 q 163 231 186 196 q 117 289 139 258 q 79 350 96 319 q 60 368 71 358 q 53 393 49 378 q 40 408 49 404 q 33 424 32 411 q 38 444 33 435 q 49 461 43 453 q 63 477 56 469 q 72 494 69 485 q 83 515 81 504 q 89 537 86 526 q 97 558 92 547 q 114 575 101 568 q 137 617 122 597 q 161 658 151 638 q 179 694 172 675 q 201 728 186 714 q 220 765 210 749 q 239 800 231 781 q 256 819 250 808 q 265 842 261 831 q 274 866 269 854 q 286 889 278 878 q 298 885 292 885 q 308 879 304 886 z "},">":{"ha":467,"x_min":11,"x_max":438,"o":"m 163 -22 q 171 7 164 -7 q 179 36 178 21 q 168 33 172 38 q 160 25 164 29 q 151 19 156 21 q 140 21 146 17 q 130 34 129 26 q 133 49 131 42 q 138 65 136 57 q 133 81 140 74 q 124 83 129 83 q 117 93 118 83 q 126 126 118 110 q 146 158 135 142 q 168 192 157 175 q 186 226 179 208 q 206 267 190 249 q 224 308 222 285 q 258 362 243 336 q 283 419 272 388 q 270 459 282 443 q 250 494 258 475 q 234 520 243 510 q 214 543 225 531 q 173 606 200 578 q 132 669 146 635 q 74 749 101 707 q 11 822 47 790 q 13 831 11 826 q 17 836 14 835 q 29 833 24 829 q 38 828 35 836 q 44 819 39 822 q 51 814 49 817 q 68 815 60 818 q 83 807 76 813 q 98 796 90 801 q 114 789 106 790 q 116 800 118 793 q 122 807 114 807 q 156 787 142 800 q 190 763 171 774 q 192 776 193 768 q 197 790 192 785 q 208 780 207 789 q 221 771 210 771 q 259 696 235 732 q 307 626 283 660 q 352 568 331 599 q 392 506 374 538 q 410 488 399 497 q 417 464 421 479 q 430 449 422 453 q 438 432 438 446 q 433 413 438 421 q 422 396 428 404 q 408 379 415 388 q 399 361 401 371 q 388 341 390 351 q 382 319 385 331 q 374 299 379 308 q 357 282 369 289 q 333 240 347 260 q 310 197 319 219 q 292 162 299 181 q 268 128 285 143 q 251 92 261 108 q 231 56 240 76 q 204 14 210 39 q 183 -32 199 -11 q 173 -30 179 -29 q 163 -22 167 -31 z "},"{":{"ha":396,"x_min":43,"x_max":381,"o":"m 375 888 q 368 878 374 881 q 363 868 363 875 q 333 851 347 861 q 307 828 319 840 l 321 813 l 304 796 q 331 780 315 785 q 358 768 346 775 l 360 765 q 353 761 357 763 q 343 757 349 760 q 300 758 322 760 q 265 738 278 756 q 242 690 256 711 q 242 667 243 679 q 236 640 242 654 q 247 601 236 619 q 257 560 258 582 q 277 511 275 538 q 271 463 279 485 q 258 445 261 454 q 254 428 256 436 q 249 411 253 419 q 235 397 246 403 q 259 375 246 388 q 279 349 272 363 q 283 331 279 339 q 290 314 286 322 q 292 297 293 306 q 282 281 292 289 q 271 233 276 258 q 254 189 265 208 q 251 171 254 179 q 244 154 247 163 q 239 137 240 146 q 242 118 238 128 q 237 104 239 111 q 239 89 235 97 q 250 67 246 78 q 269 51 254 57 q 299 35 285 40 q 331 25 314 31 l 336 18 q 323 10 331 8 q 308 6 315 13 q 324 -5 315 -3 q 340 -14 333 -7 q 332 -24 338 -19 q 321 -33 326 -29 q 351 -53 336 -44 q 379 -72 367 -61 q 381 -79 381 -76 q 378 -86 381 -82 q 346 -97 361 -94 q 316 -98 331 -99 q 286 -97 301 -97 q 253 -100 271 -96 q 215 -92 233 -101 q 179 -75 197 -82 q 140 -18 153 -53 q 115 6 122 -11 q 108 40 108 24 q 106 100 101 69 q 108 160 111 131 q 115 177 115 167 q 117 196 114 188 q 131 216 126 206 q 138 238 136 226 q 142 261 140 250 q 150 283 144 272 q 145 305 147 293 q 129 318 143 317 q 102 320 117 324 q 74 322 88 317 q 63 321 68 315 q 58 343 58 332 q 56 365 58 354 q 63 386 56 378 q 64 406 71 394 q 51 420 60 414 q 47 433 43 426 q 73 445 60 442 q 101 451 86 449 q 110 463 103 460 q 124 470 117 467 q 135 479 131 474 q 136 496 139 485 q 129 515 133 506 q 119 531 125 524 q 126 547 121 539 q 126 563 131 554 q 113 579 117 568 q 104 599 110 590 q 108 618 111 610 q 108 638 104 626 q 103 670 96 653 q 117 703 110 688 q 114 733 111 718 q 123 761 117 747 q 138 788 129 775 q 156 814 147 801 q 170 824 161 818 q 179 842 179 831 q 205 867 190 857 q 239 875 219 878 q 253 880 247 872 q 269 889 260 888 q 313 890 290 889 q 358 893 336 890 q 375 888 369 893 z "},"}":{"ha":413,"x_min":39,"x_max":378,"o":"m 46 -60 q 53 -50 47 -53 q 58 -40 58 -47 q 88 -23 74 -33 q 114 0 101 -12 l 100 15 l 117 32 q 90 48 106 43 q 63 60 75 53 l 61 63 q 68 67 64 65 q 78 71 72 68 q 121 70 99 68 q 156 90 143 72 q 179 138 165 117 q 178 161 178 149 q 185 188 179 174 q 181 208 185 197 q 174 228 178 218 q 166 247 169 238 q 164 268 163 257 q 144 317 146 290 q 150 365 142 343 q 163 381 160 372 q 167 399 165 390 q 172 417 168 408 q 186 431 175 425 q 162 453 175 440 q 142 479 149 465 q 138 497 142 489 q 131 514 135 506 q 128 531 128 522 q 139 547 129 539 q 150 594 144 569 q 167 639 156 619 q 170 657 167 649 q 177 674 174 665 q 182 691 181 682 q 179 710 183 700 q 184 724 182 717 q 182 739 186 731 q 171 760 175 750 q 151 776 167 771 q 122 792 136 788 q 90 803 107 797 l 85 810 q 98 817 90 819 q 113 822 106 815 q 97 833 106 831 q 81 842 88 835 q 89 852 83 847 q 100 861 94 857 q 69 881 85 872 q 42 900 54 889 q 43 914 39 908 q 75 924 60 922 q 105 926 90 926 q 135 924 119 925 q 168 928 150 924 q 206 919 188 929 q 242 903 224 910 q 281 846 268 881 q 306 822 299 839 q 313 788 313 804 q 315 728 319 758 q 313 668 310 697 q 306 651 306 661 q 304 632 307 640 q 289 612 293 622 q 283 590 285 601 q 278 567 281 578 q 271 544 276 556 q 276 523 274 535 q 292 510 278 511 q 319 508 304 504 q 347 506 333 511 q 358 507 353 513 q 363 485 363 496 q 365 463 363 474 q 358 442 365 450 q 357 422 350 433 q 369 408 361 414 q 374 394 378 401 q 348 383 361 386 q 319 376 335 379 q 311 365 318 368 q 297 358 304 361 q 286 349 290 354 q 285 332 282 343 q 292 313 288 322 q 301 297 296 304 q 295 281 300 289 q 294 265 290 274 q 308 249 304 260 q 317 229 311 238 q 313 210 310 218 q 313 190 317 201 q 318 158 325 175 q 304 125 311 140 q 307 95 310 110 q 298 67 304 81 q 283 40 292 53 q 265 14 274 26 q 251 3 260 10 q 242 -14 242 -3 q 216 -40 231 -29 q 182 -47 201 -50 q 167 -52 174 -44 q 151 -61 161 -60 q 108 -62 131 -61 q 63 -65 85 -62 q 46 -60 51 -65 z "},"":{"ha":931,"x_min":51,"x_max":890,"o":"m 546 811 q 562 810 554 808 q 578 815 569 813 q 594 817 586 817 q 610 811 601 817 q 632 799 621 807 q 653 783 643 792 q 692 771 676 786 q 724 743 707 756 q 763 711 747 732 q 792 669 778 690 q 822 643 811 661 q 835 607 832 625 q 855 571 849 589 q 865 534 861 553 q 871 495 868 515 q 881 454 874 475 q 879 435 879 447 q 890 426 889 432 q 888 414 890 421 q 884 400 886 407 q 888 388 882 393 q 855 283 878 331 q 806 183 832 236 q 778 156 788 172 q 754 128 769 139 q 741 106 750 117 q 729 82 732 96 q 698 67 710 75 q 664 61 686 58 q 638 47 653 50 q 611 35 622 44 q 550 19 582 29 q 486 13 518 8 q 446 10 467 11 q 403 8 425 8 q 343 13 374 8 q 333 27 339 22 q 321 35 328 32 q 306 39 314 38 q 292 43 299 40 q 278 54 286 50 q 261 63 269 58 q 246 72 253 67 q 236 88 239 76 q 193 123 210 100 q 157 169 176 146 q 128 192 143 181 q 110 222 114 203 q 102 244 113 236 q 88 264 92 253 q 79 301 85 283 q 74 339 74 319 q 57 390 63 361 q 67 442 51 419 q 65 482 71 463 q 67 521 58 501 q 80 546 76 533 q 85 572 83 558 q 92 598 88 585 q 108 622 96 611 q 114 642 108 633 q 127 659 119 651 q 142 675 135 667 q 150 694 149 683 q 174 713 163 704 q 192 736 186 721 q 217 753 203 747 q 238 776 232 760 q 269 790 253 786 q 301 806 286 794 q 319 807 311 803 q 334 816 326 811 q 349 824 342 821 q 367 825 357 828 q 390 827 378 822 q 411 839 401 832 q 446 833 428 832 q 482 835 464 835 q 516 831 500 835 q 546 811 532 826 m 438 707 q 404 703 418 714 q 373 694 388 701 q 343 676 358 686 q 313 657 328 667 q 282 643 299 647 q 267 623 279 628 q 247 606 254 618 q 229 575 244 586 q 204 549 214 564 l 203 515 q 192 495 193 506 q 192 474 192 485 q 193 453 193 464 q 186 432 193 442 q 194 403 192 417 q 197 377 196 390 q 201 351 199 364 q 213 325 204 338 q 225 291 222 308 q 238 258 228 274 q 251 252 247 257 q 256 240 254 247 q 258 226 257 233 q 263 215 258 219 l 264 217 q 295 194 278 203 q 326 169 313 185 q 339 162 332 164 q 353 158 346 160 q 365 152 360 156 q 375 140 371 149 q 419 134 396 138 q 464 136 442 131 q 492 147 475 150 q 522 143 510 143 q 545 148 532 147 q 572 151 558 149 q 595 159 585 153 q 610 181 606 165 q 656 213 638 192 q 697 253 674 235 q 711 292 700 274 q 732 329 722 310 q 736 344 738 336 q 743 358 735 351 q 753 377 754 368 q 749 395 753 386 q 743 414 746 404 q 749 435 740 424 q 749 456 750 444 q 744 478 747 467 q 740 501 742 489 q 743 524 739 513 l 719 549 q 702 583 715 568 q 681 614 689 599 q 668 636 678 629 q 647 649 658 643 q 625 660 636 654 q 607 678 614 665 q 567 685 585 676 q 531 700 550 693 q 494 699 511 700 q 461 704 478 699 q 447 701 453 704 q 438 707 440 697 m 518 640 q 527 638 522 639 q 538 635 532 636 q 550 618 546 626 q 561 600 554 610 q 563 565 564 583 q 558 531 561 547 q 565 521 565 526 q 568 508 565 515 q 565 488 565 499 q 558 469 565 476 q 542 438 557 450 q 511 418 526 425 q 516 408 514 414 q 522 397 518 403 q 523 388 521 392 q 528 379 525 383 q 533 371 531 375 q 533 361 535 367 q 542 350 538 354 q 544 339 546 346 q 576 292 564 317 q 607 246 588 267 q 619 229 610 235 q 632 215 628 224 q 628 213 631 213 q 625 215 626 214 q 619 219 622 218 q 614 222 617 219 q 602 228 608 228 q 590 232 596 228 q 584 227 585 233 q 578 225 583 221 q 547 246 565 242 q 540 244 542 249 q 535 242 539 239 l 531 249 q 524 249 528 249 q 522 253 521 250 q 523 260 529 257 q 517 269 517 264 q 485 317 501 292 q 458 367 469 342 q 454 372 456 369 q 450 376 453 374 l 449 371 q 449 332 451 353 q 454 294 447 311 q 459 253 454 274 q 475 213 464 232 q 471 210 475 206 q 458 224 461 214 q 443 236 454 233 q 436 238 440 238 q 432 233 432 239 q 429 228 433 232 q 417 247 422 236 q 403 267 411 258 q 396 260 399 264 q 388 257 393 256 q 387 278 389 268 q 386 300 385 289 q 383 344 383 324 q 383 389 383 365 q 381 407 381 397 q 383 428 382 417 q 381 458 376 443 q 381 489 386 474 q 380 510 378 500 q 378 529 382 519 q 378 543 381 536 q 376 558 375 550 q 360 562 369 563 q 343 563 351 561 q 335 560 340 557 q 338 567 335 564 q 342 574 342 569 q 338 578 339 575 q 338 582 336 581 q 331 585 336 589 q 325 588 326 582 q 316 587 321 592 q 307 588 311 582 q 328 608 314 603 q 353 625 343 613 q 356 626 353 624 q 347 632 353 632 q 343 639 340 632 q 356 642 350 643 q 369 646 363 642 q 397 644 382 642 q 422 645 408 646 q 447 647 436 644 q 483 644 464 640 q 518 640 503 649 m 461 572 q 453 565 456 569 q 451 556 451 560 q 451 527 454 540 q 453 499 449 514 q 460 490 451 488 q 474 488 469 492 q 486 495 478 492 q 490 507 494 499 q 491 536 493 522 q 490 565 489 550 q 477 574 486 572 q 461 572 468 576 z "},"":{"ha":936,"x_min":50,"x_max":889,"o":"m 544 811 q 560 810 553 808 q 576 815 568 813 q 592 817 585 817 q 608 811 600 817 q 631 799 619 807 q 651 783 642 792 q 690 771 675 786 q 722 743 706 756 q 761 711 746 732 q 790 669 776 690 q 820 643 810 661 q 833 607 831 625 q 853 571 847 589 q 863 534 860 553 q 869 495 867 515 q 879 454 872 475 q 878 435 878 447 q 888 426 888 432 q 887 414 889 421 q 883 400 885 407 q 886 388 881 393 q 853 283 876 331 q 804 183 831 236 q 777 156 786 172 q 753 128 768 139 q 740 106 749 117 q 728 82 731 96 q 697 67 708 75 q 663 61 685 58 q 636 47 651 50 q 610 35 621 44 q 549 19 581 29 q 485 13 517 8 q 444 10 465 11 q 401 8 424 8 q 342 13 372 8 q 332 27 338 22 q 319 35 326 32 q 305 39 313 38 q 290 43 297 40 q 276 54 285 50 q 260 63 268 58 q 244 72 251 67 q 235 88 238 76 q 192 123 208 100 q 156 169 175 146 q 127 192 142 181 q 108 222 113 203 q 101 244 111 236 q 86 264 90 253 q 78 301 83 283 q 72 339 72 319 q 56 390 61 361 q 65 442 50 419 q 63 482 69 463 q 65 521 57 501 q 78 546 75 533 q 84 572 82 558 q 90 598 86 585 q 107 622 94 611 q 113 642 107 633 q 126 659 118 651 q 140 675 133 667 q 149 694 147 683 q 173 713 161 704 q 190 736 185 721 q 216 753 201 747 q 236 776 231 760 q 268 790 251 786 q 300 806 285 794 q 317 807 310 803 q 333 816 325 811 q 348 824 340 821 q 365 825 356 828 q 388 827 376 822 q 410 839 400 832 q 444 833 426 832 q 481 835 463 835 q 515 831 499 835 q 544 811 531 826 m 436 707 q 403 703 417 714 q 372 694 386 701 q 342 676 357 686 q 312 657 326 667 q 281 643 297 647 q 265 623 278 628 q 246 606 253 618 q 228 575 243 586 q 203 549 213 564 l 201 515 q 191 495 192 506 q 191 474 190 485 q 192 453 192 464 q 185 432 192 442 q 192 403 190 417 q 196 377 194 390 q 200 351 197 364 q 211 325 203 338 q 224 291 221 308 q 236 258 226 274 q 249 252 246 257 q 254 240 253 247 q 256 226 256 233 q 261 215 257 219 l 263 217 q 294 194 276 203 q 325 169 311 185 q 338 162 331 164 q 351 158 344 160 q 364 152 358 156 q 374 140 369 149 q 417 134 394 138 q 463 136 440 131 q 491 147 474 150 q 521 143 508 143 q 544 148 531 147 q 570 151 557 149 q 594 159 583 153 q 608 181 604 165 q 654 213 636 192 q 696 253 672 235 q 710 292 699 274 q 731 329 721 310 q 735 344 736 336 q 742 358 733 351 q 752 377 753 368 q 748 395 751 386 q 742 414 744 404 q 747 435 739 424 q 747 456 749 444 q 743 478 746 467 q 739 501 740 489 q 742 524 738 513 l 718 549 q 701 583 714 568 q 679 614 688 599 q 667 636 676 629 q 646 649 657 643 q 624 660 635 654 q 606 678 613 665 q 566 685 583 676 q 529 700 549 693 q 493 699 510 700 q 460 704 476 699 q 445 701 451 704 q 436 707 439 697 m 513 633 q 520 628 519 633 q 528 621 521 622 q 541 609 538 618 q 556 600 544 600 q 571 578 572 590 q 575 550 569 565 q 576 531 574 539 q 572 513 578 522 q 566 503 571 504 q 556 502 561 501 q 547 501 551 503 q 543 492 543 500 q 540 485 543 486 q 535 478 538 483 q 522 465 524 476 q 508 451 519 453 q 503 445 507 447 q 497 442 500 443 q 492 438 494 440 q 490 431 489 436 q 481 429 485 422 q 478 458 479 443 q 471 486 478 472 q 476 507 476 497 q 471 528 475 517 q 463 532 467 529 q 456 538 460 535 q 449 541 453 540 q 440 539 446 542 q 433 524 438 532 q 422 513 429 517 q 419 490 418 501 q 414 467 421 478 q 418 431 421 449 q 421 393 415 413 q 419 375 419 383 q 415 360 419 367 q 424 339 418 349 q 421 319 429 329 q 430 312 425 317 q 439 307 435 307 q 453 307 446 310 q 465 311 460 304 q 470 316 469 313 q 471 324 471 319 q 472 331 471 328 q 478 336 474 335 q 478 351 481 343 q 483 361 476 358 q 492 351 488 358 q 504 351 497 344 q 515 353 510 354 q 526 350 521 351 q 537 349 532 349 q 546 356 542 349 q 553 364 550 358 q 558 374 556 369 q 565 381 561 379 q 575 381 568 383 q 578 351 576 367 q 579 321 579 336 q 578 296 579 308 q 571 272 576 283 q 558 258 565 264 q 544 242 550 251 q 519 226 532 233 q 488 219 506 218 q 472 214 479 219 q 456 217 464 208 q 417 215 436 210 q 383 231 399 219 q 354 242 365 228 q 332 268 343 257 q 330 283 335 278 q 324 294 325 288 q 328 336 328 314 q 324 376 329 358 q 322 391 326 383 q 314 406 317 399 q 316 426 314 417 q 319 446 318 435 l 318 517 q 328 536 321 528 q 332 556 336 544 q 349 578 340 567 q 363 603 358 589 q 369 612 365 607 q 378 615 372 617 q 390 613 383 611 q 401 617 396 614 q 413 623 407 619 q 425 625 418 626 q 441 628 435 622 q 457 632 447 635 q 476 629 467 635 q 496 624 485 626 q 513 633 507 622 z "},"@":{"ha":974,"x_min":56,"x_max":919,"o":"m 610 833 q 633 826 622 832 q 660 822 644 819 q 685 806 671 813 q 714 796 700 799 q 775 742 749 775 q 835 683 801 710 q 844 667 838 674 q 859 653 851 660 q 873 638 867 646 q 881 621 879 631 q 888 585 878 601 q 901 551 897 568 q 903 522 900 536 q 910 492 907 507 q 916 463 914 478 q 914 433 918 449 q 915 412 911 422 q 914 389 919 401 q 906 366 907 378 q 905 342 906 354 q 901 319 904 331 q 890 299 899 308 q 893 285 894 292 q 888 271 892 278 q 881 257 885 264 q 879 242 878 250 q 861 199 876 218 q 831 165 846 181 q 793 117 819 133 q 739 89 767 100 q 710 68 726 75 q 677 58 694 61 q 642 53 660 54 q 610 51 625 53 l 575 60 q 567 76 568 68 q 566 93 567 85 q 564 110 565 101 q 557 125 563 118 q 514 97 536 113 q 465 82 492 82 q 436 63 451 71 q 404 65 421 54 q 389 77 397 72 q 374 88 381 82 q 363 101 367 93 q 363 121 360 108 q 351 161 350 139 q 342 206 351 183 q 344 240 343 221 q 336 274 346 258 q 344 304 344 289 q 340 335 343 319 q 335 365 338 350 q 338 396 333 381 q 340 417 342 406 q 336 438 338 428 q 336 458 335 449 q 346 478 338 468 q 350 516 346 496 q 374 547 354 536 q 391 565 381 560 q 413 573 401 571 q 437 577 425 575 q 458 583 449 579 q 484 581 472 581 q 507 583 496 581 q 534 583 521 581 q 560 588 547 586 q 587 590 574 590 q 613 583 600 590 q 622 590 615 590 q 632 592 628 589 q 644 580 643 589 q 649 561 646 571 q 644 537 643 550 q 647 510 644 524 q 651 483 650 497 q 650 457 653 469 q 651 419 657 439 q 657 383 646 399 q 657 364 656 374 q 651 346 658 354 q 658 297 658 324 q 668 247 658 271 q 668 231 668 239 q 671 215 668 224 q 692 211 681 207 q 713 222 704 215 q 735 240 722 233 q 751 261 749 246 q 756 284 751 274 q 766 304 761 294 q 774 325 771 314 q 776 349 778 336 q 783 386 778 367 q 778 424 789 406 q 786 451 785 436 q 783 479 788 467 q 781 513 788 497 q 765 542 775 528 q 748 569 756 556 q 742 600 740 583 q 732 613 738 608 q 720 623 726 618 q 710 634 714 628 q 707 649 707 640 q 668 682 688 668 q 624 703 649 696 q 607 717 617 713 q 586 724 597 722 q 563 725 575 725 q 542 728 551 725 q 531 738 538 736 q 517 739 525 740 q 503 735 510 738 q 490 731 496 732 q 423 723 454 735 q 360 706 392 711 q 310 678 332 693 q 264 642 289 663 q 255 621 261 629 q 241 605 249 613 q 226 589 233 597 q 217 569 219 581 q 217 550 219 558 q 209 534 214 542 q 199 519 204 526 q 194 501 194 511 q 193 472 196 486 q 188 442 190 457 q 186 413 186 428 q 193 385 186 399 q 191 349 190 367 q 200 313 192 331 q 199 280 190 293 q 215 253 208 267 q 226 244 224 250 q 231 231 229 238 q 237 217 233 224 q 249 211 240 211 q 250 203 251 207 q 247 196 249 200 q 243 187 244 192 q 244 176 242 182 q 253 160 254 169 q 261 143 251 150 q 259 133 268 133 q 246 129 250 132 q 236 130 242 131 q 226 128 231 129 l 254 61 l 244 57 q 215 74 231 67 q 184 90 199 82 q 157 110 169 99 q 138 139 144 122 q 117 156 124 144 q 105 182 110 168 q 97 209 100 196 q 85 233 93 222 q 70 302 74 268 q 65 372 67 336 q 59 388 63 379 q 58 403 56 396 l 56 407 q 65 474 58 439 q 65 536 71 508 q 73 562 67 550 q 87 584 79 574 q 101 606 94 594 q 108 632 108 617 q 115 654 108 644 q 126 672 121 664 l 128 672 l 136 701 q 158 717 146 710 q 172 740 169 725 q 205 766 190 751 q 242 779 219 781 q 283 806 260 799 q 329 819 306 813 q 357 842 342 838 q 390 847 372 847 q 426 846 407 847 q 461 851 444 844 q 481 852 471 850 q 499 856 490 854 q 518 856 508 857 q 536 850 528 856 q 574 847 556 850 q 610 833 592 843 m 486 472 q 469 445 475 460 q 468 415 463 431 q 466 394 467 406 q 465 371 465 383 q 467 349 465 360 q 471 329 468 339 q 471 288 468 308 q 479 247 474 268 q 503 228 486 229 q 516 231 507 231 q 522 242 525 232 q 534 276 536 256 q 532 313 532 297 q 535 334 538 322 q 531 356 533 346 q 534 371 533 365 q 535 381 535 376 q 533 390 535 385 q 529 404 531 394 l 529 417 l 529 426 l 528 428 l 528 431 q 524 444 521 436 q 525 460 528 451 q 508 472 519 472 q 486 472 496 471 z "},"#":{"ha":658,"x_min":38,"x_max":643,"o":"m 194 921 q 236 874 214 897 q 272 824 258 851 q 281 837 279 828 q 294 844 283 846 l 297 839 q 304 796 297 819 q 303 756 301 776 q 301 717 304 736 q 310 710 306 710 q 319 713 314 711 q 328 716 324 715 q 339 711 333 717 q 364 711 350 714 q 385 719 378 708 q 381 731 383 725 q 376 742 379 738 q 382 759 382 750 q 380 778 382 768 q 376 797 378 788 q 379 817 375 807 l 376 824 q 394 819 388 829 q 410 810 400 810 q 410 832 410 821 q 411 854 411 843 q 410 890 411 872 q 403 924 408 908 q 414 928 403 931 q 439 878 424 903 q 465 825 454 853 q 478 827 472 818 q 489 839 483 836 q 497 822 496 832 q 506 806 497 813 q 505 754 504 781 q 510 704 506 728 q 543 708 526 697 q 566 708 553 708 q 588 714 579 707 q 594 710 592 714 q 603 708 597 706 q 613 707 606 706 q 624 703 621 708 q 594 683 608 692 q 567 658 579 674 q 578 651 569 650 q 590 644 588 653 q 575 634 583 640 q 563 619 567 628 q 563 601 565 610 q 549 593 561 593 q 525 592 538 590 q 510 582 513 593 q 510 563 517 571 q 504 543 504 554 l 517 519 q 513 495 514 507 q 519 472 513 483 q 579 474 550 471 q 636 474 608 476 q 640 474 638 472 q 643 472 642 476 q 630 462 640 464 q 618 449 619 460 q 595 431 604 442 q 571 414 586 419 q 586 392 583 404 q 597 369 589 381 q 590 362 597 363 q 579 360 582 361 l 524 354 l 521 333 q 523 297 528 318 q 522 258 518 276 q 523 211 519 232 q 521 164 526 190 q 535 115 529 140 q 551 67 542 90 q 540 68 544 60 q 528 74 535 76 q 513 94 518 82 q 492 113 507 107 q 483 105 485 110 q 476 93 481 100 q 465 99 465 90 q 457 114 464 108 q 435 142 440 125 q 421 174 431 158 q 415 166 415 172 q 407 163 415 160 q 400 203 400 182 q 403 242 400 224 q 397 266 397 253 q 392 290 396 279 q 387 315 394 307 q 386 338 379 324 q 351 340 367 342 q 319 335 336 338 q 317 324 315 331 q 310 319 318 317 q 313 301 315 310 q 309 285 311 293 q 307 270 307 278 q 315 254 307 263 q 317 224 318 239 q 322 193 315 208 q 326 128 321 161 q 332 64 331 96 q 322 61 326 57 q 314 68 318 65 q 308 76 310 71 q 300 83 307 82 q 278 125 296 104 q 264 130 272 128 q 250 128 256 132 q 243 119 250 121 q 231 115 236 118 q 221 124 224 118 q 215 136 218 131 q 206 147 207 140 q 204 161 204 154 q 201 174 204 168 q 189 183 199 181 q 192 223 196 204 q 193 261 188 242 q 188 296 186 278 q 186 331 190 314 q 175 339 183 338 q 160 338 167 340 q 99 333 126 338 q 40 333 72 329 q 38 336 40 336 q 60 357 46 347 q 89 372 75 367 q 82 385 90 382 q 76 399 74 388 q 99 405 88 401 q 122 414 111 408 q 118 420 121 417 q 112 427 115 424 q 108 435 108 431 q 110 444 107 439 q 101 461 99 450 q 120 465 110 465 q 141 465 131 465 q 160 468 151 465 q 175 481 169 471 q 173 527 176 504 q 172 574 169 550 q 137 576 156 575 q 99 578 118 578 q 50 572 71 578 l 47 579 q 88 607 74 586 q 94 610 94 604 q 96 619 93 615 q 113 628 103 624 q 121 643 124 632 q 124 663 121 654 q 121 678 126 671 q 112 685 117 681 q 110 696 107 690 q 142 700 125 700 q 174 703 158 700 q 181 727 183 714 q 178 756 179 740 q 178 791 179 771 q 175 828 178 811 q 165 835 171 832 q 164 846 160 839 q 173 848 168 849 q 183 847 178 847 q 192 848 188 847 q 199 854 196 849 q 188 889 193 871 q 176 922 183 907 q 184 928 178 933 q 194 921 190 922 m 349 583 q 328 574 335 583 q 318 576 321 571 q 308 576 315 582 q 305 525 301 551 q 306 472 308 499 q 347 479 326 483 q 388 471 368 475 q 388 503 382 488 q 383 536 393 518 q 388 559 388 547 q 383 582 389 571 l 381 579 q 364 574 374 576 q 349 583 354 572 z "},"=":{"ha":483,"x_min":39,"x_max":443,"o":"m 163 472 q 132 473 147 474 q 103 467 117 472 q 83 470 92 472 q 64 474 75 468 q 85 488 71 485 q 110 497 99 490 q 117 512 108 508 q 128 525 126 515 q 121 537 125 532 q 118 549 117 542 q 136 562 129 553 q 147 582 143 571 q 144 590 149 586 q 136 596 140 593 q 131 601 132 599 q 139 607 131 604 q 169 603 154 604 q 199 601 183 601 q 224 603 211 601 q 250 610 238 604 q 287 606 268 608 q 321 611 306 604 q 360 608 340 606 q 396 611 381 610 q 415 614 401 615 q 419 599 428 613 q 410 592 417 593 q 401 585 403 592 q 386 574 394 578 q 375 560 378 569 q 375 548 371 553 q 385 540 379 543 q 401 535 392 538 q 411 524 411 533 q 387 513 400 514 q 367 497 374 513 q 373 490 368 492 q 381 485 378 488 l 372 478 q 327 480 349 479 q 283 481 306 481 q 224 479 254 481 q 163 472 194 478 m 414 401 q 443 393 431 406 q 429 392 436 393 q 418 383 422 392 q 391 377 407 379 q 375 357 375 375 l 357 346 q 365 337 358 339 q 378 332 372 335 q 386 325 383 329 q 383 311 389 321 l 365 292 q 382 286 371 282 q 399 281 393 290 l 390 275 q 321 271 354 271 q 263 272 292 271 q 204 274 233 274 q 148 271 176 274 q 92 260 119 268 q 83 259 89 261 q 78 264 78 257 q 57 262 71 267 q 39 267 43 257 q 53 277 43 275 q 72 282 64 279 q 88 294 83 285 q 99 310 93 303 l 93 331 q 113 340 101 338 q 129 354 124 343 q 117 368 126 365 q 104 381 107 371 q 114 387 108 386 q 126 387 119 388 q 139 386 132 386 q 153 389 146 386 q 181 394 165 393 q 211 396 196 396 q 232 396 222 396 q 251 393 242 396 q 285 399 267 403 q 321 404 304 396 q 367 402 342 399 q 414 401 392 406 z "},"":{"ha":274,"x_min":65,"x_max":224,"o":"m 189 767 q 206 767 196 771 q 217 749 210 756 q 221 732 224 743 q 202 677 210 704 q 192 621 194 650 q 185 599 185 610 q 175 582 186 588 q 167 548 172 564 q 150 521 161 532 q 140 501 150 508 q 141 494 146 497 q 138 488 136 492 q 129 483 135 483 q 121 486 124 483 q 117 512 118 499 q 119 536 117 525 q 115 553 121 546 q 103 568 110 561 q 104 591 100 579 q 93 608 108 603 q 83 605 90 606 q 72 607 76 604 q 66 616 65 610 q 69 625 67 622 q 82 651 76 638 q 85 678 88 665 q 101 739 94 710 q 107 804 108 768 q 110 823 113 813 q 107 843 108 833 q 119 845 114 851 q 128 835 125 839 q 133 812 126 822 q 144 790 140 801 q 166 788 156 789 q 183 779 176 786 l 189 767 l 189 767 z "},"":{"ha":279,"x_min":63,"x_max":240,"o":"m 107 517 q 100 522 100 517 q 100 529 100 528 q 88 610 93 569 q 79 689 82 650 q 76 710 79 700 q 69 731 72 721 q 65 750 67 740 q 67 771 64 760 q 63 782 64 775 q 68 793 63 789 l 72 793 l 97 740 q 106 736 103 742 q 113 747 107 743 q 125 750 118 751 q 145 728 140 744 q 167 706 150 713 q 172 710 169 707 q 176 716 174 713 q 181 720 178 719 q 188 718 183 721 l 190 683 q 194 679 196 682 q 196 674 193 676 q 202 637 196 654 q 207 600 208 619 q 208 584 203 590 q 213 571 213 578 q 223 556 221 564 q 226 539 225 547 q 228 523 226 531 q 238 510 229 515 q 237 492 240 500 q 231 474 233 483 q 224 470 224 471 q 217 468 224 469 q 215 475 215 471 q 210 479 215 479 q 200 497 210 488 q 198 469 197 485 q 194 442 199 453 q 187 437 192 435 q 176 433 182 439 l 168 443 q 152 494 161 471 q 135 542 143 517 q 126 547 131 544 q 118 542 121 549 q 116 527 114 536 q 107 517 118 518 z "},"":{"ha":800,"x_min":68,"x_max":729,"o":"m 724 78 q 728 58 729 68 q 722 39 726 47 q 726 30 725 35 q 721 22 726 25 q 708 30 714 19 q 694 44 703 40 q 684 49 690 46 q 672 56 678 53 q 659 58 665 58 q 649 53 653 58 q 640 45 644 44 q 631 49 635 46 q 622 57 626 53 q 613 63 617 61 q 597 63 603 68 q 583 63 590 57 q 590 144 589 104 q 594 228 590 183 q 599 240 593 236 q 605 228 603 235 q 609 214 607 221 q 616 201 611 207 q 629 190 621 194 l 649 182 q 660 193 657 185 q 672 199 664 201 q 684 185 674 188 q 703 179 694 182 q 709 180 706 178 q 715 183 713 182 q 721 184 718 185 q 726 178 724 183 q 725 148 724 163 q 729 118 726 133 q 726 97 722 108 q 724 78 729 86 m 339 47 q 328 46 333 38 q 325 119 326 82 q 322 192 324 157 q 328 199 322 199 q 352 188 343 199 q 372 169 361 176 q 383 175 375 178 q 394 179 392 172 q 404 178 400 182 q 412 171 408 175 q 419 163 415 167 q 431 160 424 158 l 454 171 q 457 161 460 165 q 453 148 450 156 q 450 133 456 140 q 450 78 446 108 q 456 22 454 49 q 440 19 449 14 q 424 24 432 25 q 403 40 411 31 q 388 60 396 49 q 371 61 378 58 q 365 68 368 67 q 357 72 361 69 q 354 64 357 67 q 347 60 351 61 q 340 56 343 58 q 339 47 338 53 m 208 65 q 213 45 214 56 q 207 26 211 35 q 210 17 210 22 q 206 10 211 13 q 193 17 199 7 q 179 32 188 28 q 169 37 175 33 q 156 43 163 40 q 144 46 150 46 q 133 40 138 46 q 124 33 129 32 q 115 37 119 33 q 106 44 111 40 q 97 50 101 49 q 81 50 88 56 q 68 50 75 44 q 74 131 74 92 q 79 215 75 171 q 83 228 78 224 q 90 215 88 222 q 94 201 92 208 q 101 188 96 194 q 114 178 106 182 l 133 169 q 145 181 142 172 q 157 186 149 189 q 169 172 158 175 q 188 167 179 169 q 194 167 190 165 q 200 171 197 169 q 206 172 203 172 q 211 165 208 171 q 210 135 208 150 q 214 106 211 121 q 210 85 207 96 q 208 65 214 74 z "},"-":{"ha":496,"x_min":39,"x_max":443,"o":"m 414 463 q 443 454 431 467 q 429 453 436 454 q 418 444 422 453 q 391 438 407 440 q 375 418 375 436 l 357 407 q 365 398 358 400 q 378 393 372 396 q 386 386 383 390 q 383 372 389 382 l 365 353 q 382 347 371 343 q 399 342 393 351 l 390 336 q 321 332 354 332 q 263 333 292 332 q 204 335 233 335 q 148 332 176 335 q 92 321 119 329 q 83 320 89 322 q 78 325 78 318 q 57 323 71 328 q 39 328 43 318 q 53 338 43 336 q 72 343 64 340 q 88 355 83 346 q 99 371 93 364 l 93 392 q 113 401 101 399 q 129 415 124 404 q 117 429 126 426 q 104 442 107 432 q 114 448 108 447 q 126 448 119 449 q 139 447 132 447 q 153 450 146 447 q 181 456 165 454 q 211 457 196 457 q 232 457 222 457 q 251 454 242 457 q 285 460 267 464 q 321 465 304 457 q 367 463 342 460 q 414 463 392 467 z "},"_":{"ha":621,"x_min":22,"x_max":603,"o":"m 574 -10 q 603 -18 590 -6 q 589 -19 596 -18 q 578 -28 582 -19 q 551 -34 567 -32 q 535 -54 535 -36 l 517 -65 q 525 -74 518 -72 q 538 -79 532 -76 q 546 -86 543 -82 q 543 -100 549 -90 l 525 -119 q 542 -125 531 -129 q 558 -131 553 -121 l 550 -136 q 457 -140 514 -140 q 353 -139 408 -140 q 246 -137 299 -137 q 148 -140 193 -137 q 75 -151 103 -143 q 67 -152 72 -150 q 61 -147 61 -154 q 40 -149 54 -144 q 22 -144 26 -154 q 37 -134 26 -136 q 56 -129 47 -132 q 72 -117 67 -126 q 82 -101 76 -108 l 76 -81 q 96 -71 85 -74 q 113 -57 107 -68 q 100 -43 110 -46 q 88 -31 90 -40 q 97 -24 92 -25 q 109 -24 103 -24 q 122 -25 115 -25 q 136 -22 129 -25 q 164 -17 149 -18 q 194 -15 179 -15 q 215 -15 206 -15 q 235 -18 225 -15 q 267 -12 242 -14 q 326 -11 293 -11 l 404 -11 q 453 -10 432 -11 q 481 -7 474 -10 q 526 -9 501 -12 q 574 -10 551 -6 z "},"'":{"ha":271,"x_min":53,"x_max":213,"o":"m 200 625 q 201 550 201 588 q 213 475 201 513 l 210 468 q 203 469 206 467 q 197 475 200 472 q 191 480 194 478 q 182 481 188 482 q 178 489 178 483 q 176 497 179 494 q 167 514 172 504 q 151 522 163 524 q 136 525 142 521 q 127 536 131 529 q 121 551 124 543 q 113 564 118 558 q 100 547 106 558 q 82 538 94 535 q 79 547 74 542 q 79 558 85 553 q 76 593 81 576 q 79 629 71 610 q 76 649 72 638 q 74 668 81 660 l 74 750 q 65 763 63 754 q 67 778 67 771 q 67 813 67 796 q 53 844 68 831 q 61 853 53 856 q 74 847 69 850 q 90 826 85 840 q 106 800 94 811 q 107 794 106 797 q 111 792 108 792 q 115 784 113 788 q 121 776 118 781 q 126 788 125 781 q 129 802 128 796 q 134 812 131 808 q 147 811 138 815 q 160 782 156 797 q 175 754 164 767 q 178 759 179 756 q 182 763 176 763 q 194 740 192 751 q 197 715 197 728 q 197 693 197 704 q 200 671 197 682 q 201 649 199 661 q 200 625 203 636 z "},",":{"ha":256,"x_min":50,"x_max":208,"o":"m 174 103 q 190 103 181 107 q 201 85 194 92 q 206 68 208 79 q 187 13 194 40 q 176 -43 179 -14 q 170 -65 169 -54 q 160 -82 171 -76 q 151 -116 157 -100 q 135 -143 146 -132 q 125 -162 135 -156 q 126 -169 131 -167 q 122 -176 121 -172 q 114 -181 119 -181 q 106 -178 108 -181 q 102 -152 103 -165 q 104 -128 101 -139 q 100 -110 106 -118 q 88 -96 94 -103 q 89 -73 85 -85 q 78 -56 93 -61 q 68 -59 75 -58 q 57 -57 61 -60 q 51 -48 50 -54 q 54 -39 51 -42 q 67 -12 61 -26 q 69 14 72 1 q 86 75 79 46 q 92 140 93 104 q 95 159 97 149 q 92 179 93 169 q 104 181 99 188 q 113 171 110 175 q 118 148 111 158 q 129 126 125 138 q 151 124 140 125 q 168 115 161 122 l 174 103 l 174 103 z "},".":{"ha":276,"x_min":65,"x_max":211,"o":"m 206 39 q 210 19 211 29 q 204 0 208 8 q 208 -9 207 -4 q 203 -17 208 -14 q 190 -9 196 -19 q 176 6 185 1 q 166 10 172 7 q 153 17 160 14 q 141 19 147 19 q 131 14 135 19 q 122 6 126 6 q 113 10 117 7 q 103 18 108 14 q 94 24 99 22 q 78 24 85 29 q 65 24 72 18 q 72 105 71 65 q 76 189 72 144 q 81 201 75 197 q 87 189 85 196 q 91 175 89 182 q 98 162 93 168 q 111 151 103 156 l 131 143 q 142 154 139 146 q 154 160 146 163 q 166 146 156 149 q 185 140 176 143 q 191 141 188 139 q 197 144 194 143 q 203 145 200 146 q 208 139 206 144 q 207 109 206 124 q 211 79 208 94 q 208 58 204 69 q 206 39 211 47 z "},";":{"ha":263,"x_min":50,"x_max":208,"o":"m 88 258 q 76 257 82 249 q 74 331 75 293 q 71 403 72 368 q 76 410 71 410 q 101 399 92 410 q 121 381 110 388 q 132 386 124 389 q 143 390 140 383 q 153 390 149 393 q 160 382 157 386 q 168 374 164 378 q 179 371 172 369 l 203 382 q 206 372 208 376 q 201 359 199 367 q 199 344 204 351 q 199 290 194 319 q 204 233 203 260 q 189 231 197 225 q 172 235 181 236 q 152 251 160 242 q 136 271 144 260 q 119 272 126 269 q 113 279 117 278 q 106 283 110 281 q 103 275 106 278 q 96 271 100 272 q 89 267 92 269 q 88 258 86 264 m 174 103 q 190 103 181 107 q 201 85 194 92 q 206 68 208 79 q 187 13 194 40 q 176 -43 179 -14 q 170 -65 169 -54 q 160 -82 171 -76 q 151 -116 157 -100 q 135 -143 146 -132 q 125 -162 135 -156 q 126 -169 131 -167 q 122 -176 121 -172 q 114 -181 119 -181 q 106 -178 108 -181 q 102 -152 103 -165 q 104 -128 101 -139 q 100 -110 106 -118 q 88 -96 94 -103 q 89 -73 85 -85 q 78 -56 93 -61 q 68 -59 75 -58 q 57 -57 61 -60 q 51 -48 50 -54 q 54 -39 51 -42 q 67 -12 61 -26 q 69 14 72 1 q 86 75 79 46 q 92 140 93 104 q 95 159 97 149 q 92 179 93 169 q 104 181 99 188 q 113 171 110 175 q 118 148 111 158 q 129 126 125 138 q 151 124 140 125 q 168 115 161 122 l 174 103 z "},"`":{"ha":279,"x_min":63,"x_max":240,"o":"m 107 678 q 100 683 100 678 q 100 690 100 689 q 88 771 93 731 q 79 850 82 811 q 76 872 79 861 q 69 892 72 882 q 65 911 67 901 q 67 932 64 921 q 63 943 64 936 q 68 954 63 950 l 72 954 l 97 901 q 106 897 103 903 q 113 908 107 904 q 125 911 118 913 q 145 890 140 906 q 167 867 150 874 q 172 871 169 868 q 176 877 174 874 q 181 881 178 881 q 188 879 183 882 l 190 844 q 194 840 196 843 q 196 835 193 838 q 202 798 196 815 q 207 761 208 781 q 208 745 203 751 q 213 732 213 739 q 223 717 221 725 q 226 700 225 708 q 228 684 226 692 q 238 671 229 676 q 237 653 240 661 q 231 635 233 644 q 224 631 224 632 q 217 629 224 631 q 215 636 215 632 q 210 640 215 640 q 200 658 210 649 q 198 630 197 646 q 194 603 199 614 q 187 598 192 596 q 176 594 182 600 l 168 604 q 152 655 161 632 q 135 703 143 678 q 126 708 131 706 q 118 703 121 710 q 116 688 114 697 q 107 678 118 679 z "},"":{"ha":703,"x_min":33,"x_max":650,"o":"m 282 889 q 288 888 285 889 q 293 889 290 888 l 296 886 q 267 868 283 874 q 242 847 251 863 q 248 842 242 840 q 253 836 254 843 q 244 831 250 833 q 242 822 238 829 q 248 819 244 819 q 254 815 251 818 q 236 812 246 808 q 217 813 226 815 l 208 811 q 203 784 207 796 q 206 757 199 772 q 207 709 208 732 q 207 661 206 686 q 210 621 211 640 q 210 579 208 601 q 213 526 211 553 q 217 471 214 499 q 223 444 217 457 q 235 418 229 431 q 242 405 239 411 q 253 393 246 399 q 242 390 247 386 q 232 396 238 393 q 211 422 217 407 q 192 449 206 438 q 184 442 183 449 q 178 438 185 435 q 156 476 172 456 q 152 475 153 478 q 149 471 151 472 q 148 465 150 468 q 143 465 146 463 l 140 468 q 139 499 139 483 q 139 529 139 514 q 139 560 139 544 q 138 592 139 576 q 133 667 140 631 q 129 744 126 704 q 129 757 125 751 q 132 768 133 763 l 126 811 q 117 810 122 814 q 107 810 113 807 q 86 810 96 808 q 68 804 76 811 q 65 806 65 804 q 63 807 65 807 l 38 803 q 38 807 33 807 q 75 833 60 818 q 75 840 78 836 q 67 844 71 840 q 58 846 63 847 l 56 849 q 63 853 58 854 q 71 854 68 851 q 81 863 74 858 q 85 875 88 868 q 76 880 82 881 q 74 886 71 879 q 96 887 85 888 q 114 889 107 886 q 142 888 129 889 q 168 890 154 888 q 206 886 186 889 q 244 888 225 883 q 278 892 261 888 l 282 889 m 383 879 q 387 888 386 882 q 394 890 388 893 q 413 862 408 878 q 425 831 418 846 q 438 792 432 811 q 446 751 443 774 q 455 735 454 744 q 463 718 456 725 q 464 712 464 715 q 468 707 464 708 l 482 679 q 492 703 489 689 q 504 729 494 718 q 512 756 503 744 q 524 781 521 767 q 528 796 528 788 q 535 811 528 804 q 539 832 532 821 q 536 853 546 843 q 542 856 536 856 q 547 852 544 854 q 554 853 550 850 q 561 870 563 860 q 558 892 560 881 q 549 915 558 903 q 549 918 547 917 q 553 921 551 919 q 579 901 568 914 q 599 876 590 889 q 605 884 601 881 q 608 893 608 888 q 612 894 611 893 q 615 893 613 896 q 624 863 622 878 q 625 832 625 847 q 624 801 625 817 q 625 771 624 786 q 627 748 628 760 q 626 725 626 736 q 626 699 625 711 q 629 671 626 686 q 633 623 626 647 q 629 574 639 599 q 631 512 633 543 q 640 451 629 481 q 642 430 635 440 q 650 408 650 419 l 647 407 q 626 420 636 414 q 608 439 615 426 q 597 438 603 442 q 588 435 592 435 q 583 450 586 443 q 578 464 581 457 q 576 455 575 461 q 569 451 576 449 l 560 454 q 558 514 561 485 q 553 572 554 543 q 553 603 556 588 q 549 635 550 619 q 538 607 540 622 q 526 579 536 592 q 526 574 529 576 q 524 569 524 572 q 515 540 521 554 q 501 511 508 525 q 498 488 497 499 q 490 465 499 476 q 488 457 490 461 q 485 449 486 453 q 478 455 479 450 q 475 463 476 460 q 469 471 472 467 q 464 481 467 475 q 466 494 468 488 q 460 508 464 501 q 451 522 456 515 q 447 538 447 529 q 435 565 440 550 q 422 592 431 579 l 424 604 l 421 607 q 417 621 421 614 q 410 633 413 628 q 406 584 410 608 q 404 532 401 560 q 405 510 401 521 q 403 486 408 499 l 406 471 l 404 469 q 412 433 411 451 q 421 400 413 415 l 417 399 q 397 415 408 407 q 378 435 385 424 q 372 432 375 436 q 365 431 369 428 q 358 449 363 440 q 350 465 354 457 q 347 458 347 465 q 342 453 343 457 q 333 447 340 449 q 330 460 331 454 q 326 472 329 465 l 328 472 q 328 481 326 476 q 328 490 331 485 q 329 516 331 503 q 331 543 328 529 q 331 562 333 551 q 331 582 328 572 q 328 593 326 588 q 331 603 329 599 q 332 614 332 608 q 326 624 332 619 l 333 649 l 328 664 q 329 705 329 685 q 329 744 329 725 q 329 769 329 757 q 331 794 329 782 q 328 815 324 804 q 328 835 333 826 q 328 851 331 843 q 328 867 325 858 q 324 873 329 871 q 326 878 319 875 q 335 878 331 879 q 343 881 340 878 q 319 921 339 904 l 324 924 q 355 903 339 913 q 383 879 371 894 z "}," ":{"ha":325,"x_min":0,"x_max":0,"o":""},"$":{"ha":399,"x_min":-19,"x_max":404,"o":"m 265 -65 q 267 -140 267 -103 q 278 -215 267 -178 l 275 -222 q 268 -221 271 -224 q 263 -215 265 -218 q 256 -210 260 -212 q 247 -210 253 -208 q 244 -201 243 -207 q 242 -193 244 -196 q 233 -176 238 -186 q 217 -168 228 -167 q 201 -165 207 -169 q 192 -154 196 -161 q 186 -140 189 -147 q 178 -126 183 -132 q 165 -144 171 -132 q 147 -153 160 -156 q 144 -143 139 -149 q 144 -132 150 -137 q 141 -97 146 -114 q 144 -61 136 -81 q 142 -42 138 -53 q 139 -22 146 -31 l 139 -21 q 124 -11 128 -15 q 115 -1 121 -4 q 102 3 108 1 q 90 8 96 6 q 79 18 83 11 q 56 42 63 24 q 36 71 49 60 q 31 128 38 97 q 26 183 24 158 l 24 185 q 13 255 26 221 q -11 325 0 289 q -10 336 -8 331 q -15 347 -12 342 q -19 356 -18 351 q -12 364 -19 360 q 10 334 -3 349 q 31 304 24 319 l 33 304 q 47 266 38 285 q 75 236 57 247 q 86 238 82 231 q 97 242 90 246 q 108 219 107 232 q 124 201 110 206 q 131 203 129 200 q 135 209 133 206 q 140 215 138 213 q 149 214 143 217 q 154 169 156 193 q 172 131 153 146 q 180 132 176 136 q 188 132 183 128 q 211 134 199 135 q 231 147 224 133 l 235 160 q 231 185 232 172 q 228 208 231 197 q 221 230 226 219 q 204 247 215 240 q 200 263 206 258 q 187 271 194 268 q 173 278 179 274 q 169 294 167 283 q 157 310 167 304 q 140 324 147 315 q 124 331 128 324 q 110 343 119 339 l 74 371 q 67 393 74 383 q 51 412 60 403 q 36 430 43 421 q 28 450 29 439 q 28 479 31 464 q 19 508 25 494 q 20 542 21 525 q 14 576 19 558 q 19 609 13 593 q 15 642 25 625 q 30 687 26 665 q 53 726 33 708 q 71 753 60 740 q 94 774 82 767 q 119 777 106 778 q 142 790 133 776 q 139 803 142 799 l 139 885 q 130 897 128 889 q 132 913 132 906 q 133 948 132 931 q 118 979 133 965 q 126 988 118 990 q 139 982 135 985 q 155 960 150 975 q 171 935 160 946 q 172 929 171 932 q 176 926 174 926 q 181 919 178 922 q 186 911 183 915 q 192 923 190 915 q 194 937 193 931 q 199 947 196 943 q 213 946 203 950 q 225 917 221 932 q 240 889 229 901 q 243 894 244 890 q 247 897 242 897 q 260 874 257 886 q 263 850 263 863 q 263 828 263 839 q 265 806 263 817 q 267 783 264 799 l 278 782 q 331 735 314 765 q 361 672 347 704 q 362 613 360 646 q 363 553 364 581 q 372 487 368 519 q 400 431 376 454 q 403 426 404 431 q 399 418 401 421 q 372 437 382 424 q 352 463 361 450 q 333 488 343 476 q 308 501 324 499 q 297 497 304 494 q 287 522 293 510 q 269 543 281 533 q 263 534 268 536 q 254 531 258 532 q 247 526 250 529 q 247 514 244 522 q 238 515 240 508 q 235 525 235 521 q 229 571 236 547 q 231 618 222 594 q 217 640 221 631 q 201 650 213 651 q 182 647 190 649 q 163 623 167 639 q 161 589 158 607 q 166 533 164 563 q 182 478 168 504 q 210 456 199 468 q 234 430 222 443 q 258 404 246 417 q 288 383 271 392 q 298 363 290 371 q 314 349 306 356 q 329 334 322 342 q 339 314 336 326 q 364 260 354 289 q 369 201 374 231 q 376 147 385 174 q 365 92 367 119 l 338 29 q 325 19 329 25 q 317 6 321 13 q 308 -6 314 0 q 293 -11 303 -11 q 265 -26 283 -24 q 267 -46 267 -36 q 265 -65 268 -56 z "},"A":{"ha":483,"x_min":-40,"x_max":449,"o":"m 340 760 l 383 760 q 421 704 410 736 q 425 639 432 672 q 422 604 428 622 q 419 568 415 586 q 416 528 410 547 q 419 488 422 510 q 421 422 425 453 q 417 360 417 392 q 420 348 421 354 q 419 335 419 342 q 418 322 418 328 q 424 311 418 315 q 421 256 418 283 q 410 201 424 228 q 415 185 413 192 q 424 169 418 179 q 422 144 419 156 q 427 121 424 132 q 433 98 431 110 q 429 74 435 86 l 431 64 q 433 29 433 47 q 432 -8 432 11 q 433 -31 432 -19 q 436 -51 433 -42 q 442 -78 436 -65 q 447 -101 449 -90 q 438 -104 442 -106 q 431 -99 435 -103 q 425 -92 428 -96 q 418 -87 422 -87 q 400 -69 401 -82 q 392 -43 399 -56 q 383 -31 386 -39 q 375 -15 379 -22 q 365 -3 371 -7 q 349 -6 358 0 q 339 -11 344 -8 q 331 -4 333 -14 l 321 38 q 313 34 315 38 q 308 26 310 31 q 303 17 306 21 q 294 13 300 13 l 290 19 q 292 70 294 46 q 293 118 289 94 q 289 140 289 128 q 278 157 289 151 q 244 162 260 167 q 211 150 228 157 q 203 103 203 126 q 207 53 203 78 q 208 3 211 28 q 217 -47 211 -21 q 219 -96 222 -72 q 198 -83 207 -96 q 174 -68 189 -69 q 158 -48 164 -58 q 136 -37 151 -37 q 126 -24 129 -32 q 122 -7 124 -15 q 115 8 119 1 q 99 15 110 14 q 91 10 94 15 q 84 0 88 4 q 77 -6 81 -4 q 68 -1 74 -8 q 68 31 71 14 q 67 63 65 47 q 65 110 65 86 q 64 158 64 133 q 65 226 64 192 q 65 292 65 260 q 69 305 67 299 q 68 319 72 311 q 60 336 60 326 q 67 353 60 346 q 70 369 76 361 q 63 386 64 378 q 65 451 63 417 q 64 518 67 486 q 58 533 57 526 q 64 550 60 540 q 53 556 60 557 q 44 560 47 554 q 49 573 46 567 q 40 582 53 579 q 31 583 36 585 q 21 580 25 582 q 13 578 17 578 q 7 583 8 578 l 28 610 q 19 616 24 611 q 11 625 15 621 q 2 631 7 629 q -8 626 -3 632 q -17 619 -14 624 q -28 618 -21 614 q -34 636 -28 628 q -35 654 -40 644 q -19 671 -29 663 q -10 692 -10 679 q 9 714 0 703 q 32 732 18 725 q 27 736 31 735 q 18 742 24 738 q 15 744 15 742 q 18 747 15 747 q 49 757 32 750 q 81 753 67 764 q 92 753 86 751 q 104 758 99 756 q 115 759 110 760 q 125 751 121 758 q 164 753 143 750 q 201 761 185 756 q 222 758 211 757 q 242 762 232 760 q 261 765 251 764 q 279 760 271 765 q 310 764 294 765 q 340 760 325 763 m 250 642 q 228 641 239 646 q 213 629 218 636 q 207 603 214 615 q 199 578 200 592 q 201 510 206 546 q 200 442 197 474 q 206 421 206 432 q 205 398 206 410 q 204 374 204 386 q 208 351 204 363 q 208 330 211 340 q 211 310 204 319 q 228 311 219 317 q 247 307 238 306 q 257 308 253 304 q 267 306 261 311 q 278 313 278 303 q 281 329 278 324 q 276 367 278 346 q 278 407 275 388 q 269 424 275 417 q 265 442 263 432 q 274 463 272 451 q 276 485 276 474 q 274 510 275 497 q 276 535 274 522 q 272 564 268 549 q 267 580 267 572 q 269 595 267 588 q 272 610 271 603 q 268 626 272 618 q 250 642 264 636 z "}}}
